%TF.GenerationSoftware,KiCad,Pcbnew,7.0.10*%
%TF.CreationDate,2024-01-17T02:44:34+05:30*%
%TF.ProjectId,open_src,6f70656e-5f73-4726-932e-6b696361645f,rev?*%
%TF.SameCoordinates,Original*%
%TF.FileFunction,Copper,L1,Top*%
%TF.FilePolarity,Positive*%
%FSLAX46Y46*%
G04 Gerber Fmt 4.6, Leading zero omitted, Abs format (unit mm)*
G04 Created by KiCad (PCBNEW 7.0.10) date 2024-01-17 02:44:35*
%MOMM*%
%LPD*%
G01*
G04 APERTURE LIST*
G04 Aperture macros list*
%AMRoundRect*
0 Rectangle with rounded corners*
0 $1 Rounding radius*
0 $2 $3 $4 $5 $6 $7 $8 $9 X,Y pos of 4 corners*
0 Add a 4 corners polygon primitive as box body*
4,1,4,$2,$3,$4,$5,$6,$7,$8,$9,$2,$3,0*
0 Add four circle primitives for the rounded corners*
1,1,$1+$1,$2,$3*
1,1,$1+$1,$4,$5*
1,1,$1+$1,$6,$7*
1,1,$1+$1,$8,$9*
0 Add four rect primitives between the rounded corners*
20,1,$1+$1,$2,$3,$4,$5,0*
20,1,$1+$1,$4,$5,$6,$7,0*
20,1,$1+$1,$6,$7,$8,$9,0*
20,1,$1+$1,$8,$9,$2,$3,0*%
G04 Aperture macros list end*
%TA.AperFunction,SMDPad,CuDef*%
%ADD10RoundRect,0.135000X-0.185000X0.135000X-0.185000X-0.135000X0.185000X-0.135000X0.185000X0.135000X0*%
%TD*%
%TA.AperFunction,SMDPad,CuDef*%
%ADD11R,0.600000X2.400000*%
%TD*%
%TA.AperFunction,SMDPad,CuDef*%
%ADD12R,2.400000X0.600000*%
%TD*%
%TA.AperFunction,ComponentPad*%
%ADD13C,7.000000*%
%TD*%
%TA.AperFunction,SMDPad,CuDef*%
%ADD14C,5.000000*%
%TD*%
%TA.AperFunction,SMDPad,CuDef*%
%ADD15C,10.000000*%
%TD*%
%TA.AperFunction,ComponentPad*%
%ADD16C,1.346200*%
%TD*%
%TA.AperFunction,SMDPad,CuDef*%
%ADD17R,2.000000X1.500000*%
%TD*%
%TA.AperFunction,SMDPad,CuDef*%
%ADD18R,2.000000X3.800000*%
%TD*%
%TA.AperFunction,SMDPad,CuDef*%
%ADD19RoundRect,0.150000X-0.150000X0.825000X-0.150000X-0.825000X0.150000X-0.825000X0.150000X0.825000X0*%
%TD*%
%TA.AperFunction,SMDPad,CuDef*%
%ADD20R,1.250000X1.000000*%
%TD*%
%TA.AperFunction,SMDPad,CuDef*%
%ADD21RoundRect,0.135000X-0.135000X-0.185000X0.135000X-0.185000X0.135000X0.185000X-0.135000X0.185000X0*%
%TD*%
%TA.AperFunction,SMDPad,CuDef*%
%ADD22RoundRect,0.135000X0.135000X0.185000X-0.135000X0.185000X-0.135000X-0.185000X0.135000X-0.185000X0*%
%TD*%
%TA.AperFunction,SMDPad,CuDef*%
%ADD23RoundRect,0.250000X-0.625000X0.312500X-0.625000X-0.312500X0.625000X-0.312500X0.625000X0.312500X0*%
%TD*%
%TA.AperFunction,SMDPad,CuDef*%
%ADD24RoundRect,0.250000X0.625000X-0.312500X0.625000X0.312500X-0.625000X0.312500X-0.625000X-0.312500X0*%
%TD*%
%TA.AperFunction,SMDPad,CuDef*%
%ADD25R,0.740000X2.400000*%
%TD*%
%TA.AperFunction,SMDPad,CuDef*%
%ADD26RoundRect,0.147500X-0.147500X-0.172500X0.147500X-0.172500X0.147500X0.172500X-0.147500X0.172500X0*%
%TD*%
%TA.AperFunction,SMDPad,CuDef*%
%ADD27RoundRect,0.075000X-0.125000X-0.075000X0.125000X-0.075000X0.125000X0.075000X-0.125000X0.075000X0*%
%TD*%
%TA.AperFunction,SMDPad,CuDef*%
%ADD28RoundRect,0.100000X-0.130000X-0.100000X0.130000X-0.100000X0.130000X0.100000X-0.130000X0.100000X0*%
%TD*%
%TA.AperFunction,SMDPad,CuDef*%
%ADD29RoundRect,0.100000X0.130000X0.100000X-0.130000X0.100000X-0.130000X-0.100000X0.130000X-0.100000X0*%
%TD*%
%TA.AperFunction,SMDPad,CuDef*%
%ADD30RoundRect,0.075000X0.125000X0.075000X-0.125000X0.075000X-0.125000X-0.075000X0.125000X-0.075000X0*%
%TD*%
%TA.AperFunction,SMDPad,CuDef*%
%ADD31C,4.000000*%
%TD*%
%TA.AperFunction,ComponentPad*%
%ADD32C,10.000000*%
%TD*%
%TA.AperFunction,SMDPad,CuDef*%
%ADD33RoundRect,1.500000X1.500000X1.500000X-1.500000X1.500000X-1.500000X-1.500000X1.500000X-1.500000X0*%
%TD*%
%TA.AperFunction,ComponentPad*%
%ADD34O,2.000000X1.905000*%
%TD*%
%TA.AperFunction,ComponentPad*%
%ADD35R,2.000000X1.905000*%
%TD*%
%TA.AperFunction,ComponentPad*%
%ADD36R,2.600000X2.000000*%
%TD*%
%TA.AperFunction,ComponentPad*%
%ADD37C,2.600000*%
%TD*%
%TA.AperFunction,ViaPad*%
%ADD38C,0.800000*%
%TD*%
%TA.AperFunction,ViaPad*%
%ADD39C,2.000000*%
%TD*%
%TA.AperFunction,Conductor*%
%ADD40C,0.250000*%
%TD*%
%TA.AperFunction,Conductor*%
%ADD41C,1.000000*%
%TD*%
%TA.AperFunction,Conductor*%
%ADD42C,1.500000*%
%TD*%
%TA.AperFunction,Conductor*%
%ADD43C,2.500000*%
%TD*%
G04 APERTURE END LIST*
D10*
%TO.P,R14,2*%
%TO.N,+3.3v*%
X140160000Y-87640000D03*
%TO.P,R14,1*%
%TO.N,SDA*%
X140160000Y-86620000D03*
%TD*%
%TO.P,R13,2*%
%TO.N,+3.3v*%
X141500000Y-87600000D03*
%TO.P,R13,1*%
%TO.N,SCL*%
X141500000Y-86580000D03*
%TD*%
D11*
%TO.P,U1,1,GND*%
%TO.N,GND*%
X138620000Y-78279999D03*
%TO.P,U1,2,PB04*%
%TO.N,SDA*%
X139620001Y-78279999D03*
%TO.P,U1,3,PB03*%
%TO.N,SCL*%
X140619999Y-78279999D03*
%TO.P,U1,4,PB02*%
%TO.N,unconnected-(U1A-PB02-Pad4)*%
X141619999Y-78279999D03*
%TO.P,U1,5,PB01*%
%TO.N,unconnected-(U1A-PB01-Pad5)*%
X142620000Y-78279999D03*
%TO.P,U1,6,PB00*%
%TO.N,unconnected-(U1A-PB00-Pad6)*%
X143620000Y-78279999D03*
%TO.P,U1,7,PA00*%
%TO.N,unconnected-(U1A-PA00-Pad7)*%
X144619998Y-78279999D03*
%TO.P,U1,8,PA01*%
%TO.N,SWCLK*%
X145619999Y-78279999D03*
%TO.P,U1,9,PA02*%
%TO.N,SWDIO*%
X146620000Y-78279999D03*
%TO.P,U1,10,PA03*%
%TO.N,SW0*%
X147620000Y-78279999D03*
%TO.P,U1,11,PA04*%
%TO.N,unconnected-(U1A-PA04-Pad11)*%
X148620001Y-78279999D03*
%TO.P,U1,12,PA05*%
%TO.N,TX*%
X149619999Y-78279999D03*
%TO.P,U1,13,PA06*%
%TO.N,RX*%
X150619999Y-78279999D03*
%TO.P,U1,14,GND*%
%TO.N,GND*%
X151620000Y-78279999D03*
D12*
%TO.P,U1,15,VDD*%
%TO.N,+3.3v*%
X152119999Y-76130001D03*
%TO.P,U1,16,PA07*%
%TO.N,unconnected-(U1A-PA07-Pad16)*%
X152119999Y-75130000D03*
%TO.P,U1,17,PA08*%
%TO.N,Status_led*%
X152119999Y-74130000D03*
%TO.P,U1,18,PD03*%
%TO.N,unconnected-(U1A-PD03-Pad18)*%
X152119999Y-73129999D03*
%TO.P,U1,19,PD02*%
%TO.N,ZCR_OUT*%
X152119999Y-72130001D03*
%TO.P,U1,20,PD01*%
%TO.N,PWM_IN*%
X152119999Y-71130000D03*
%TO.P,U1,21,PD00*%
%TO.N,Current_monitor*%
X152119999Y-70130000D03*
%TO.P,U1,22,PC00*%
%TO.N,unconnected-(U1A-PC00-Pad22)*%
X152119999Y-69129999D03*
D11*
%TO.P,U1,23,GND*%
%TO.N,GND*%
X151620000Y-66980001D03*
%TO.P,U1,24,PC01*%
%TO.N,unconnected-(U1A-PC01-Pad24)*%
X150619999Y-66980001D03*
%TO.P,U1,25,PC02*%
%TO.N,unconnected-(U1A-PC02-Pad25)*%
X149620001Y-66980001D03*
%TO.P,U1,26,PC03*%
%TO.N,unconnected-(U1A-PC03-Pad26)*%
X148620001Y-66980001D03*
%TO.P,U1,27,PC04*%
%TO.N,PTI_DATA*%
X147620000Y-66980001D03*
%TO.P,U1,28,PC05*%
%TO.N,PTI_FRAME*%
X146620000Y-66980001D03*
%TO.P,U1,29,PC06*%
%TO.N,unconnected-(U1A-PC06-Pad29)*%
X145619999Y-66980001D03*
%TO.P,U1,30,PC07*%
%TO.N,unconnected-(U1A-PC07-Pad30)*%
X144620001Y-66980001D03*
%TO.P,U1,31,RESET*%
%TO.N,RESET*%
X143620000Y-66980001D03*
%TO.P,U1,32,GND*%
%TO.N,GND*%
X142620000Y-66980001D03*
%TO.P,U1,33,RFOUT*%
%TO.N,unconnected-(U1A-RFOUT-Pad33)*%
X141619999Y-66980001D03*
%TO.P,U1,34,GND*%
%TO.N,GND*%
X140619999Y-66980001D03*
%TO.P,U1,35,GND*%
X139620001Y-66980001D03*
%TO.P,U1,36,GND*%
X138620000Y-66980001D03*
%TD*%
D13*
%TO.P,H2,1,1*%
%TO.N,Neutral*%
X154490000Y-92110000D03*
%TD*%
D14*
%TO.P,H9,1,1*%
%TO.N,Neutral*%
X154432000Y-98806000D03*
%TD*%
D15*
%TO.P,H8,1,1*%
%TO.N,Earth*%
X164084000Y-80518000D03*
%TD*%
D16*
%TO.P,R1,1*%
%TO.N,Phase_IN*%
X182626000Y-99314000D03*
%TO.P,R1,2*%
%TO.N,Neutral*%
X184426000Y-91814000D03*
%TD*%
D14*
%TO.P,H4,1,1*%
%TO.N,Phase_OUT*%
X173736000Y-98806000D03*
%TD*%
D17*
%TO.P,U4,3,VI*%
%TO.N,+5v*%
X180800000Y-123930000D03*
%TO.P,U4,2,VO*%
%TO.N,+3.3v*%
X180800000Y-121630000D03*
D18*
X187100000Y-121630000D03*
D17*
%TO.P,U4,1,GND*%
%TO.N,GND*%
X180800000Y-119330000D03*
%TD*%
D19*
%TO.P,U2,8,VCC*%
%TO.N,+5v*%
X166775000Y-112615000D03*
%TO.P,U2,7,VIOUT*%
%TO.N,Current_monitor*%
X165505000Y-112615000D03*
%TO.P,U2,6,FILTER*%
%TO.N,Net-(U2-FILTER)*%
X164235000Y-112615000D03*
%TO.P,U2,5,GND*%
%TO.N,GND*%
X162965000Y-112615000D03*
%TO.P,U2,4,IP-*%
%TO.N,Neutral*%
X162965000Y-107665000D03*
%TO.P,U2,3,IP-*%
X164235000Y-107665000D03*
%TO.P,U2,2,IP+*%
%TO.N,Phase_OUT*%
X165505000Y-107665000D03*
%TO.P,U2,1,IP+*%
X166775000Y-107665000D03*
%TD*%
D20*
%TO.P,SW1,2,B*%
%TO.N,Net-(SW1A-B)*%
X177611000Y-56642000D03*
%TO.P,SW1,1,A*%
%TO.N,GND*%
X169861000Y-56642000D03*
%TD*%
D21*
%TO.P,R17,2*%
%TO.N,Net-(D3-A)*%
X156210000Y-80730000D03*
%TO.P,R17,1*%
%TO.N,Status_led*%
X155190000Y-80730000D03*
%TD*%
D10*
%TO.P,R16,2*%
%TO.N,Net-(D2-A)*%
X156160000Y-75770000D03*
%TO.P,R16,1*%
%TO.N,+3.3v*%
X156160000Y-74750000D03*
%TD*%
D22*
%TO.P,R15,2*%
%TO.N,RESET*%
X169414000Y-60706000D03*
%TO.P,R15,1*%
%TO.N,Net-(SW1A-B)*%
X170434000Y-60706000D03*
%TD*%
D23*
%TO.P,R12,1*%
%TO.N,Net-(R12-Pad1)*%
X154940000Y-107757500D03*
%TO.P,R12,2*%
%TO.N,Phase_SCR*%
X154940000Y-110682500D03*
%TD*%
D24*
%TO.P,R11,2*%
%TO.N,Net-(Q1-G)*%
X146812000Y-96073500D03*
%TO.P,R11,1*%
%TO.N,Net-(R11-Pad1)*%
X146812000Y-98998500D03*
%TD*%
%TO.P,R7,1*%
%TO.N,Phase_SCR*%
X150876000Y-110682500D03*
%TO.P,R7,2*%
%TO.N,Net-(R6-Pad1)*%
X150876000Y-107757500D03*
%TD*%
D23*
%TO.P,R6,1*%
%TO.N,Net-(R6-Pad1)*%
X146812000Y-107757500D03*
%TO.P,R6,2*%
%TO.N,Net-(R5-Pad1)*%
X146812000Y-110682500D03*
%TD*%
D24*
%TO.P,R5,1*%
%TO.N,Net-(R5-Pad1)*%
X143002000Y-110682500D03*
%TO.P,R5,2*%
%TO.N,Net-(Q3-B)*%
X143002000Y-107757500D03*
%TD*%
D10*
%TO.P,R2,1*%
%TO.N,+5v*%
X166740000Y-114440000D03*
%TO.P,R2,2*%
%TO.N,Net-(D1-A)*%
X166740000Y-115460000D03*
%TD*%
D25*
%TO.P,J1,10,GND*%
%TO.N,GND*%
X165960000Y-56840000D03*
%TO.P,J1,9,PTI_FRAME*%
%TO.N,PTI_FRAME*%
X165960000Y-60740000D03*
%TO.P,J1,8,SWCLK*%
%TO.N,SWCLK*%
X164690000Y-56840000D03*
%TO.P,J1,7,SWDIO*%
%TO.N,SWDIO*%
X164690000Y-60740000D03*
%TO.P,J1,6,SWO*%
%TO.N,SW0*%
X163420000Y-56840000D03*
%TO.P,J1,5,TX*%
%TO.N,TX*%
X163420000Y-60740000D03*
%TO.P,J1,4,RX*%
%TO.N,RX*%
X162150000Y-56840000D03*
%TO.P,J1,3,RESET*%
%TO.N,RESET*%
X162150000Y-60740000D03*
%TO.P,J1,2,GND*%
%TO.N,GND*%
X160880000Y-56840000D03*
%TO.P,J1,1,3.3*%
%TO.N,+3.3v*%
X160880000Y-60740000D03*
%TD*%
D26*
%TO.P,D3,1,K*%
%TO.N,GND*%
X155240000Y-78880000D03*
%TO.P,D3,2,A*%
%TO.N,Net-(D3-A)*%
X156210000Y-78880000D03*
%TD*%
%TO.P,D2,2,A*%
%TO.N,Net-(D2-A)*%
X156210000Y-76890000D03*
%TO.P,D2,1,K*%
%TO.N,GND*%
X155240000Y-76890000D03*
%TD*%
%TO.P,D1,2,A*%
%TO.N,Net-(D1-A)*%
X165885000Y-116900000D03*
%TO.P,D1,1,K*%
%TO.N,GND*%
X164915000Y-116900000D03*
%TD*%
D27*
%TO.P,C5,1*%
%TO.N,GND*%
X158110000Y-59310000D03*
%TO.P,C5,2*%
%TO.N,+3.3v*%
X158610000Y-59310000D03*
%TD*%
D28*
%TO.P,C4,1*%
%TO.N,+3.3v*%
X186460000Y-115880000D03*
%TO.P,C4,2*%
%TO.N,GND*%
X187100000Y-115880000D03*
%TD*%
D29*
%TO.P,C3,1*%
%TO.N,GND*%
X187105000Y-114600000D03*
%TO.P,C3,2*%
%TO.N,+3.3v*%
X186465000Y-114600000D03*
%TD*%
D30*
%TO.P,C2,1*%
%TO.N,GND*%
X163826000Y-115570000D03*
%TO.P,C2,2*%
%TO.N,Net-(U2-FILTER)*%
X163326000Y-115570000D03*
%TD*%
D27*
%TO.P,C1,2*%
%TO.N,+5v*%
X165320000Y-115630000D03*
%TO.P,C1,1*%
%TO.N,GND*%
X164820000Y-115630000D03*
%TD*%
D31*
%TO.P,REF\u002A\u002A,1*%
%TO.N,N/C*%
X139342183Y-132922183D03*
%TD*%
%TO.P,REF\u002A\u002A,1*%
%TO.N,N/C*%
X187070000Y-56960000D03*
%TD*%
D13*
%TO.P,H3,1,1*%
%TO.N,Phase_IN*%
X173610000Y-92160000D03*
%TD*%
D32*
%TO.P,H1,1,1*%
%TO.N,Earth*%
X163870000Y-69720000D03*
%TD*%
D33*
%TO.P,F1,2*%
%TO.N,Phase_SCR*%
X157180000Y-124120000D03*
%TO.P,F1,1*%
%TO.N,Phase_IN*%
X174180000Y-124120000D03*
%TD*%
D34*
%TO.P,Q1,3,G*%
%TO.N,Net-(Q1-G)*%
X143805000Y-95980000D03*
%TO.P,Q1,2,A2*%
%TO.N,Phase_SCR*%
X143805000Y-98520000D03*
D35*
%TO.P,Q1,1,A1*%
%TO.N,Phase_OUT*%
X143805000Y-101060000D03*
%TD*%
D36*
%TO.P,PS1,1,AC/L*%
%TO.N,Phase_SCR*%
X144850000Y-125180000D03*
D37*
%TO.P,PS1,2,AC/N*%
%TO.N,Neutral*%
X144850000Y-117380000D03*
%TO.P,PS1,3,-Vout*%
%TO.N,GND*%
X187350000Y-132580000D03*
%TO.P,PS1,4,+Vout*%
%TO.N,+5v*%
X187350000Y-109980000D03*
%TD*%
D38*
%TO.N,RESET*%
X155900000Y-57510000D03*
X155870000Y-59270000D03*
X157320000Y-63490000D03*
X162800000Y-63650000D03*
%TO.N,GND*%
X155270000Y-79810000D03*
X157770000Y-96270000D03*
%TO.N,+5v*%
X180650000Y-126500000D03*
%TO.N,Status_led*%
X154178000Y-77470000D03*
X154178000Y-74422000D03*
%TO.N,Net-(Q2-C)*%
X163576000Y-100584000D03*
X163830000Y-97790000D03*
%TO.N,ZCR_OUT*%
X167640000Y-87884000D03*
X169164000Y-84502000D03*
X148590000Y-72136000D03*
%TO.N,PWM_IN*%
X154686000Y-71120000D03*
X159004000Y-83058000D03*
X159004000Y-87630000D03*
%TO.N,TX*%
X149590000Y-76610000D03*
X154790000Y-65000000D03*
X154790000Y-63250000D03*
%TO.N,SWDIO*%
X146647337Y-76610000D03*
X164700000Y-62770000D03*
%TO.N,TX*%
X163420000Y-62770000D03*
%TO.N,Current_monitor*%
X170130000Y-79930000D03*
X170190000Y-105620000D03*
X165510000Y-113180000D03*
%TO.N,+3.3v*%
X157600000Y-80740000D03*
%TO.N,RX*%
X146670000Y-72500000D03*
%TO.N,SW0*%
X146050000Y-75040000D03*
%TO.N,SWCLK*%
X145370000Y-76310000D03*
%TO.N,RX*%
X157670000Y-56350000D03*
%TO.N,SW0*%
X157670000Y-55240000D03*
%TO.N,SWCLK*%
X157640000Y-54340000D03*
%TO.N,*%
X151650000Y-64790000D03*
X140600000Y-64850000D03*
%TO.N,Net-(Q3-B)*%
X143002000Y-105664000D03*
X152654000Y-103886000D03*
X161290000Y-99822000D03*
%TO.N,Net-(R12-Pad1)*%
X154940000Y-107696000D03*
%TO.N,*%
X164084000Y-102362000D03*
X166370000Y-97790000D03*
%TO.N,Net-(R11-Pad1)*%
X149860000Y-103886000D03*
%TO.N,+3.3v*%
X159258000Y-96520000D03*
X187198000Y-121666000D03*
X183896000Y-121666000D03*
D39*
%TO.N,Phase_IN*%
X174180000Y-124120000D03*
D38*
%TO.N,*%
X139700000Y-89154000D03*
X146304000Y-89154000D03*
X144018000Y-89154000D03*
X149098000Y-89154000D03*
X141986000Y-89154000D03*
X152146000Y-54610000D03*
X149860000Y-54610000D03*
X147320000Y-54610000D03*
X144526000Y-54610000D03*
X142240000Y-54610000D03*
X140208000Y-54610000D03*
X137922000Y-54610000D03*
X137922000Y-63500000D03*
X137922000Y-58928000D03*
X137668000Y-89154000D03*
X137668000Y-85852000D03*
X137668000Y-82804000D03*
X139610000Y-64840000D03*
X151640000Y-80320000D03*
%TO.N,Current_monitor*%
X154680000Y-70130000D03*
%TO.N,*%
X138600000Y-80740000D03*
X138600000Y-64850000D03*
%TD*%
D40*
%TO.N,RESET*%
X156740000Y-59270000D02*
X155870000Y-59270000D01*
X157320000Y-59850000D02*
X156740000Y-59270000D01*
X157320000Y-63490000D02*
X157320000Y-59850000D01*
X143620000Y-60460000D02*
X143620000Y-66980001D01*
X155900000Y-57510000D02*
X146570000Y-57510000D01*
X146570000Y-57510000D02*
X143620000Y-60460000D01*
X169414000Y-62988000D02*
X169414000Y-60706000D01*
X162456000Y-63650000D02*
X168760000Y-63650000D01*
X162150000Y-63344000D02*
X162456000Y-63650000D01*
X168760000Y-63650000D02*
X169418000Y-62992000D01*
X169418000Y-62992000D02*
X169414000Y-62988000D01*
%TO.N,GND*%
X155240000Y-76890000D02*
X155240000Y-78880000D01*
D41*
%TO.N,+5v*%
X180650000Y-124080000D02*
X180800000Y-123930000D01*
X180650000Y-126500000D02*
X180650000Y-124080000D01*
D42*
%TO.N,Phase_SCR*%
X156120000Y-125180000D02*
X157180000Y-124120000D01*
X144850000Y-125180000D02*
X156120000Y-125180000D01*
X139446000Y-100379000D02*
X141305000Y-98520000D01*
X139446000Y-122846000D02*
X139446000Y-100379000D01*
X141780000Y-125180000D02*
X139446000Y-122846000D01*
X144850000Y-125180000D02*
X141780000Y-125180000D01*
X141305000Y-98520000D02*
X143805000Y-98520000D01*
D40*
%TO.N,Status_led*%
X154178000Y-79718000D02*
X155190000Y-80730000D01*
X154178000Y-77470000D02*
X154178000Y-79718000D01*
X153886000Y-74130000D02*
X154178000Y-74422000D01*
X152119999Y-74130000D02*
X153886000Y-74130000D01*
%TO.N,Net-(Q2-C)*%
X163830000Y-97790000D02*
X163830000Y-100330000D01*
X163830000Y-100330000D02*
X163576000Y-100584000D01*
%TO.N,ZCR_OUT*%
X169164000Y-84502000D02*
X169164000Y-85598000D01*
X169164000Y-85598000D02*
X167640000Y-87122000D01*
X167640000Y-87122000D02*
X167640000Y-87884000D01*
%TO.N,PWM_IN*%
X159004000Y-83058000D02*
X159004000Y-87630000D01*
%TO.N,ZCR_OUT*%
X148595999Y-72130001D02*
X148590000Y-72136000D01*
X152119999Y-72130001D02*
X148595999Y-72130001D01*
%TO.N,PWM_IN*%
X154676000Y-71130000D02*
X154686000Y-71120000D01*
X152119999Y-71130000D02*
X154676000Y-71130000D01*
%TO.N,+3.3v*%
X157450000Y-87600000D02*
X157590000Y-87740000D01*
X141500000Y-87600000D02*
X157450000Y-87600000D01*
X157590000Y-87740000D02*
X158242000Y-88392000D01*
X157600000Y-80740000D02*
X157590000Y-80750000D01*
X157590000Y-80750000D02*
X157590000Y-87740000D01*
X156290000Y-74750000D02*
X156160000Y-74750000D01*
X157600000Y-76060000D02*
X156290000Y-74750000D01*
X157600000Y-80740000D02*
X157600000Y-76060000D01*
X156160000Y-68630000D02*
X156160000Y-74750000D01*
X160880000Y-63910000D02*
X156160000Y-68630000D01*
X160880000Y-60740000D02*
X160880000Y-63910000D01*
X155390000Y-74750000D02*
X156160000Y-74750000D01*
X154880000Y-75580000D02*
X154880000Y-75260000D01*
X154880000Y-75260000D02*
X155390000Y-74750000D01*
X152119999Y-76130001D02*
X154329999Y-76130001D01*
X154329999Y-76130001D02*
X154880000Y-75580000D01*
%TO.N,Net-(D2-A)*%
X156210000Y-75820000D02*
X156160000Y-75770000D01*
X156210000Y-76890000D02*
X156210000Y-75820000D01*
%TO.N,Net-(D3-A)*%
X156210000Y-78880000D02*
X156210000Y-80730000D01*
%TO.N,TX*%
X154790000Y-63250000D02*
X154790000Y-65000000D01*
X149590000Y-78250000D02*
X149619999Y-78279999D01*
X149590000Y-76610000D02*
X149590000Y-78250000D01*
%TO.N,RX*%
X150619999Y-76614694D02*
X150619999Y-78279999D01*
X147170000Y-75150000D02*
X147770000Y-75750000D01*
X149755305Y-75750000D02*
X150619999Y-76614694D01*
X147170000Y-73000000D02*
X147170000Y-75150000D01*
X147770000Y-75750000D02*
X149755305Y-75750000D01*
X146670000Y-72500000D02*
X147170000Y-73000000D01*
%TO.N,TX*%
X163420000Y-60740000D02*
X163420000Y-62770000D01*
%TO.N,SWDIO*%
X146647337Y-78252662D02*
X146620000Y-78279999D01*
X146647337Y-76610000D02*
X146647337Y-78252662D01*
%TO.N,SW0*%
X147620000Y-76424695D02*
X147620000Y-78279999D01*
X146215000Y-75885000D02*
X147080305Y-75885000D01*
X147080305Y-75885000D02*
X147620000Y-76424695D01*
X146050000Y-75720000D02*
X146215000Y-75885000D01*
X146050000Y-75040000D02*
X146050000Y-75720000D01*
%TO.N,SWDIO*%
X164690000Y-62760000D02*
X164700000Y-62770000D01*
X164690000Y-60740000D02*
X164690000Y-62760000D01*
%TO.N,PTI_FRAME*%
X146670000Y-66930001D02*
X146620000Y-66980001D01*
X146670000Y-60130000D02*
X146670000Y-66930001D01*
X147710000Y-59090000D02*
X146670000Y-60130000D01*
X153770000Y-59090000D02*
X147710000Y-59090000D01*
X159690000Y-58420000D02*
X154440000Y-58420000D01*
X160050000Y-58780000D02*
X159690000Y-58420000D01*
X165560000Y-58780000D02*
X160050000Y-58780000D01*
X165950000Y-59880000D02*
X165950000Y-59170000D01*
X154440000Y-58420000D02*
X153770000Y-59090000D01*
X165960000Y-59890000D02*
X165950000Y-59880000D01*
X165960000Y-60740000D02*
X165960000Y-59890000D01*
X165950000Y-59170000D02*
X165560000Y-58780000D01*
%TO.N,Current_monitor*%
X169310000Y-87280000D02*
X169310000Y-104740000D01*
X170130000Y-86460000D02*
X169310000Y-87280000D01*
X170130000Y-79930000D02*
X170130000Y-86460000D01*
X169310000Y-104740000D02*
X170190000Y-105620000D01*
X152119999Y-70130000D02*
X154680000Y-70130000D01*
%TO.N,SWCLK*%
X145619999Y-76559999D02*
X145370000Y-76310000D01*
X145619999Y-78279999D02*
X145619999Y-76559999D01*
%TO.N,RX*%
X158970000Y-56040000D02*
X158660000Y-56350000D01*
X158970000Y-55600000D02*
X158970000Y-56040000D01*
X157670000Y-56350000D02*
X158660000Y-56350000D01*
%TO.N,SW0*%
X163420000Y-54950000D02*
X163420000Y-56840000D01*
X159530000Y-54200000D02*
X162670000Y-54200000D01*
X162670000Y-54200000D02*
X163420000Y-54950000D01*
X158490000Y-55240000D02*
X159530000Y-54200000D01*
X157670000Y-55240000D02*
X158490000Y-55240000D01*
%TO.N,SWCLK*%
X157640000Y-54340000D02*
X158640000Y-54340000D01*
X159260000Y-53720000D02*
X158665000Y-54315000D01*
X158640000Y-54340000D02*
X158665000Y-54315000D01*
X163490000Y-53720000D02*
X159260000Y-53720000D01*
X164690000Y-54920000D02*
X163490000Y-53720000D01*
X164690000Y-56840000D02*
X164690000Y-54920000D01*
%TO.N,RX*%
X158980000Y-55600000D02*
X158970000Y-55600000D01*
X162150000Y-55430000D02*
X161750000Y-55030000D01*
X161750000Y-55030000D02*
X159550000Y-55030000D01*
X159550000Y-55030000D02*
X158980000Y-55600000D01*
X162150000Y-56840000D02*
X162150000Y-55430000D01*
%TO.N,+3.3v*%
X141460000Y-87640000D02*
X141500000Y-87600000D01*
X140160000Y-87640000D02*
X141460000Y-87640000D01*
%TO.N,SCL*%
X141460000Y-85210000D02*
X141460000Y-86490000D01*
X140950000Y-84700000D02*
X141460000Y-85210000D01*
X140619999Y-84369999D02*
X140950000Y-84700000D01*
X140619999Y-78279999D02*
X140619999Y-84369999D01*
%TO.N,SDA*%
X139620001Y-86080001D02*
X140160000Y-86620000D01*
X139620001Y-78279999D02*
X139620001Y-86080001D01*
%TO.N,GND*%
X139620001Y-66980001D02*
X140619999Y-66980001D01*
X138620000Y-66980001D02*
X139620001Y-66980001D01*
%TO.N,Net-(R6-Pad1)*%
X146812000Y-107757500D02*
X150876000Y-107757500D01*
%TO.N,Net-(Q3-B)*%
X156718000Y-103886000D02*
X152654000Y-103886000D01*
X157734000Y-100076000D02*
X157226000Y-100584000D01*
X157226000Y-100584000D02*
X157226000Y-103378000D01*
X157226000Y-103378000D02*
X156718000Y-103886000D01*
X161290000Y-99822000D02*
X161036000Y-100076000D01*
X161036000Y-100076000D02*
X157734000Y-100076000D01*
X143002000Y-107757500D02*
X143002000Y-105664000D01*
%TO.N,*%
X165862000Y-101854000D02*
X165354000Y-102362000D01*
X165354000Y-102362000D02*
X164084000Y-102362000D01*
X165862000Y-100838000D02*
X165862000Y-101854000D01*
X165862000Y-99822000D02*
X165862000Y-100838000D01*
X166370000Y-99314000D02*
X165862000Y-99822000D01*
X166370000Y-97790000D02*
X166370000Y-99314000D01*
D41*
%TO.N,Net-(R11-Pad1)*%
X149098000Y-103886000D02*
X149860000Y-103886000D01*
X147574000Y-102362000D02*
X149098000Y-103886000D01*
X147066000Y-98998500D02*
X147066000Y-101854000D01*
X147066000Y-101854000D02*
X147574000Y-102362000D01*
D42*
%TO.N,Net-(Q1-G)*%
X146972500Y-95980000D02*
X147066000Y-96073500D01*
X143805000Y-95980000D02*
X146972500Y-95980000D01*
%TO.N,Net-(R5-Pad1)*%
X143002000Y-110682500D02*
X146812000Y-110682500D01*
D40*
%TO.N,Net-(SW1A-B)*%
X177611000Y-60387000D02*
X177292000Y-60706000D01*
X177611000Y-56642000D02*
X177611000Y-60387000D01*
X177292000Y-60706000D02*
X170434000Y-60706000D01*
%TO.N,RESET*%
X162150000Y-63344000D02*
X162150000Y-63246000D01*
X162150000Y-60740000D02*
X162150000Y-63344000D01*
%TO.N,+3.3v*%
X158635000Y-59335000D02*
X158635000Y-59310000D01*
X158736000Y-59436000D02*
X158635000Y-59335000D01*
X159766000Y-59690000D02*
X159512000Y-59436000D01*
X160274000Y-60706000D02*
X159766000Y-60198000D01*
X159766000Y-60198000D02*
X159766000Y-59690000D01*
X160846000Y-60706000D02*
X160274000Y-60706000D01*
X159512000Y-59436000D02*
X158736000Y-59436000D01*
X160880000Y-60740000D02*
X160846000Y-60706000D01*
X159258000Y-89408000D02*
X159258000Y-96520000D01*
X158242000Y-88392000D02*
X159258000Y-89408000D01*
D41*
X187136000Y-121630000D02*
X187100000Y-121630000D01*
X187198000Y-121666000D02*
X187136000Y-121630000D01*
X187064000Y-121630000D02*
X187198000Y-121666000D01*
X183932000Y-121630000D02*
X187064000Y-121630000D01*
X183896000Y-121666000D02*
X183932000Y-121630000D01*
X183860000Y-121630000D02*
X183896000Y-121666000D01*
D40*
%TO.N,Net-(U2-FILTER)*%
X163301000Y-114575000D02*
X163301000Y-115570000D01*
X164235000Y-113641000D02*
X163301000Y-114575000D01*
X164235000Y-112615000D02*
X164235000Y-113641000D01*
%TO.N,+5v*%
X165976000Y-114440000D02*
X165345000Y-115071000D01*
X166740000Y-114440000D02*
X165976000Y-114440000D01*
X165345000Y-115071000D02*
X165345000Y-115630000D01*
%TO.N,Net-(D1-A)*%
X166740000Y-116470000D02*
X166740000Y-115460000D01*
X165885000Y-116900000D02*
X166310000Y-116900000D01*
X166310000Y-116900000D02*
X166740000Y-116470000D01*
%TO.N,+5v*%
X178838000Y-123930000D02*
X180800000Y-123930000D01*
X178816000Y-123952000D02*
X178838000Y-123930000D01*
X178308000Y-123444000D02*
X178816000Y-123952000D01*
X178308000Y-121158000D02*
X178308000Y-123444000D01*
X177038000Y-119888000D02*
X178308000Y-121158000D01*
X171450000Y-119888000D02*
X177038000Y-119888000D01*
X170688000Y-119126000D02*
X171450000Y-119888000D01*
X170688000Y-116840000D02*
X170688000Y-119126000D01*
X168288000Y-114440000D02*
X170688000Y-116840000D01*
X166740000Y-114440000D02*
X168288000Y-114440000D01*
X166775000Y-114405000D02*
X166740000Y-114440000D01*
X166775000Y-112615000D02*
X166775000Y-114405000D01*
%TO.N,+3.3v*%
X186460000Y-120990000D02*
X187100000Y-121630000D01*
X186460000Y-115880000D02*
X186460000Y-120990000D01*
D41*
X180800000Y-121630000D02*
X183860000Y-121630000D01*
D40*
X186460000Y-114605000D02*
X186465000Y-114600000D01*
X186460000Y-115880000D02*
X186460000Y-114605000D01*
D42*
%TO.N,Earth*%
X164084000Y-69934000D02*
X163870000Y-69720000D01*
D43*
X164084000Y-80518000D02*
X164084000Y-69934000D01*
D42*
%TO.N,Neutral*%
X154432000Y-92168000D02*
X154490000Y-92110000D01*
X154432000Y-98806000D02*
X154432000Y-92168000D01*
%TO.N,Phase_OUT*%
X166624000Y-107696000D02*
X166116000Y-107188000D01*
X172466000Y-107696000D02*
X166624000Y-107696000D01*
X166116000Y-106172000D02*
X166116000Y-107188000D01*
X173736000Y-106426000D02*
X172466000Y-107696000D01*
X166116000Y-107188000D02*
X166116000Y-107950000D01*
X173736000Y-98806000D02*
X173736000Y-106426000D01*
%TO.N,Neutral*%
X184426000Y-91814000D02*
X185576000Y-92964000D01*
%TO.N,Phase_SCR*%
X154932000Y-117340000D02*
X154940000Y-117348000D01*
X150876000Y-110682500D02*
X154940000Y-110682500D01*
X154940000Y-117348000D02*
X154940000Y-110682500D01*
X157180000Y-119588000D02*
X154940000Y-117348000D01*
X157180000Y-124120000D02*
X157180000Y-119588000D01*
%TO.N,Phase_OUT*%
X164846000Y-105410000D02*
X165354000Y-105410000D01*
X147828000Y-105410000D02*
X164846000Y-105410000D01*
X143805000Y-101387000D02*
X147828000Y-105410000D01*
X165354000Y-105410000D02*
X166116000Y-106172000D01*
X143805000Y-101060000D02*
X143805000Y-101387000D01*
%TO.N,Neutral*%
X163576000Y-108966000D02*
X163576000Y-107442000D01*
X181610000Y-109220000D02*
X180848000Y-109982000D01*
X165608000Y-109982000D02*
X164592000Y-109982000D01*
X164592000Y-109982000D02*
X163576000Y-108966000D01*
X185674000Y-105156000D02*
X181610000Y-109220000D01*
X180848000Y-109982000D02*
X165608000Y-109982000D01*
X185576000Y-92964000D02*
X185674000Y-92964000D01*
X185674000Y-92964000D02*
X185674000Y-105156000D01*
%TO.N,Phase_IN*%
X180848000Y-99314000D02*
X182626000Y-99314000D01*
X179070000Y-97536000D02*
X180848000Y-99314000D01*
X179070000Y-94234000D02*
X179070000Y-97536000D01*
X173610000Y-92160000D02*
X176996000Y-92160000D01*
X176996000Y-92160000D02*
X179070000Y-94234000D01*
%TD*%
%TA.AperFunction,Conductor*%
%TO.N,GND*%
G36*
X190393009Y-53409685D02*
G01*
X190438764Y-53462489D01*
X190449970Y-53514030D01*
X190430029Y-136196053D01*
X190410328Y-136263088D01*
X190357513Y-136308830D01*
X190306052Y-136320023D01*
X136674023Y-136329976D01*
X136606980Y-136310304D01*
X136561215Y-136257508D01*
X136550000Y-136205976D01*
X136550000Y-132922188D01*
X136836739Y-132922188D01*
X136856493Y-133236187D01*
X136856494Y-133236194D01*
X136915453Y-133545266D01*
X137012680Y-133844499D01*
X137012682Y-133844504D01*
X137146644Y-134129186D01*
X137146647Y-134129192D01*
X137315234Y-134394844D01*
X137315237Y-134394848D01*
X137515789Y-134637273D01*
X137515791Y-134637275D01*
X137745151Y-134852659D01*
X137745161Y-134852667D01*
X137999687Y-135037591D01*
X137999692Y-135037593D01*
X137999699Y-135037599D01*
X138275417Y-135189177D01*
X138275422Y-135189179D01*
X138275424Y-135189180D01*
X138275425Y-135189181D01*
X138567954Y-135305001D01*
X138567957Y-135305002D01*
X138872706Y-135383248D01*
X138872710Y-135383249D01*
X138938193Y-135391521D01*
X139184853Y-135422682D01*
X139184862Y-135422682D01*
X139184865Y-135422683D01*
X139184867Y-135422683D01*
X139499499Y-135422683D01*
X139499501Y-135422683D01*
X139499504Y-135422682D01*
X139499512Y-135422682D01*
X139685776Y-135399151D01*
X139811656Y-135383249D01*
X140116408Y-135305002D01*
X140116411Y-135305001D01*
X140408940Y-135189181D01*
X140408941Y-135189180D01*
X140408939Y-135189180D01*
X140408949Y-135189177D01*
X140684667Y-135037599D01*
X140939213Y-134852661D01*
X141168573Y-134637277D01*
X141369130Y-134394846D01*
X141537720Y-134129190D01*
X141671686Y-133844498D01*
X141768914Y-133545262D01*
X141827871Y-133236198D01*
X141829231Y-133214583D01*
X141847627Y-132922188D01*
X141847627Y-132922177D01*
X141827872Y-132608178D01*
X141827871Y-132608171D01*
X141827871Y-132608168D01*
X141822498Y-132580004D01*
X185544953Y-132580004D01*
X185565113Y-132849026D01*
X185565113Y-132849028D01*
X185625142Y-133112033D01*
X185625148Y-133112052D01*
X185723709Y-133363181D01*
X185723708Y-133363181D01*
X185858602Y-133596822D01*
X185912294Y-133664151D01*
X186747452Y-132828992D01*
X186757188Y-132858956D01*
X186845186Y-132997619D01*
X186964903Y-133110040D01*
X187099510Y-133184041D01*
X186264848Y-134018702D01*
X186447483Y-134143220D01*
X186447485Y-134143221D01*
X186690539Y-134260269D01*
X186690537Y-134260269D01*
X186948337Y-134339790D01*
X186948343Y-134339792D01*
X187215101Y-134379999D01*
X187215110Y-134380000D01*
X187484890Y-134380000D01*
X187484898Y-134379999D01*
X187751656Y-134339792D01*
X187751662Y-134339790D01*
X188009461Y-134260269D01*
X188252521Y-134143218D01*
X188435150Y-134018702D01*
X187597534Y-133181086D01*
X187665629Y-133154126D01*
X187798492Y-133057595D01*
X187903175Y-132931055D01*
X187951631Y-132828079D01*
X188787703Y-133664151D01*
X188787704Y-133664150D01*
X188841393Y-133596828D01*
X188841400Y-133596817D01*
X188976290Y-133363181D01*
X189074851Y-133112052D01*
X189074857Y-133112033D01*
X189134886Y-132849028D01*
X189134886Y-132849026D01*
X189155047Y-132580004D01*
X189155047Y-132579995D01*
X189134886Y-132310973D01*
X189134886Y-132310971D01*
X189074857Y-132047966D01*
X189074851Y-132047947D01*
X188976290Y-131796818D01*
X188976291Y-131796818D01*
X188841397Y-131563177D01*
X188787704Y-131495847D01*
X187952546Y-132331004D01*
X187942812Y-132301044D01*
X187854814Y-132162381D01*
X187735097Y-132049960D01*
X187600489Y-131975958D01*
X188435150Y-131141296D01*
X188252517Y-131016779D01*
X188252516Y-131016778D01*
X188009460Y-130899730D01*
X188009462Y-130899730D01*
X187751662Y-130820209D01*
X187751656Y-130820207D01*
X187484898Y-130780000D01*
X187215101Y-130780000D01*
X186948343Y-130820207D01*
X186948337Y-130820209D01*
X186690538Y-130899730D01*
X186447485Y-131016778D01*
X186447476Y-131016783D01*
X186264848Y-131141296D01*
X187102465Y-131978913D01*
X187034371Y-132005874D01*
X186901508Y-132102405D01*
X186796825Y-132228945D01*
X186748368Y-132331921D01*
X185912295Y-131495848D01*
X185858600Y-131563180D01*
X185723709Y-131796818D01*
X185625148Y-132047947D01*
X185625142Y-132047966D01*
X185565113Y-132310971D01*
X185565113Y-132310973D01*
X185544953Y-132579995D01*
X185544953Y-132580004D01*
X141822498Y-132580004D01*
X141768914Y-132299104D01*
X141671686Y-131999868D01*
X141658027Y-131970842D01*
X141537721Y-131715179D01*
X141537720Y-131715176D01*
X141369130Y-131449520D01*
X141369128Y-131449517D01*
X141168576Y-131207092D01*
X141168574Y-131207090D01*
X140939214Y-130991706D01*
X140939204Y-130991698D01*
X140684678Y-130806774D01*
X140684671Y-130806769D01*
X140684667Y-130806767D01*
X140408949Y-130655189D01*
X140408946Y-130655187D01*
X140408941Y-130655185D01*
X140408940Y-130655184D01*
X140116411Y-130539364D01*
X140116408Y-130539363D01*
X139811659Y-130461117D01*
X139811646Y-130461115D01*
X139499512Y-130421683D01*
X139499501Y-130421683D01*
X139184865Y-130421683D01*
X139184853Y-130421683D01*
X138872719Y-130461115D01*
X138872706Y-130461117D01*
X138567957Y-130539363D01*
X138567954Y-130539364D01*
X138275425Y-130655184D01*
X138275424Y-130655185D01*
X137999699Y-130806767D01*
X137999687Y-130806774D01*
X137745161Y-130991698D01*
X137745151Y-130991706D01*
X137515791Y-131207090D01*
X137515789Y-131207092D01*
X137315237Y-131449517D01*
X137315234Y-131449521D01*
X137146647Y-131715173D01*
X137146644Y-131715179D01*
X137012682Y-131999861D01*
X137012680Y-131999866D01*
X136915453Y-132299099D01*
X136856494Y-132608171D01*
X136856493Y-132608178D01*
X136836739Y-132922177D01*
X136836739Y-132922188D01*
X136550000Y-132922188D01*
X136550000Y-89410135D01*
X136569685Y-89343096D01*
X136622489Y-89297341D01*
X136691647Y-89287397D01*
X136755203Y-89316422D01*
X136791931Y-89371817D01*
X136840818Y-89522278D01*
X136840821Y-89522284D01*
X136935467Y-89686216D01*
X136940760Y-89692094D01*
X137062129Y-89826888D01*
X137215265Y-89938148D01*
X137215270Y-89938151D01*
X137388192Y-90015142D01*
X137388197Y-90015144D01*
X137573354Y-90054500D01*
X137573355Y-90054500D01*
X137762644Y-90054500D01*
X137762646Y-90054500D01*
X137947803Y-90015144D01*
X138120730Y-89938151D01*
X138273871Y-89826888D01*
X138400533Y-89686216D01*
X138495179Y-89522284D01*
X138553674Y-89342256D01*
X138560679Y-89275597D01*
X138587263Y-89210985D01*
X138644561Y-89171000D01*
X138714380Y-89168340D01*
X138774553Y-89203849D01*
X138805977Y-89266254D01*
X138807318Y-89275583D01*
X138814326Y-89342256D01*
X138814327Y-89342259D01*
X138872818Y-89522277D01*
X138872821Y-89522284D01*
X138967467Y-89686216D01*
X138972760Y-89692094D01*
X139094129Y-89826888D01*
X139247265Y-89938148D01*
X139247270Y-89938151D01*
X139420192Y-90015142D01*
X139420197Y-90015144D01*
X139605354Y-90054500D01*
X139605355Y-90054500D01*
X139794644Y-90054500D01*
X139794646Y-90054500D01*
X139979803Y-90015144D01*
X140152730Y-89938151D01*
X140305871Y-89826888D01*
X140432533Y-89686216D01*
X140527179Y-89522284D01*
X140585674Y-89342256D01*
X140605460Y-89154000D01*
X140585674Y-88965744D01*
X140527179Y-88785716D01*
X140432533Y-88621784D01*
X140414610Y-88601878D01*
X140384381Y-88538886D01*
X140393007Y-88469551D01*
X140437749Y-88415886D01*
X140472158Y-88399834D01*
X140599393Y-88362869D01*
X140734837Y-88282768D01*
X140797958Y-88265500D01*
X140929679Y-88265500D01*
X140992799Y-88282767D01*
X141060607Y-88322869D01*
X141101268Y-88334682D01*
X141214791Y-88367664D01*
X141221032Y-88368804D01*
X141220773Y-88370217D01*
X141279176Y-88392466D01*
X141320656Y-88448690D01*
X141325154Y-88518415D01*
X141296326Y-88574183D01*
X141253466Y-88621785D01*
X141158821Y-88785715D01*
X141158818Y-88785722D01*
X141101576Y-88961897D01*
X141100326Y-88965744D01*
X141080540Y-89154000D01*
X141100326Y-89342256D01*
X141100327Y-89342259D01*
X141158818Y-89522277D01*
X141158821Y-89522284D01*
X141253467Y-89686216D01*
X141258760Y-89692094D01*
X141380129Y-89826888D01*
X141533265Y-89938148D01*
X141533270Y-89938151D01*
X141706192Y-90015142D01*
X141706197Y-90015144D01*
X141891354Y-90054500D01*
X141891355Y-90054500D01*
X142080644Y-90054500D01*
X142080646Y-90054500D01*
X142265803Y-90015144D01*
X142438730Y-89938151D01*
X142591871Y-89826888D01*
X142718533Y-89686216D01*
X142813179Y-89522284D01*
X142871674Y-89342256D01*
X142878679Y-89275597D01*
X142905263Y-89210985D01*
X142962561Y-89171000D01*
X143032380Y-89168340D01*
X143092553Y-89203849D01*
X143123977Y-89266254D01*
X143125318Y-89275583D01*
X143132326Y-89342256D01*
X143132327Y-89342259D01*
X143190818Y-89522277D01*
X143190821Y-89522284D01*
X143285467Y-89686216D01*
X143290760Y-89692094D01*
X143412129Y-89826888D01*
X143565265Y-89938148D01*
X143565270Y-89938151D01*
X143738192Y-90015142D01*
X143738197Y-90015144D01*
X143923354Y-90054500D01*
X143923355Y-90054500D01*
X144112644Y-90054500D01*
X144112646Y-90054500D01*
X144297803Y-90015144D01*
X144470730Y-89938151D01*
X144623871Y-89826888D01*
X144750533Y-89686216D01*
X144845179Y-89522284D01*
X144903674Y-89342256D01*
X144923460Y-89154000D01*
X144903674Y-88965744D01*
X144845179Y-88785716D01*
X144750533Y-88621784D01*
X144623871Y-88481112D01*
X144580797Y-88449817D01*
X144538133Y-88394488D01*
X144532154Y-88324874D01*
X144564760Y-88263080D01*
X144625599Y-88228722D01*
X144653684Y-88225500D01*
X145668316Y-88225500D01*
X145735355Y-88245185D01*
X145781110Y-88297989D01*
X145791054Y-88367147D01*
X145762029Y-88430703D01*
X145741202Y-88449818D01*
X145698127Y-88481113D01*
X145571466Y-88621785D01*
X145476821Y-88785715D01*
X145476818Y-88785722D01*
X145419576Y-88961897D01*
X145418326Y-88965744D01*
X145398540Y-89154000D01*
X145418326Y-89342256D01*
X145418327Y-89342259D01*
X145476818Y-89522277D01*
X145476821Y-89522284D01*
X145571467Y-89686216D01*
X145576760Y-89692094D01*
X145698129Y-89826888D01*
X145851265Y-89938148D01*
X145851270Y-89938151D01*
X146024192Y-90015142D01*
X146024197Y-90015144D01*
X146209354Y-90054500D01*
X146209355Y-90054500D01*
X146398644Y-90054500D01*
X146398646Y-90054500D01*
X146583803Y-90015144D01*
X146756730Y-89938151D01*
X146909871Y-89826888D01*
X147036533Y-89686216D01*
X147131179Y-89522284D01*
X147189674Y-89342256D01*
X147209460Y-89154000D01*
X147189674Y-88965744D01*
X147131179Y-88785716D01*
X147036533Y-88621784D01*
X146909871Y-88481112D01*
X146866797Y-88449817D01*
X146824133Y-88394488D01*
X146818154Y-88324874D01*
X146850760Y-88263080D01*
X146911599Y-88228722D01*
X146939684Y-88225500D01*
X148462316Y-88225500D01*
X148529355Y-88245185D01*
X148575110Y-88297989D01*
X148585054Y-88367147D01*
X148556029Y-88430703D01*
X148535202Y-88449818D01*
X148492127Y-88481113D01*
X148365466Y-88621785D01*
X148270821Y-88785715D01*
X148270818Y-88785722D01*
X148213576Y-88961897D01*
X148212326Y-88965744D01*
X148192540Y-89154000D01*
X148212326Y-89342256D01*
X148212327Y-89342259D01*
X148270818Y-89522277D01*
X148270821Y-89522284D01*
X148365467Y-89686216D01*
X148370760Y-89692094D01*
X148492129Y-89826888D01*
X148645265Y-89938148D01*
X148645270Y-89938151D01*
X148818192Y-90015142D01*
X148818197Y-90015144D01*
X149003354Y-90054500D01*
X149003355Y-90054500D01*
X149192644Y-90054500D01*
X149192646Y-90054500D01*
X149377803Y-90015144D01*
X149550730Y-89938151D01*
X149703871Y-89826888D01*
X149830533Y-89686216D01*
X149925179Y-89522284D01*
X149983674Y-89342256D01*
X150003460Y-89154000D01*
X149983674Y-88965744D01*
X149925179Y-88785716D01*
X149830533Y-88621784D01*
X149703871Y-88481112D01*
X149660797Y-88449817D01*
X149618133Y-88394488D01*
X149612154Y-88324874D01*
X149644760Y-88263080D01*
X149705599Y-88228722D01*
X149733684Y-88225500D01*
X152794198Y-88225500D01*
X152861237Y-88245185D01*
X152906992Y-88297989D01*
X152916936Y-88367147D01*
X152887911Y-88430703D01*
X152847216Y-88461593D01*
X152805949Y-88481112D01*
X152601899Y-88577620D01*
X152264763Y-88779692D01*
X151949043Y-89013846D01*
X151657807Y-89277807D01*
X151393846Y-89569043D01*
X151159692Y-89884763D01*
X150957620Y-90221899D01*
X150789562Y-90577227D01*
X150789561Y-90577229D01*
X150657143Y-90947315D01*
X150561637Y-91328593D01*
X150561636Y-91328600D01*
X150503962Y-91717409D01*
X150484675Y-92110000D01*
X150503962Y-92502591D01*
X150503962Y-92502597D01*
X150503963Y-92502599D01*
X150561637Y-92891406D01*
X150657143Y-93272684D01*
X150789561Y-93642770D01*
X150789562Y-93642772D01*
X150957620Y-93998100D01*
X151159692Y-94335236D01*
X151159694Y-94335239D01*
X151356808Y-94601017D01*
X151393846Y-94650956D01*
X151657807Y-94942192D01*
X151949043Y-95206153D01*
X151949049Y-95206158D01*
X152264761Y-95440306D01*
X152264763Y-95440307D01*
X152601899Y-95642379D01*
X152601902Y-95642380D01*
X152601903Y-95642381D01*
X152957228Y-95810438D01*
X153099274Y-95861262D01*
X153155763Y-95902381D01*
X153181055Y-95967513D01*
X153181500Y-95978014D01*
X153181500Y-95999896D01*
X153161815Y-96066935D01*
X153113151Y-96110706D01*
X152929213Y-96203082D01*
X152929200Y-96203090D01*
X152637194Y-96395146D01*
X152637186Y-96395152D01*
X152369442Y-96619817D01*
X152369440Y-96619819D01*
X152129589Y-96874044D01*
X152129584Y-96874050D01*
X151920870Y-97154402D01*
X151746113Y-97457091D01*
X151746107Y-97457104D01*
X151607674Y-97778027D01*
X151507430Y-98112865D01*
X151507428Y-98112872D01*
X151446739Y-98457061D01*
X151446738Y-98457072D01*
X151426415Y-98805996D01*
X151426415Y-98806003D01*
X151446738Y-99154927D01*
X151446739Y-99154938D01*
X151507428Y-99499127D01*
X151507430Y-99499134D01*
X151607674Y-99833972D01*
X151746107Y-100154895D01*
X151746113Y-100154908D01*
X151920870Y-100457597D01*
X152129584Y-100737949D01*
X152129589Y-100737955D01*
X152253463Y-100869253D01*
X152369442Y-100992183D01*
X152490808Y-101094021D01*
X152637186Y-101216847D01*
X152637194Y-101216853D01*
X152929203Y-101408911D01*
X153208083Y-101548970D01*
X153241549Y-101565777D01*
X153569989Y-101685319D01*
X153910086Y-101765923D01*
X154257241Y-101806500D01*
X154257248Y-101806500D01*
X154606752Y-101806500D01*
X154606759Y-101806500D01*
X154953914Y-101765923D01*
X155294011Y-101685319D01*
X155622451Y-101565777D01*
X155934793Y-101408913D01*
X156226811Y-101216849D01*
X156301257Y-101154381D01*
X156396794Y-101074217D01*
X156460803Y-101046204D01*
X156529795Y-101057243D01*
X156581866Y-101103830D01*
X156600500Y-101169206D01*
X156600500Y-103067547D01*
X156580815Y-103134586D01*
X156564181Y-103155228D01*
X156495228Y-103224181D01*
X156433905Y-103257666D01*
X156407547Y-103260500D01*
X153357748Y-103260500D01*
X153290709Y-103240815D01*
X153265600Y-103219474D01*
X153259873Y-103213114D01*
X153259869Y-103213110D01*
X153106734Y-103101851D01*
X153106729Y-103101848D01*
X152933807Y-103024857D01*
X152933802Y-103024855D01*
X152778657Y-102991879D01*
X152748646Y-102985500D01*
X152559354Y-102985500D01*
X152529343Y-102991879D01*
X152374197Y-103024855D01*
X152374192Y-103024857D01*
X152201270Y-103101848D01*
X152201265Y-103101851D01*
X152048129Y-103213111D01*
X151921466Y-103353785D01*
X151826821Y-103517715D01*
X151826818Y-103517722D01*
X151768327Y-103697740D01*
X151768326Y-103697744D01*
X151748540Y-103886000D01*
X151762890Y-104022540D01*
X151750321Y-104091268D01*
X151702589Y-104142292D01*
X151639570Y-104159500D01*
X150978363Y-104159500D01*
X150911324Y-104139815D01*
X150865569Y-104087011D01*
X150854522Y-104029222D01*
X150864369Y-103835064D01*
X150833556Y-103633929D01*
X150762886Y-103443113D01*
X150655252Y-103270429D01*
X150515059Y-103122947D01*
X150416587Y-103054409D01*
X150348050Y-103006705D01*
X150161056Y-102926459D01*
X149961741Y-102885500D01*
X149563783Y-102885500D01*
X149496744Y-102865815D01*
X149476102Y-102849181D01*
X148360472Y-101733552D01*
X148360470Y-101733549D01*
X148102819Y-101475898D01*
X148069334Y-101414575D01*
X148066500Y-101388217D01*
X148066500Y-99755178D01*
X148084962Y-99690081D01*
X148121809Y-99630342D01*
X148121808Y-99630342D01*
X148121814Y-99630334D01*
X148176999Y-99463797D01*
X148187500Y-99361009D01*
X148187499Y-98635992D01*
X148186102Y-98622321D01*
X148176999Y-98533203D01*
X148176998Y-98533200D01*
X148151772Y-98457073D01*
X148121814Y-98366666D01*
X148029712Y-98217344D01*
X147905656Y-98093288D01*
X147756334Y-98001186D01*
X147589797Y-97946001D01*
X147589795Y-97946000D01*
X147487010Y-97935500D01*
X146136998Y-97935500D01*
X146136981Y-97935501D01*
X146034203Y-97946000D01*
X146034200Y-97946001D01*
X145867668Y-98001185D01*
X145867663Y-98001187D01*
X145718342Y-98093289D01*
X145594288Y-98217343D01*
X145594285Y-98217347D01*
X145516516Y-98343430D01*
X145464568Y-98390155D01*
X145395606Y-98401376D01*
X145331524Y-98373533D01*
X145292668Y-98315464D01*
X145288671Y-98298750D01*
X145265866Y-98162087D01*
X145187679Y-97934336D01*
X145073072Y-97722561D01*
X144925171Y-97532537D01*
X144830872Y-97445729D01*
X144794882Y-97385843D01*
X144796983Y-97316004D01*
X144836507Y-97258388D01*
X144900906Y-97231287D01*
X144914856Y-97230500D01*
X146565259Y-97230500D01*
X146606213Y-97237458D01*
X146618083Y-97241612D01*
X146759214Y-97290997D01*
X146759217Y-97290998D01*
X146826305Y-97301623D01*
X146981540Y-97326210D01*
X147206578Y-97321160D01*
X147427096Y-97276008D01*
X147636009Y-97192207D01*
X147826602Y-97072450D01*
X147992748Y-96920586D01*
X148129108Y-96741495D01*
X148231299Y-96540935D01*
X148296036Y-96325351D01*
X148321238Y-96101673D01*
X148317499Y-96046223D01*
X148309748Y-95931252D01*
X148306096Y-95877088D01*
X148301900Y-95860437D01*
X148251097Y-95658821D01*
X148251096Y-95658818D01*
X148243629Y-95642379D01*
X148158007Y-95453874D01*
X148029820Y-95268846D01*
X147911316Y-95150342D01*
X147902049Y-95139973D01*
X147880006Y-95112332D01*
X147830103Y-95068732D01*
X147824007Y-95063033D01*
X147817032Y-95056058D01*
X147817021Y-95056048D01*
X147785755Y-95029945D01*
X147783639Y-95028138D01*
X147710503Y-94964240D01*
X147710497Y-94964236D01*
X147710496Y-94964235D01*
X147706741Y-94961991D01*
X147690873Y-94950732D01*
X147687519Y-94947932D01*
X147687518Y-94947931D01*
X147687513Y-94947927D01*
X147603048Y-94900001D01*
X147600644Y-94898601D01*
X147517263Y-94848784D01*
X147513169Y-94847248D01*
X147495544Y-94839002D01*
X147491745Y-94836846D01*
X147400069Y-94804767D01*
X147397453Y-94803819D01*
X147306529Y-94769694D01*
X147306519Y-94769691D01*
X147302223Y-94768912D01*
X147283418Y-94763949D01*
X147279284Y-94762502D01*
X147279277Y-94762501D01*
X147183348Y-94747307D01*
X147180605Y-94746841D01*
X147085050Y-94729500D01*
X147085047Y-94729500D01*
X147080672Y-94729500D01*
X147061269Y-94727972D01*
X147056960Y-94727289D01*
X146959859Y-94729469D01*
X146957077Y-94729500D01*
X144631943Y-94729500D01*
X144564904Y-94709815D01*
X144564121Y-94709308D01*
X144546423Y-94697745D01*
X144325905Y-94601017D01*
X144092472Y-94541904D01*
X143912610Y-94527000D01*
X143912600Y-94527000D01*
X143697400Y-94527000D01*
X143697389Y-94527000D01*
X143517527Y-94541904D01*
X143284094Y-94601017D01*
X143063581Y-94697743D01*
X142861990Y-94829449D01*
X142723447Y-94956987D01*
X142684829Y-94992537D01*
X142657120Y-95028138D01*
X142536929Y-95182558D01*
X142422321Y-95394334D01*
X142422318Y-95394343D01*
X142344134Y-95622083D01*
X142304500Y-95859602D01*
X142304500Y-96100397D01*
X142344134Y-96337916D01*
X142422318Y-96565656D01*
X142422321Y-96565665D01*
X142536929Y-96777441D01*
X142580451Y-96833358D01*
X142684829Y-96967463D01*
X142779127Y-97054270D01*
X142815118Y-97114157D01*
X142813017Y-97183996D01*
X142773493Y-97241612D01*
X142709094Y-97268713D01*
X142695144Y-97269500D01*
X141382186Y-97269500D01*
X141368302Y-97268720D01*
X141333177Y-97264762D01*
X141333169Y-97264761D01*
X141267067Y-97269219D01*
X141258725Y-97269500D01*
X141248838Y-97269500D01*
X141208251Y-97273152D01*
X141205482Y-97273370D01*
X141108590Y-97279903D01*
X141104349Y-97280972D01*
X141085176Y-97284230D01*
X141080808Y-97284623D01*
X140987185Y-97310462D01*
X140984495Y-97311172D01*
X140890319Y-97334902D01*
X140886322Y-97336718D01*
X140868059Y-97343339D01*
X140863831Y-97344506D01*
X140776316Y-97386649D01*
X140773800Y-97387826D01*
X140685376Y-97427991D01*
X140685371Y-97427994D01*
X140681775Y-97430486D01*
X140664971Y-97440271D01*
X140661031Y-97442168D01*
X140661029Y-97442169D01*
X140582460Y-97499251D01*
X140580195Y-97500858D01*
X140500345Y-97556180D01*
X140497239Y-97559286D01*
X140482465Y-97571903D01*
X140478928Y-97574473D01*
X140478921Y-97574478D01*
X140411804Y-97644677D01*
X140409859Y-97646665D01*
X138616344Y-99440180D01*
X138605980Y-99449443D01*
X138578337Y-99471489D01*
X138578334Y-99471492D01*
X138534736Y-99521392D01*
X138529048Y-99527476D01*
X138522064Y-99534460D01*
X138522051Y-99534475D01*
X138495928Y-99565764D01*
X138494125Y-99567875D01*
X138430234Y-99641004D01*
X138430230Y-99641010D01*
X138427981Y-99644774D01*
X138416746Y-99660608D01*
X138413932Y-99663979D01*
X138365978Y-99748490D01*
X138364604Y-99750849D01*
X138347394Y-99779656D01*
X138314781Y-99834242D01*
X138313247Y-99838332D01*
X138305008Y-99855945D01*
X138302850Y-99859747D01*
X138302847Y-99859754D01*
X138270762Y-99951445D01*
X138269815Y-99954055D01*
X138248724Y-100010256D01*
X138235692Y-100044979D01*
X138235689Y-100044988D01*
X138234909Y-100049288D01*
X138229952Y-100068069D01*
X138228504Y-100072206D01*
X138228501Y-100072218D01*
X138213313Y-100168118D01*
X138212847Y-100170861D01*
X138195500Y-100266449D01*
X138195500Y-100270827D01*
X138193973Y-100290229D01*
X138193289Y-100294540D01*
X138195469Y-100391639D01*
X138195500Y-100394421D01*
X138195500Y-122768814D01*
X138194720Y-122782698D01*
X138190762Y-122817822D01*
X138190761Y-122817830D01*
X138195219Y-122883931D01*
X138195500Y-122892273D01*
X138195500Y-122902156D01*
X138199153Y-122942749D01*
X138199371Y-122945521D01*
X138205903Y-123042407D01*
X138205903Y-123042412D01*
X138206972Y-123046652D01*
X138210230Y-123065824D01*
X138210623Y-123070190D01*
X138236465Y-123163824D01*
X138237158Y-123166447D01*
X138250962Y-123221228D01*
X138260903Y-123260681D01*
X138262715Y-123264670D01*
X138269340Y-123282944D01*
X138270504Y-123287162D01*
X138270507Y-123287170D01*
X138312657Y-123374698D01*
X138313835Y-123377216D01*
X138353993Y-123465626D01*
X138353994Y-123465629D01*
X138356483Y-123469221D01*
X138366269Y-123486026D01*
X138368166Y-123489965D01*
X138368171Y-123489973D01*
X138425311Y-123568620D01*
X138426835Y-123570768D01*
X138464433Y-123625038D01*
X138482181Y-123650656D01*
X138485273Y-123653748D01*
X138497907Y-123668539D01*
X138500478Y-123672078D01*
X138500482Y-123672082D01*
X138570699Y-123739217D01*
X138572688Y-123741162D01*
X140841182Y-126009656D01*
X140850448Y-126020024D01*
X140872492Y-126047666D01*
X140922395Y-126091266D01*
X140928491Y-126096965D01*
X140935466Y-126103940D01*
X140935477Y-126103950D01*
X140966739Y-126130050D01*
X140968854Y-126131856D01*
X141042004Y-126195765D01*
X141045750Y-126198003D01*
X141061624Y-126209265D01*
X141064981Y-126212068D01*
X141149516Y-126260034D01*
X141151778Y-126261352D01*
X141235236Y-126311215D01*
X141239327Y-126312750D01*
X141256955Y-126320996D01*
X141260755Y-126323153D01*
X141352496Y-126355254D01*
X141354998Y-126356161D01*
X141445976Y-126390307D01*
X141448565Y-126390776D01*
X141450274Y-126391087D01*
X141469089Y-126396053D01*
X141473217Y-126397498D01*
X141569237Y-126412705D01*
X141571832Y-126413146D01*
X141643432Y-126426140D01*
X141667452Y-126430500D01*
X141667453Y-126430500D01*
X141671828Y-126430500D01*
X141691231Y-126432028D01*
X141692938Y-126432297D01*
X141695540Y-126432710D01*
X141792621Y-126430531D01*
X141795404Y-126430500D01*
X143050249Y-126430500D01*
X143117288Y-126450185D01*
X143149515Y-126480188D01*
X143192451Y-126537542D01*
X143192454Y-126537546D01*
X143192457Y-126537548D01*
X143307664Y-126623793D01*
X143307671Y-126623797D01*
X143442517Y-126674091D01*
X143442516Y-126674091D01*
X143449444Y-126674835D01*
X143502127Y-126680500D01*
X146197872Y-126680499D01*
X146257483Y-126674091D01*
X146392331Y-126623796D01*
X146507546Y-126537546D01*
X146534227Y-126501903D01*
X146550485Y-126480188D01*
X146606419Y-126438318D01*
X146649751Y-126430500D01*
X153769686Y-126430500D01*
X153836725Y-126450185D01*
X153878518Y-126495073D01*
X153992770Y-126704309D01*
X153992775Y-126704317D01*
X154164254Y-126933387D01*
X154164270Y-126933405D01*
X154366594Y-127135729D01*
X154366612Y-127135745D01*
X154595682Y-127307224D01*
X154595690Y-127307229D01*
X154846833Y-127444364D01*
X154846832Y-127444364D01*
X154846836Y-127444365D01*
X154846839Y-127444367D01*
X155114954Y-127544369D01*
X155114960Y-127544370D01*
X155114962Y-127544371D01*
X155394566Y-127605195D01*
X155394568Y-127605195D01*
X155394572Y-127605196D01*
X155608552Y-127620500D01*
X158751448Y-127620500D01*
X158965428Y-127605196D01*
X159245046Y-127544369D01*
X159513161Y-127444367D01*
X159764315Y-127307226D01*
X159993395Y-127135739D01*
X160195739Y-126933395D01*
X160367226Y-126704315D01*
X160504367Y-126453161D01*
X160604369Y-126185046D01*
X160615940Y-126131856D01*
X160665195Y-125905433D01*
X160665195Y-125905432D01*
X160665196Y-125905428D01*
X160680500Y-125691448D01*
X160680500Y-122548552D01*
X160665196Y-122334572D01*
X160604369Y-122054954D01*
X160504367Y-121786839D01*
X160417217Y-121627237D01*
X160367229Y-121535690D01*
X160367224Y-121535682D01*
X160195745Y-121306612D01*
X160195729Y-121306594D01*
X159993405Y-121104270D01*
X159993387Y-121104254D01*
X159764317Y-120932775D01*
X159764309Y-120932770D01*
X159513166Y-120795635D01*
X159513167Y-120795635D01*
X159400686Y-120753682D01*
X159245046Y-120695631D01*
X159245043Y-120695630D01*
X159245037Y-120695628D01*
X158965433Y-120634804D01*
X158751450Y-120619500D01*
X158751448Y-120619500D01*
X158554500Y-120619500D01*
X158487461Y-120599815D01*
X158441706Y-120547011D01*
X158430500Y-120495500D01*
X158430500Y-119665175D01*
X158431280Y-119651290D01*
X158434522Y-119622516D01*
X158435237Y-119616172D01*
X158433415Y-119589152D01*
X158430781Y-119550075D01*
X158430500Y-119541734D01*
X158430500Y-119531850D01*
X158430500Y-119531845D01*
X158426843Y-119491215D01*
X158426626Y-119488452D01*
X158423277Y-119438773D01*
X158420096Y-119391587D01*
X158419027Y-119387347D01*
X158415768Y-119368158D01*
X158415726Y-119367699D01*
X158415377Y-119363812D01*
X158389532Y-119270168D01*
X158388840Y-119267548D01*
X158365096Y-119173316D01*
X158363288Y-119169335D01*
X158356654Y-119151039D01*
X158355493Y-119146830D01*
X158313340Y-119059299D01*
X158312189Y-119056839D01*
X158272007Y-118968374D01*
X158269517Y-118964780D01*
X158259725Y-118947964D01*
X158257829Y-118944027D01*
X158200739Y-118865450D01*
X158199128Y-118863179D01*
X158143820Y-118783345D01*
X158140725Y-118780250D01*
X158128087Y-118765453D01*
X158125521Y-118761921D01*
X158125518Y-118761918D01*
X158055321Y-118694802D01*
X158053332Y-118692857D01*
X156510475Y-117150000D01*
X164120954Y-117150000D01*
X164122889Y-117174597D01*
X164168529Y-117331692D01*
X164168531Y-117331697D01*
X164251806Y-117472508D01*
X164251812Y-117472516D01*
X164367483Y-117588187D01*
X164367491Y-117588193D01*
X164508302Y-117671468D01*
X164665000Y-117716992D01*
X164665000Y-117150000D01*
X164120954Y-117150000D01*
X156510475Y-117150000D01*
X156226819Y-116866344D01*
X156193334Y-116805021D01*
X156190500Y-116778663D01*
X156190500Y-112365000D01*
X162165000Y-112365000D01*
X162715000Y-112365000D01*
X162715000Y-111142703D01*
X162712503Y-111142900D01*
X162554806Y-111188716D01*
X162554803Y-111188717D01*
X162413447Y-111272314D01*
X162413438Y-111272321D01*
X162297321Y-111388438D01*
X162297314Y-111388447D01*
X162213717Y-111529803D01*
X162213716Y-111529806D01*
X162167900Y-111687504D01*
X162167899Y-111687510D01*
X162165000Y-111724350D01*
X162165000Y-112365000D01*
X156190500Y-112365000D01*
X156190500Y-111445663D01*
X156208962Y-111380566D01*
X156249809Y-111314342D01*
X156249808Y-111314342D01*
X156249814Y-111314334D01*
X156304999Y-111147797D01*
X156315500Y-111045009D01*
X156315499Y-110319992D01*
X156304999Y-110217203D01*
X156249814Y-110050666D01*
X156157712Y-109901344D01*
X156033656Y-109777288D01*
X155926020Y-109710898D01*
X155884336Y-109685187D01*
X155884331Y-109685185D01*
X155882862Y-109684698D01*
X155717797Y-109630001D01*
X155717795Y-109630000D01*
X155627021Y-109620727D01*
X155571313Y-109600856D01*
X155534968Y-109576865D01*
X155516686Y-109569050D01*
X155501837Y-109561484D01*
X155484770Y-109551288D01*
X155484755Y-109551281D01*
X155408275Y-109522576D01*
X155403115Y-109520506D01*
X155327994Y-109488399D01*
X155327980Y-109488394D01*
X155308604Y-109483972D01*
X155292632Y-109479176D01*
X155274022Y-109472192D01*
X155274024Y-109472192D01*
X155193638Y-109457604D01*
X155188189Y-109456488D01*
X155108545Y-109438310D01*
X155108531Y-109438308D01*
X155088680Y-109437417D01*
X155072105Y-109435549D01*
X155063375Y-109433965D01*
X155052548Y-109432000D01*
X155052547Y-109432000D01*
X154970839Y-109432000D01*
X154965276Y-109431875D01*
X154949452Y-109431164D01*
X154883673Y-109428210D01*
X154883670Y-109428210D01*
X154863973Y-109430878D01*
X154847330Y-109432000D01*
X150819845Y-109432000D01*
X150781399Y-109435460D01*
X150651813Y-109447122D01*
X150651807Y-109447123D01*
X150434839Y-109507003D01*
X150434835Y-109507005D01*
X150434831Y-109507006D01*
X150434830Y-109507007D01*
X150264110Y-109589221D01*
X150227010Y-109607087D01*
X150226688Y-109606420D01*
X150181112Y-109621531D01*
X150098202Y-109630001D01*
X150098200Y-109630001D01*
X149931668Y-109685185D01*
X149931663Y-109685187D01*
X149782342Y-109777289D01*
X149658289Y-109901342D01*
X149566187Y-110050663D01*
X149566186Y-110050666D01*
X149511001Y-110217203D01*
X149511001Y-110217204D01*
X149511000Y-110217204D01*
X149500500Y-110319983D01*
X149500500Y-111045001D01*
X149500501Y-111045019D01*
X149511000Y-111147796D01*
X149511001Y-111147799D01*
X149540639Y-111237238D01*
X149566186Y-111314334D01*
X149658288Y-111463656D01*
X149782344Y-111587712D01*
X149931666Y-111679814D01*
X150098203Y-111734999D01*
X150193004Y-111744684D01*
X150244000Y-111761594D01*
X150331228Y-111813711D01*
X150331230Y-111813711D01*
X150331236Y-111813715D01*
X150541976Y-111892807D01*
X150763450Y-111933000D01*
X150763453Y-111933000D01*
X153565500Y-111933000D01*
X153632539Y-111952685D01*
X153678294Y-112005489D01*
X153689500Y-112057000D01*
X153689500Y-117191811D01*
X153688720Y-117205695D01*
X153676762Y-117311821D01*
X153676761Y-117311831D01*
X153691903Y-117536407D01*
X153691903Y-117536412D01*
X153746902Y-117754678D01*
X153746903Y-117754681D01*
X153839991Y-117959623D01*
X153858341Y-117986110D01*
X153861691Y-117991311D01*
X153862169Y-117991969D01*
X153862171Y-117991973D01*
X153866357Y-117997735D01*
X153867959Y-117999994D01*
X153968173Y-118144645D01*
X153968177Y-118144650D01*
X153968180Y-118144654D01*
X153968183Y-118144657D01*
X153979272Y-118155746D01*
X153991904Y-118170535D01*
X153994478Y-118174078D01*
X153994481Y-118174081D01*
X153994482Y-118174082D01*
X154064699Y-118241217D01*
X154066688Y-118243162D01*
X155893181Y-120069655D01*
X155926666Y-120130978D01*
X155929500Y-120157336D01*
X155929500Y-120495500D01*
X155909815Y-120562539D01*
X155857011Y-120608294D01*
X155805500Y-120619500D01*
X155608549Y-120619500D01*
X155394566Y-120634804D01*
X155114962Y-120695628D01*
X154846833Y-120795635D01*
X154595690Y-120932770D01*
X154595682Y-120932775D01*
X154366612Y-121104254D01*
X154366594Y-121104270D01*
X154164270Y-121306594D01*
X154164254Y-121306612D01*
X153992775Y-121535682D01*
X153992770Y-121535690D01*
X153855635Y-121786833D01*
X153755628Y-122054962D01*
X153694804Y-122334566D01*
X153679500Y-122548549D01*
X153679500Y-123805500D01*
X153659815Y-123872539D01*
X153607011Y-123918294D01*
X153555500Y-123929500D01*
X146649751Y-123929500D01*
X146582712Y-123909815D01*
X146550485Y-123879812D01*
X146507548Y-123822457D01*
X146507546Y-123822454D01*
X146507542Y-123822451D01*
X146392335Y-123736206D01*
X146392328Y-123736202D01*
X146257482Y-123685908D01*
X146257483Y-123685908D01*
X146197883Y-123679501D01*
X146197881Y-123679500D01*
X146197873Y-123679500D01*
X146197864Y-123679500D01*
X143502129Y-123679500D01*
X143502123Y-123679501D01*
X143442516Y-123685908D01*
X143307671Y-123736202D01*
X143307664Y-123736206D01*
X143192457Y-123822451D01*
X143192451Y-123822457D01*
X143149515Y-123879812D01*
X143093581Y-123921682D01*
X143050249Y-123929500D01*
X142349336Y-123929500D01*
X142282297Y-123909815D01*
X142261655Y-123893181D01*
X140732819Y-122364345D01*
X140699334Y-122303022D01*
X140696500Y-122276664D01*
X140696500Y-117380004D01*
X143044451Y-117380004D01*
X143064616Y-117649101D01*
X143124664Y-117912188D01*
X143124666Y-117912195D01*
X143215901Y-118144657D01*
X143223257Y-118163398D01*
X143358185Y-118397102D01*
X143465887Y-118532155D01*
X143526442Y-118608089D01*
X143692232Y-118761918D01*
X143724259Y-118791635D01*
X143947226Y-118943651D01*
X144190359Y-119060738D01*
X144448228Y-119140280D01*
X144448229Y-119140280D01*
X144448232Y-119140281D01*
X144715063Y-119180499D01*
X144715068Y-119180499D01*
X144715071Y-119180500D01*
X144715072Y-119180500D01*
X144984928Y-119180500D01*
X144984929Y-119180500D01*
X145020557Y-119175130D01*
X145251767Y-119140281D01*
X145251768Y-119140280D01*
X145251772Y-119140280D01*
X145509641Y-119060738D01*
X145743819Y-118947964D01*
X145752767Y-118943655D01*
X145752767Y-118943654D01*
X145752775Y-118943651D01*
X145975741Y-118791635D01*
X146173561Y-118608085D01*
X146341815Y-118397102D01*
X146476743Y-118163398D01*
X146575334Y-117912195D01*
X146635383Y-117649103D01*
X146647619Y-117485824D01*
X146655549Y-117380004D01*
X146655549Y-117379995D01*
X146635383Y-117110898D01*
X146632688Y-117099090D01*
X146575334Y-116847805D01*
X146476743Y-116596602D01*
X146341815Y-116362898D01*
X146173561Y-116151915D01*
X146173560Y-116151914D01*
X146173557Y-116151910D01*
X145975741Y-115968365D01*
X145927145Y-115935233D01*
X145752775Y-115816349D01*
X145752769Y-115816346D01*
X145752768Y-115816345D01*
X145752767Y-115816344D01*
X145509643Y-115699263D01*
X145509645Y-115699263D01*
X145251773Y-115619720D01*
X145251767Y-115619718D01*
X144984936Y-115579500D01*
X144984929Y-115579500D01*
X144715071Y-115579500D01*
X144715063Y-115579500D01*
X144448232Y-115619718D01*
X144448226Y-115619720D01*
X144190358Y-115699262D01*
X143947230Y-115816346D01*
X143724258Y-115968365D01*
X143526442Y-116151910D01*
X143358185Y-116362898D01*
X143223258Y-116596599D01*
X143223256Y-116596603D01*
X143124666Y-116847804D01*
X143124664Y-116847811D01*
X143064616Y-117110898D01*
X143044451Y-117379995D01*
X143044451Y-117380004D01*
X140696500Y-117380004D01*
X140696500Y-111045001D01*
X141626500Y-111045001D01*
X141626501Y-111045019D01*
X141637000Y-111147796D01*
X141637001Y-111147799D01*
X141666639Y-111237238D01*
X141692186Y-111314334D01*
X141784288Y-111463656D01*
X141908344Y-111587712D01*
X142057666Y-111679814D01*
X142224203Y-111734999D01*
X142319004Y-111744684D01*
X142370000Y-111761594D01*
X142457228Y-111813711D01*
X142457230Y-111813711D01*
X142457236Y-111813715D01*
X142667976Y-111892807D01*
X142889450Y-111933000D01*
X142889453Y-111933000D01*
X146868148Y-111933000D01*
X146868155Y-111933000D01*
X147036188Y-111917877D01*
X147036192Y-111917876D01*
X147253160Y-111857996D01*
X147253162Y-111857995D01*
X147253170Y-111857993D01*
X147360272Y-111806415D01*
X147460991Y-111757913D01*
X147461313Y-111758582D01*
X147506886Y-111743468D01*
X147589797Y-111734999D01*
X147756334Y-111679814D01*
X147905656Y-111587712D01*
X148029712Y-111463656D01*
X148121814Y-111314334D01*
X148176999Y-111147797D01*
X148187500Y-111045009D01*
X148187499Y-110319992D01*
X148176999Y-110217203D01*
X148121814Y-110050666D01*
X148029712Y-109901344D01*
X147905656Y-109777288D01*
X147798020Y-109710898D01*
X147756336Y-109685187D01*
X147756331Y-109685185D01*
X147754862Y-109684698D01*
X147589797Y-109630001D01*
X147589795Y-109630000D01*
X147494994Y-109620315D01*
X147443999Y-109603405D01*
X147356767Y-109551287D01*
X147356764Y-109551285D01*
X147212698Y-109497216D01*
X147146023Y-109472192D01*
X146924550Y-109432000D01*
X146924547Y-109432000D01*
X142945845Y-109432000D01*
X142907399Y-109435460D01*
X142777813Y-109447122D01*
X142777807Y-109447123D01*
X142560839Y-109507003D01*
X142560835Y-109507005D01*
X142560831Y-109507006D01*
X142560830Y-109507007D01*
X142390110Y-109589221D01*
X142353010Y-109607087D01*
X142352688Y-109606420D01*
X142307112Y-109621531D01*
X142224202Y-109630001D01*
X142224200Y-109630001D01*
X142057668Y-109685185D01*
X142057663Y-109685187D01*
X141908342Y-109777289D01*
X141784289Y-109901342D01*
X141692187Y-110050663D01*
X141692186Y-110050666D01*
X141637001Y-110217203D01*
X141637001Y-110217204D01*
X141637000Y-110217204D01*
X141626500Y-110319983D01*
X141626500Y-111045001D01*
X140696500Y-111045001D01*
X140696500Y-108120001D01*
X141626500Y-108120001D01*
X141626501Y-108120019D01*
X141637000Y-108222796D01*
X141637001Y-108222799D01*
X141648063Y-108256180D01*
X141692186Y-108389334D01*
X141784288Y-108538656D01*
X141908344Y-108662712D01*
X142057666Y-108754814D01*
X142224203Y-108809999D01*
X142326991Y-108820500D01*
X143677008Y-108820499D01*
X143779797Y-108809999D01*
X143946334Y-108754814D01*
X144095656Y-108662712D01*
X144219712Y-108538656D01*
X144311814Y-108389334D01*
X144366999Y-108222797D01*
X144377500Y-108120009D01*
X144377499Y-107394992D01*
X144374416Y-107364815D01*
X144366999Y-107292203D01*
X144366998Y-107292200D01*
X144348744Y-107237113D01*
X144311814Y-107125666D01*
X144219712Y-106976344D01*
X144095656Y-106852288D01*
X143985754Y-106784500D01*
X143946336Y-106760187D01*
X143946331Y-106760185D01*
X143932908Y-106755737D01*
X143779797Y-106705001D01*
X143779795Y-106705000D01*
X143738896Y-106700822D01*
X143674205Y-106674425D01*
X143634054Y-106617244D01*
X143627500Y-106577464D01*
X143627500Y-106362687D01*
X143647185Y-106295648D01*
X143659350Y-106279715D01*
X143677891Y-106259122D01*
X143734533Y-106196216D01*
X143829179Y-106032284D01*
X143887674Y-105852256D01*
X143907460Y-105664000D01*
X143887674Y-105475744D01*
X143829179Y-105295716D01*
X143734533Y-105131784D01*
X143607871Y-104991112D01*
X143607870Y-104991111D01*
X143454734Y-104879851D01*
X143454729Y-104879848D01*
X143281807Y-104802857D01*
X143281802Y-104802855D01*
X143136001Y-104771865D01*
X143096646Y-104763500D01*
X142907354Y-104763500D01*
X142874897Y-104770398D01*
X142722197Y-104802855D01*
X142722192Y-104802857D01*
X142549270Y-104879848D01*
X142549265Y-104879851D01*
X142396129Y-104991111D01*
X142269466Y-105131785D01*
X142174821Y-105295715D01*
X142174818Y-105295722D01*
X142116327Y-105475740D01*
X142116326Y-105475744D01*
X142096540Y-105664000D01*
X142116326Y-105852256D01*
X142116327Y-105852259D01*
X142174818Y-106032277D01*
X142174821Y-106032284D01*
X142269467Y-106196216D01*
X142273033Y-106200176D01*
X142344650Y-106279715D01*
X142374880Y-106342706D01*
X142376500Y-106362687D01*
X142376500Y-106577465D01*
X142356815Y-106644504D01*
X142304011Y-106690259D01*
X142265102Y-106700823D01*
X142224202Y-106705001D01*
X142224200Y-106705001D01*
X142057668Y-106760185D01*
X142057663Y-106760187D01*
X141908342Y-106852289D01*
X141784289Y-106976342D01*
X141692187Y-107125663D01*
X141692185Y-107125668D01*
X141679482Y-107164003D01*
X141637001Y-107292203D01*
X141637001Y-107292204D01*
X141637000Y-107292204D01*
X141626500Y-107394983D01*
X141626500Y-108120001D01*
X140696500Y-108120001D01*
X140696500Y-100948336D01*
X140716185Y-100881297D01*
X140732819Y-100860655D01*
X141786655Y-99806819D01*
X141847978Y-99773334D01*
X141874336Y-99770500D01*
X142217920Y-99770500D01*
X142284959Y-99790185D01*
X142330714Y-99842989D01*
X142340658Y-99912147D01*
X142334102Y-99937833D01*
X142310908Y-100000017D01*
X142305343Y-100051784D01*
X142304501Y-100059623D01*
X142304500Y-100059635D01*
X142304500Y-102060370D01*
X142304501Y-102060376D01*
X142310908Y-102119983D01*
X142361202Y-102254828D01*
X142361206Y-102254835D01*
X142447452Y-102370044D01*
X142447455Y-102370047D01*
X142562664Y-102456293D01*
X142562671Y-102456297D01*
X142607618Y-102473061D01*
X142697517Y-102506591D01*
X142757127Y-102513000D01*
X143111163Y-102512999D01*
X143178202Y-102532683D01*
X143198844Y-102549318D01*
X146889182Y-106239656D01*
X146898448Y-106250024D01*
X146920492Y-106277666D01*
X146970395Y-106321266D01*
X146976491Y-106326965D01*
X146983466Y-106333940D01*
X146983477Y-106333950D01*
X147014739Y-106360050D01*
X147016854Y-106361856D01*
X147090004Y-106425765D01*
X147093750Y-106428003D01*
X147109624Y-106439265D01*
X147112981Y-106442068D01*
X147112983Y-106442069D01*
X147112988Y-106442073D01*
X147149256Y-106462652D01*
X147197849Y-106512856D01*
X147211585Y-106581363D01*
X147186104Y-106646420D01*
X147129494Y-106687373D01*
X147088062Y-106694500D01*
X146136998Y-106694500D01*
X146136981Y-106694501D01*
X146034203Y-106705000D01*
X146034200Y-106705001D01*
X145867668Y-106760185D01*
X145867663Y-106760187D01*
X145718342Y-106852289D01*
X145594289Y-106976342D01*
X145502187Y-107125663D01*
X145502185Y-107125668D01*
X145489482Y-107164003D01*
X145447001Y-107292203D01*
X145447001Y-107292204D01*
X145447000Y-107292204D01*
X145436500Y-107394983D01*
X145436500Y-108120001D01*
X145436501Y-108120019D01*
X145447000Y-108222796D01*
X145447001Y-108222799D01*
X145458063Y-108256180D01*
X145502186Y-108389334D01*
X145594288Y-108538656D01*
X145718344Y-108662712D01*
X145867666Y-108754814D01*
X146034203Y-108809999D01*
X146136991Y-108820500D01*
X147487008Y-108820499D01*
X147589797Y-108809999D01*
X147756334Y-108754814D01*
X147905656Y-108662712D01*
X148029712Y-108538656D01*
X148089389Y-108441902D01*
X148141337Y-108395179D01*
X148194928Y-108383000D01*
X149493072Y-108383000D01*
X149560111Y-108402685D01*
X149598609Y-108441901D01*
X149658288Y-108538656D01*
X149782344Y-108662712D01*
X149931666Y-108754814D01*
X150098203Y-108809999D01*
X150200991Y-108820500D01*
X151551008Y-108820499D01*
X151653797Y-108809999D01*
X151820334Y-108754814D01*
X151969656Y-108662712D01*
X152093712Y-108538656D01*
X152185814Y-108389334D01*
X152240999Y-108222797D01*
X152251500Y-108120009D01*
X152251499Y-107394992D01*
X152248416Y-107364815D01*
X152240999Y-107292203D01*
X152240998Y-107292200D01*
X152222744Y-107237113D01*
X152185814Y-107125666D01*
X152093712Y-106976344D01*
X151989549Y-106872181D01*
X151956064Y-106810858D01*
X151961048Y-106741166D01*
X152002920Y-106685233D01*
X152068384Y-106660816D01*
X152077230Y-106660500D01*
X153738770Y-106660500D01*
X153805809Y-106680185D01*
X153851564Y-106732989D01*
X153861508Y-106802147D01*
X153832483Y-106865703D01*
X153826451Y-106872181D01*
X153722289Y-106976342D01*
X153630187Y-107125663D01*
X153630185Y-107125668D01*
X153617482Y-107164003D01*
X153575001Y-107292203D01*
X153575001Y-107292204D01*
X153575000Y-107292204D01*
X153564500Y-107394983D01*
X153564500Y-108120001D01*
X153564501Y-108120019D01*
X153575000Y-108222796D01*
X153575001Y-108222799D01*
X153586063Y-108256180D01*
X153630186Y-108389334D01*
X153722288Y-108538656D01*
X153846344Y-108662712D01*
X153995666Y-108754814D01*
X154162203Y-108809999D01*
X154264991Y-108820500D01*
X155615008Y-108820499D01*
X155717797Y-108809999D01*
X155884334Y-108754814D01*
X156033656Y-108662712D01*
X156157712Y-108538656D01*
X156249814Y-108389334D01*
X156304999Y-108222797D01*
X156315500Y-108120009D01*
X156315499Y-107394992D01*
X156312416Y-107364815D01*
X156304999Y-107292203D01*
X156304998Y-107292200D01*
X156286744Y-107237113D01*
X156249814Y-107125666D01*
X156157712Y-106976344D01*
X156053549Y-106872181D01*
X156020064Y-106810858D01*
X156025048Y-106741166D01*
X156066920Y-106685233D01*
X156132384Y-106660816D01*
X156141230Y-106660500D01*
X162040500Y-106660500D01*
X162107539Y-106680185D01*
X162153294Y-106732989D01*
X162164500Y-106784500D01*
X162164500Y-108555701D01*
X162167401Y-108592567D01*
X162167402Y-108592573D01*
X162213254Y-108750393D01*
X162213255Y-108750396D01*
X162213256Y-108750398D01*
X162215868Y-108754814D01*
X162300890Y-108898580D01*
X162299615Y-108899333D01*
X162321978Y-108956285D01*
X162322183Y-108958909D01*
X162325219Y-109003930D01*
X162325500Y-109012273D01*
X162325500Y-109022156D01*
X162329153Y-109062749D01*
X162329371Y-109065521D01*
X162335903Y-109162407D01*
X162335903Y-109162412D01*
X162336972Y-109166652D01*
X162340230Y-109185824D01*
X162340623Y-109190190D01*
X162366465Y-109283824D01*
X162367158Y-109286447D01*
X162381971Y-109345234D01*
X162390903Y-109380681D01*
X162392715Y-109384670D01*
X162399340Y-109402944D01*
X162400504Y-109407162D01*
X162400507Y-109407170D01*
X162442657Y-109494698D01*
X162443835Y-109497216D01*
X162483993Y-109585626D01*
X162483994Y-109585629D01*
X162486483Y-109589221D01*
X162496269Y-109606026D01*
X162498166Y-109609965D01*
X162498171Y-109609973D01*
X162555311Y-109688620D01*
X162556835Y-109690768D01*
X162570781Y-109710898D01*
X162612181Y-109770656D01*
X162615273Y-109773748D01*
X162627907Y-109788539D01*
X162630478Y-109792078D01*
X162630482Y-109792082D01*
X162700699Y-109859217D01*
X162702688Y-109861162D01*
X163653182Y-110811656D01*
X163662448Y-110822024D01*
X163684492Y-110849666D01*
X163734395Y-110893266D01*
X163740491Y-110898965D01*
X163747471Y-110905945D01*
X163778798Y-110932098D01*
X163780864Y-110933864D01*
X163843021Y-110988170D01*
X163880555Y-111047102D01*
X163880269Y-111116971D01*
X163842255Y-111175594D01*
X163824557Y-111188282D01*
X163683140Y-111271915D01*
X163676974Y-111276699D01*
X163675174Y-111274379D01*
X163625913Y-111301230D01*
X163556225Y-111296193D01*
X163523992Y-111275461D01*
X163522722Y-111277100D01*
X163516552Y-111272314D01*
X163375196Y-111188717D01*
X163375193Y-111188716D01*
X163217494Y-111142900D01*
X163217497Y-111142900D01*
X163215000Y-111142703D01*
X163215000Y-112741000D01*
X163195315Y-112808039D01*
X163142511Y-112853794D01*
X163091000Y-112865000D01*
X162165000Y-112865000D01*
X162165000Y-113505649D01*
X162167899Y-113542489D01*
X162167900Y-113542495D01*
X162213716Y-113700193D01*
X162213717Y-113700196D01*
X162297314Y-113841552D01*
X162297321Y-113841561D01*
X162413438Y-113957678D01*
X162413447Y-113957685D01*
X162554802Y-114041281D01*
X162682359Y-114078340D01*
X162741245Y-114115947D01*
X162770452Y-114179419D01*
X162760972Y-114246711D01*
X162761424Y-114246907D01*
X162760714Y-114248546D01*
X162760706Y-114248606D01*
X162760601Y-114248807D01*
X162740975Y-114294158D01*
X162735838Y-114304644D01*
X162714803Y-114342906D01*
X162709822Y-114362307D01*
X162703521Y-114380710D01*
X162695562Y-114399102D01*
X162695561Y-114399105D01*
X162688728Y-114442243D01*
X162686360Y-114453674D01*
X162675501Y-114495971D01*
X162675500Y-114495982D01*
X162675500Y-114516016D01*
X162673973Y-114535415D01*
X162670840Y-114555194D01*
X162670840Y-114555195D01*
X162674950Y-114598674D01*
X162675500Y-114610343D01*
X162675500Y-115235149D01*
X162666061Y-115282601D01*
X162640314Y-115344760D01*
X162640313Y-115344764D01*
X162625500Y-115457272D01*
X162625500Y-115682727D01*
X162640313Y-115795235D01*
X162640313Y-115795236D01*
X162662743Y-115849388D01*
X162698302Y-115935233D01*
X162790549Y-116055451D01*
X162910767Y-116147698D01*
X163050764Y-116205687D01*
X163151894Y-116219001D01*
X163159474Y-116219999D01*
X163163280Y-116220500D01*
X163163287Y-116220500D01*
X163488713Y-116220500D01*
X163488720Y-116220500D01*
X163561730Y-116210888D01*
X163594099Y-116210888D01*
X163663302Y-116219999D01*
X163663317Y-116220000D01*
X163676000Y-116220000D01*
X163691360Y-116204639D01*
X163695685Y-116189912D01*
X163738004Y-116149561D01*
X163741221Y-116147702D01*
X163741233Y-116147698D01*
X163776515Y-116120624D01*
X163841681Y-116095431D01*
X163910126Y-116109468D01*
X163960116Y-116158282D01*
X163976000Y-116219001D01*
X163976000Y-116220000D01*
X163988683Y-116220000D01*
X163988697Y-116219999D01*
X164090337Y-116206617D01*
X164159372Y-116217382D01*
X164211628Y-116263762D01*
X164230514Y-116331030D01*
X164213256Y-116392676D01*
X164168530Y-116468304D01*
X164168529Y-116468307D01*
X164122890Y-116625396D01*
X164122888Y-116625408D01*
X164120953Y-116650000D01*
X164665000Y-116650000D01*
X164665000Y-116275165D01*
X164684685Y-116208126D01*
X164737489Y-116162371D01*
X164806647Y-116152427D01*
X164864487Y-116176790D01*
X164904765Y-116207697D01*
X164904767Y-116207698D01*
X165044764Y-116265687D01*
X165056296Y-116267205D01*
X165120192Y-116295471D01*
X165158664Y-116353795D01*
X165159496Y-116423660D01*
X165146845Y-116453261D01*
X165138069Y-116468101D01*
X165138068Y-116468103D01*
X165092391Y-116625320D01*
X165092390Y-116625326D01*
X165089500Y-116662052D01*
X165089500Y-117137947D01*
X165092390Y-117174673D01*
X165092391Y-117174679D01*
X165138066Y-117331892D01*
X165138068Y-117331895D01*
X165147732Y-117348236D01*
X165165000Y-117411357D01*
X165165000Y-117716991D01*
X165321696Y-117671468D01*
X165336386Y-117662781D01*
X165404110Y-117645597D01*
X165462628Y-117662779D01*
X165478103Y-117671931D01*
X165478104Y-117671931D01*
X165478107Y-117671933D01*
X165635320Y-117717608D01*
X165635323Y-117717608D01*
X165635325Y-117717609D01*
X165672060Y-117720500D01*
X165672068Y-117720500D01*
X166097932Y-117720500D01*
X166097940Y-117720500D01*
X166134675Y-117717609D01*
X166134677Y-117717608D01*
X166134679Y-117717608D01*
X166291892Y-117671933D01*
X166291893Y-117671932D01*
X166291897Y-117671931D01*
X166432820Y-117588590D01*
X166513074Y-117508334D01*
X166554224Y-117484013D01*
X166553230Y-117481716D01*
X166560382Y-117478620D01*
X166560390Y-117478618D01*
X166577629Y-117468422D01*
X166595103Y-117459862D01*
X166613727Y-117452488D01*
X166613727Y-117452487D01*
X166613732Y-117452486D01*
X166649083Y-117426800D01*
X166658814Y-117420408D01*
X166696420Y-117398170D01*
X166710589Y-117383999D01*
X166725379Y-117371368D01*
X166741587Y-117359594D01*
X166769438Y-117325926D01*
X166777279Y-117317309D01*
X167123785Y-116970803D01*
X167136041Y-116960987D01*
X167135858Y-116960765D01*
X167141870Y-116955790D01*
X167141877Y-116955786D01*
X167187949Y-116906722D01*
X167190566Y-116904023D01*
X167210120Y-116884471D01*
X167212576Y-116881303D01*
X167220156Y-116872427D01*
X167250062Y-116840582D01*
X167259715Y-116823020D01*
X167270389Y-116806770D01*
X167282673Y-116790936D01*
X167300019Y-116750850D01*
X167305157Y-116740362D01*
X167315179Y-116722134D01*
X167326197Y-116702092D01*
X167331177Y-116682691D01*
X167337478Y-116664288D01*
X167345438Y-116645896D01*
X167352272Y-116602741D01*
X167354635Y-116591331D01*
X167365500Y-116549019D01*
X167365500Y-116528983D01*
X167367027Y-116509582D01*
X167370160Y-116489804D01*
X167366050Y-116446324D01*
X167365500Y-116434655D01*
X167365500Y-116104595D01*
X167385185Y-116037556D01*
X167401820Y-116016913D01*
X167431130Y-115987603D01*
X167431135Y-115987598D01*
X167512869Y-115849393D01*
X167557665Y-115695204D01*
X167560500Y-115659181D01*
X167560499Y-115260820D01*
X167557665Y-115224796D01*
X167557463Y-115224100D01*
X167557464Y-115223694D01*
X167556527Y-115218563D01*
X167557478Y-115218389D01*
X167557658Y-115154233D01*
X167595596Y-115095561D01*
X167659232Y-115066713D01*
X167676537Y-115065500D01*
X167977548Y-115065500D01*
X168044587Y-115085185D01*
X168065229Y-115101819D01*
X170026181Y-117062771D01*
X170059666Y-117124094D01*
X170062500Y-117150452D01*
X170062500Y-119043255D01*
X170060775Y-119058872D01*
X170061061Y-119058899D01*
X170060326Y-119066665D01*
X170062439Y-119133872D01*
X170062500Y-119137767D01*
X170062500Y-119165357D01*
X170063003Y-119169335D01*
X170063918Y-119180967D01*
X170065290Y-119224624D01*
X170065291Y-119224627D01*
X170070880Y-119243867D01*
X170074824Y-119262911D01*
X170075402Y-119267482D01*
X170077336Y-119282792D01*
X170093414Y-119323403D01*
X170097197Y-119334452D01*
X170108238Y-119372455D01*
X170109382Y-119376390D01*
X170115863Y-119387350D01*
X170119580Y-119393634D01*
X170128136Y-119411100D01*
X170130821Y-119417880D01*
X170135514Y-119429732D01*
X170161181Y-119465060D01*
X170167593Y-119474821D01*
X170189828Y-119512417D01*
X170189833Y-119512424D01*
X170203990Y-119526580D01*
X170216628Y-119541376D01*
X170228405Y-119557586D01*
X170228406Y-119557587D01*
X170262057Y-119585425D01*
X170270698Y-119593288D01*
X170949194Y-120271784D01*
X170959019Y-120284048D01*
X170959240Y-120283866D01*
X170964210Y-120289874D01*
X171013239Y-120335915D01*
X171016036Y-120338626D01*
X171035530Y-120358120D01*
X171038695Y-120360575D01*
X171047571Y-120368156D01*
X171079418Y-120398062D01*
X171079422Y-120398064D01*
X171096973Y-120407713D01*
X171113231Y-120418392D01*
X171129064Y-120430674D01*
X171164410Y-120445968D01*
X171169155Y-120448022D01*
X171179635Y-120453155D01*
X171217908Y-120474197D01*
X171237312Y-120479179D01*
X171255710Y-120485478D01*
X171274105Y-120493438D01*
X171317254Y-120500271D01*
X171328680Y-120502638D01*
X171370981Y-120513500D01*
X171391016Y-120513500D01*
X171410413Y-120515026D01*
X171430196Y-120518160D01*
X171473675Y-120514050D01*
X171485344Y-120513500D01*
X171915981Y-120513500D01*
X171983020Y-120533185D01*
X172028775Y-120585989D01*
X172038719Y-120655147D01*
X172009694Y-120718703D01*
X171959316Y-120753680D01*
X171883367Y-120782008D01*
X171846833Y-120795635D01*
X171595690Y-120932770D01*
X171595682Y-120932775D01*
X171366612Y-121104254D01*
X171366594Y-121104270D01*
X171164270Y-121306594D01*
X171164254Y-121306612D01*
X170992775Y-121535682D01*
X170992770Y-121535690D01*
X170855635Y-121786833D01*
X170755628Y-122054962D01*
X170694804Y-122334566D01*
X170679500Y-122548549D01*
X170679500Y-125691450D01*
X170694804Y-125905433D01*
X170755628Y-126185037D01*
X170755630Y-126185043D01*
X170755631Y-126185046D01*
X170847751Y-126432028D01*
X170855635Y-126453166D01*
X170992770Y-126704309D01*
X170992775Y-126704317D01*
X171164254Y-126933387D01*
X171164270Y-126933405D01*
X171366594Y-127135729D01*
X171366612Y-127135745D01*
X171595682Y-127307224D01*
X171595690Y-127307229D01*
X171846833Y-127444364D01*
X171846832Y-127444364D01*
X171846836Y-127444365D01*
X171846839Y-127444367D01*
X172114954Y-127544369D01*
X172114960Y-127544370D01*
X172114962Y-127544371D01*
X172394566Y-127605195D01*
X172394568Y-127605195D01*
X172394572Y-127605196D01*
X172608552Y-127620500D01*
X175751448Y-127620500D01*
X175965428Y-127605196D01*
X176245046Y-127544369D01*
X176513161Y-127444367D01*
X176764315Y-127307226D01*
X176993395Y-127135739D01*
X177195739Y-126933395D01*
X177367226Y-126704315D01*
X177504367Y-126453161D01*
X177604369Y-126185046D01*
X177615940Y-126131856D01*
X177665195Y-125905433D01*
X177665195Y-125905432D01*
X177665196Y-125905428D01*
X177680500Y-125691448D01*
X177680500Y-124000452D01*
X177700185Y-123933413D01*
X177752989Y-123887658D01*
X177822147Y-123877714D01*
X177885703Y-123906739D01*
X177892181Y-123912771D01*
X178323606Y-124344197D01*
X178338480Y-124362175D01*
X178343076Y-124368938D01*
X178343077Y-124368939D01*
X178343078Y-124368940D01*
X178384677Y-124405614D01*
X178390356Y-124410947D01*
X178401529Y-124422120D01*
X178414017Y-124431807D01*
X178420008Y-124436763D01*
X178461622Y-124473450D01*
X178468898Y-124477157D01*
X178488606Y-124489664D01*
X178495064Y-124494673D01*
X178519918Y-124505428D01*
X178545965Y-124516700D01*
X178553013Y-124520016D01*
X178602435Y-124545198D01*
X178602438Y-124545199D01*
X178606800Y-124546173D01*
X178610398Y-124546977D01*
X178632608Y-124554193D01*
X178640104Y-124557437D01*
X178640106Y-124557437D01*
X178640108Y-124557438D01*
X178694894Y-124566115D01*
X178702534Y-124567572D01*
X178756667Y-124579673D01*
X178764835Y-124579416D01*
X178788124Y-124580881D01*
X178796196Y-124582160D01*
X178851429Y-124576937D01*
X178859150Y-124576451D01*
X178914627Y-124574709D01*
X178922476Y-124572428D01*
X178945402Y-124568054D01*
X178953533Y-124567286D01*
X178960739Y-124564691D01*
X178965911Y-124562830D01*
X179007912Y-124555500D01*
X179175501Y-124555500D01*
X179242540Y-124575185D01*
X179288295Y-124627989D01*
X179299501Y-124679500D01*
X179299501Y-124727876D01*
X179305908Y-124787483D01*
X179356202Y-124922328D01*
X179356206Y-124922335D01*
X179442452Y-125037544D01*
X179442455Y-125037547D01*
X179557665Y-125123794D01*
X179557667Y-125123794D01*
X179557669Y-125123796D01*
X179568830Y-125127958D01*
X179624764Y-125169826D01*
X179649184Y-125235289D01*
X179649500Y-125244141D01*
X179649500Y-126550743D01*
X179664925Y-126702439D01*
X179725837Y-126896579D01*
X179725844Y-126896594D01*
X179824589Y-127074499D01*
X179824592Y-127074504D01*
X179957132Y-127228893D01*
X179957134Y-127228895D01*
X180118037Y-127353445D01*
X180118038Y-127353445D01*
X180118042Y-127353448D01*
X180300729Y-127443060D01*
X180497715Y-127494063D01*
X180700936Y-127504369D01*
X180902071Y-127473556D01*
X181092887Y-127402886D01*
X181265571Y-127295252D01*
X181413053Y-127155059D01*
X181529295Y-126988049D01*
X181609540Y-126801058D01*
X181650500Y-126601741D01*
X181650500Y-125304499D01*
X181670185Y-125237460D01*
X181722989Y-125191705D01*
X181774500Y-125180499D01*
X181847871Y-125180499D01*
X181847872Y-125180499D01*
X181907483Y-125174091D01*
X182042331Y-125123796D01*
X182157546Y-125037546D01*
X182243796Y-124922331D01*
X182294091Y-124787483D01*
X182300500Y-124727873D01*
X182300499Y-123132128D01*
X182294091Y-123072517D01*
X182293222Y-123070188D01*
X182243797Y-122937671D01*
X182243796Y-122937669D01*
X182217210Y-122902155D01*
X182181393Y-122854310D01*
X182156977Y-122788847D01*
X182171828Y-122720574D01*
X182181396Y-122705687D01*
X182200486Y-122680187D01*
X182256420Y-122638317D01*
X182299751Y-122630500D01*
X183612099Y-122630500D01*
X183640098Y-122633703D01*
X183642061Y-122634158D01*
X183648149Y-122635733D01*
X183698655Y-122650185D01*
X183718578Y-122655886D01*
X183718582Y-122655887D01*
X183734641Y-122657109D01*
X183753248Y-122659959D01*
X183768946Y-122663603D01*
X183842188Y-122665458D01*
X183848439Y-122665775D01*
X183921477Y-122671337D01*
X183937445Y-122669302D01*
X183956257Y-122668348D01*
X183972363Y-122668757D01*
X184044496Y-122655827D01*
X184050631Y-122654887D01*
X184123328Y-122645630D01*
X184138567Y-122640420D01*
X184156802Y-122635698D01*
X184172653Y-122632858D01*
X184172652Y-122632858D01*
X184174964Y-122632444D01*
X184196833Y-122630500D01*
X185475501Y-122630500D01*
X185542540Y-122650185D01*
X185588295Y-122702989D01*
X185599501Y-122754500D01*
X185599501Y-123577876D01*
X185605908Y-123637483D01*
X185656202Y-123772328D01*
X185656206Y-123772335D01*
X185742452Y-123887544D01*
X185742455Y-123887547D01*
X185857664Y-123973793D01*
X185857671Y-123973797D01*
X185992517Y-124024091D01*
X185992516Y-124024091D01*
X185999444Y-124024835D01*
X186052127Y-124030500D01*
X188147872Y-124030499D01*
X188207483Y-124024091D01*
X188342331Y-123973796D01*
X188457546Y-123887546D01*
X188543796Y-123772331D01*
X188594091Y-123637483D01*
X188600500Y-123577873D01*
X188600499Y-119682128D01*
X188594091Y-119622517D01*
X188591724Y-119616172D01*
X188543797Y-119487671D01*
X188543793Y-119487664D01*
X188457547Y-119372455D01*
X188457544Y-119372452D01*
X188342335Y-119286206D01*
X188342328Y-119286202D01*
X188207482Y-119235908D01*
X188207483Y-119235908D01*
X188147883Y-119229501D01*
X188147881Y-119229500D01*
X188147873Y-119229500D01*
X188147865Y-119229500D01*
X187209500Y-119229500D01*
X187142461Y-119209815D01*
X187096706Y-119157011D01*
X187085500Y-119105500D01*
X187085500Y-116703999D01*
X187105185Y-116636960D01*
X187157989Y-116591205D01*
X187209500Y-116579999D01*
X187269324Y-116579999D01*
X187386628Y-116564557D01*
X187386633Y-116564555D01*
X187532585Y-116504100D01*
X187657924Y-116407924D01*
X187754100Y-116282586D01*
X187814555Y-116136631D01*
X187822012Y-116080000D01*
X187314500Y-116080000D01*
X187247461Y-116060315D01*
X187201706Y-116007511D01*
X187190500Y-115956001D01*
X187190499Y-115804001D01*
X187210183Y-115736961D01*
X187262987Y-115691206D01*
X187314499Y-115680000D01*
X187822010Y-115680000D01*
X187822011Y-115679998D01*
X187814557Y-115623372D01*
X187814555Y-115623366D01*
X187754100Y-115477414D01*
X187657923Y-115352073D01*
X187642571Y-115340294D01*
X187601368Y-115283867D01*
X187597213Y-115214121D01*
X187631425Y-115153200D01*
X187642573Y-115143541D01*
X187662922Y-115127926D01*
X187759100Y-115002586D01*
X187819555Y-114856631D01*
X187827012Y-114800000D01*
X187319500Y-114800000D01*
X187252461Y-114780315D01*
X187206706Y-114727511D01*
X187195500Y-114676001D01*
X187195499Y-114524001D01*
X187215183Y-114456961D01*
X187267987Y-114411206D01*
X187319499Y-114400000D01*
X187827010Y-114400000D01*
X187827011Y-114399998D01*
X187819557Y-114343372D01*
X187819555Y-114343366D01*
X187759100Y-114197414D01*
X187662924Y-114072075D01*
X187537586Y-113975899D01*
X187391631Y-113915444D01*
X187305000Y-113904038D01*
X187305000Y-114073568D01*
X187285315Y-114140607D01*
X187232511Y-114186362D01*
X187163353Y-114196306D01*
X187099797Y-114167281D01*
X187082627Y-114149058D01*
X187023282Y-114071718D01*
X186953512Y-114018181D01*
X186912311Y-113961755D01*
X186905000Y-113919807D01*
X186905000Y-113904038D01*
X186818365Y-113915444D01*
X186818055Y-113915528D01*
X186817733Y-113915527D01*
X186810313Y-113916505D01*
X186810184Y-113915527D01*
X186759884Y-113915526D01*
X186759820Y-113916017D01*
X186756091Y-113915526D01*
X186753891Y-113915526D01*
X186751765Y-113914956D01*
X186634361Y-113899500D01*
X186295636Y-113899500D01*
X186178246Y-113914953D01*
X186178237Y-113914956D01*
X186032160Y-113975463D01*
X185906718Y-114071718D01*
X185810463Y-114197160D01*
X185749956Y-114343237D01*
X185749955Y-114343239D01*
X185734500Y-114460638D01*
X185734500Y-114739363D01*
X185749953Y-114856753D01*
X185749957Y-114856765D01*
X185810461Y-115002836D01*
X185814526Y-115009876D01*
X185812783Y-115010882D01*
X185834069Y-115065932D01*
X185834500Y-115076257D01*
X185834500Y-115397225D01*
X185814815Y-115464264D01*
X185808879Y-115472707D01*
X185805465Y-115477156D01*
X185744956Y-115623237D01*
X185744955Y-115623239D01*
X185729500Y-115740638D01*
X185729500Y-116019363D01*
X185744953Y-116136753D01*
X185744957Y-116136765D01*
X185805461Y-116282836D01*
X185805462Y-116282838D01*
X185805463Y-116282840D01*
X185805464Y-116282841D01*
X185808874Y-116287285D01*
X185834070Y-116352452D01*
X185834500Y-116362773D01*
X185834500Y-119241478D01*
X185814815Y-119308517D01*
X185784812Y-119340744D01*
X185742457Y-119372450D01*
X185742451Y-119372457D01*
X185656206Y-119487664D01*
X185656202Y-119487671D01*
X185605908Y-119622517D01*
X185599501Y-119682116D01*
X185599501Y-119682123D01*
X185599500Y-119682135D01*
X185599500Y-120505500D01*
X185579815Y-120572539D01*
X185527011Y-120618294D01*
X185475500Y-120629500D01*
X183946280Y-120629500D01*
X183943139Y-120629460D01*
X183940183Y-120629385D01*
X183877910Y-120627806D01*
X183871640Y-120627488D01*
X183834526Y-120624662D01*
X183834524Y-120624662D01*
X183804349Y-120628506D01*
X183788682Y-120629500D01*
X182299751Y-120629500D01*
X182232712Y-120609815D01*
X182200484Y-120579810D01*
X182181082Y-120553892D01*
X182156665Y-120488428D01*
X182171517Y-120420155D01*
X182181083Y-120405270D01*
X182243352Y-120322089D01*
X182243354Y-120322086D01*
X182293596Y-120187379D01*
X182293598Y-120187372D01*
X182299999Y-120127844D01*
X182300000Y-120127827D01*
X182300000Y-119580000D01*
X179300000Y-119580000D01*
X179300000Y-120127844D01*
X179306401Y-120187372D01*
X179306403Y-120187379D01*
X179356645Y-120322086D01*
X179356646Y-120322088D01*
X179418918Y-120405272D01*
X179443335Y-120470736D01*
X179428484Y-120539009D01*
X179418918Y-120553894D01*
X179356204Y-120637669D01*
X179356202Y-120637671D01*
X179305908Y-120772517D01*
X179299501Y-120832116D01*
X179299500Y-120832135D01*
X179299500Y-122427870D01*
X179299501Y-122427876D01*
X179305908Y-122487483D01*
X179356202Y-122622328D01*
X179356203Y-122622330D01*
X179384374Y-122659961D01*
X179418604Y-122705687D01*
X179418606Y-122705689D01*
X179443023Y-122771153D01*
X179428172Y-122839426D01*
X179418606Y-122854311D01*
X179356203Y-122937669D01*
X179356202Y-122937671D01*
X179305908Y-123072517D01*
X179299501Y-123132116D01*
X179299501Y-123132123D01*
X179299500Y-123132135D01*
X179299500Y-123180500D01*
X179279815Y-123247539D01*
X179227011Y-123293294D01*
X179175500Y-123304500D01*
X179104453Y-123304500D01*
X179037414Y-123284815D01*
X179016772Y-123268181D01*
X178969819Y-123221228D01*
X178936334Y-123159905D01*
X178933500Y-123133547D01*
X178933500Y-121240737D01*
X178935224Y-121225123D01*
X178934938Y-121225096D01*
X178935672Y-121217333D01*
X178933561Y-121150144D01*
X178933500Y-121146250D01*
X178933500Y-121118651D01*
X178933500Y-121118650D01*
X178932997Y-121114670D01*
X178932080Y-121103021D01*
X178930709Y-121059373D01*
X178925122Y-121040144D01*
X178921174Y-121021084D01*
X178918664Y-121001208D01*
X178902585Y-120960597D01*
X178898804Y-120949552D01*
X178886619Y-120907612D01*
X178876418Y-120890363D01*
X178867860Y-120872894D01*
X178860486Y-120854268D01*
X178860483Y-120854264D01*
X178860483Y-120854263D01*
X178834816Y-120818935D01*
X178828403Y-120809172D01*
X178811970Y-120781388D01*
X178806170Y-120771579D01*
X178806166Y-120771575D01*
X178806163Y-120771571D01*
X178792005Y-120757413D01*
X178779370Y-120742620D01*
X178767593Y-120726412D01*
X178733945Y-120698576D01*
X178725304Y-120690713D01*
X177538803Y-119504212D01*
X177528980Y-119491950D01*
X177528759Y-119492134D01*
X177523786Y-119486122D01*
X177474776Y-119440099D01*
X177471977Y-119437386D01*
X177452477Y-119417885D01*
X177452471Y-119417880D01*
X177449286Y-119415409D01*
X177440434Y-119407848D01*
X177408582Y-119377938D01*
X177408580Y-119377936D01*
X177408577Y-119377935D01*
X177391029Y-119368288D01*
X177374763Y-119357604D01*
X177358932Y-119345324D01*
X177318849Y-119327978D01*
X177308363Y-119322841D01*
X177270094Y-119301803D01*
X177270092Y-119301802D01*
X177250693Y-119296822D01*
X177232281Y-119290518D01*
X177213898Y-119282562D01*
X177213892Y-119282560D01*
X177170760Y-119275729D01*
X177159322Y-119273361D01*
X177117020Y-119262500D01*
X177117019Y-119262500D01*
X177096984Y-119262500D01*
X177077586Y-119260973D01*
X177070162Y-119259797D01*
X177057805Y-119257840D01*
X177057804Y-119257840D01*
X177014325Y-119261950D01*
X177002656Y-119262500D01*
X171760452Y-119262500D01*
X171693413Y-119242815D01*
X171672771Y-119226181D01*
X171526590Y-119080000D01*
X179300000Y-119080000D01*
X180550000Y-119080000D01*
X180550000Y-118080000D01*
X181050000Y-118080000D01*
X181050000Y-119080000D01*
X182300000Y-119080000D01*
X182300000Y-118532172D01*
X182299999Y-118532155D01*
X182293598Y-118472627D01*
X182293596Y-118472620D01*
X182243354Y-118337913D01*
X182243350Y-118337906D01*
X182157190Y-118222812D01*
X182157187Y-118222809D01*
X182042093Y-118136649D01*
X182042086Y-118136645D01*
X181907379Y-118086403D01*
X181907372Y-118086401D01*
X181847844Y-118080000D01*
X181050000Y-118080000D01*
X180550000Y-118080000D01*
X179752155Y-118080000D01*
X179692627Y-118086401D01*
X179692620Y-118086403D01*
X179557913Y-118136645D01*
X179557906Y-118136649D01*
X179442812Y-118222809D01*
X179442809Y-118222812D01*
X179356649Y-118337906D01*
X179356645Y-118337913D01*
X179306403Y-118472620D01*
X179306401Y-118472627D01*
X179300000Y-118532155D01*
X179300000Y-119080000D01*
X171526590Y-119080000D01*
X171349819Y-118903228D01*
X171316334Y-118841905D01*
X171313500Y-118815547D01*
X171313500Y-116922742D01*
X171315224Y-116907122D01*
X171314939Y-116907095D01*
X171315673Y-116899333D01*
X171313561Y-116832112D01*
X171313500Y-116828218D01*
X171313500Y-116800656D01*
X171313500Y-116800650D01*
X171312996Y-116796668D01*
X171312081Y-116785029D01*
X171311881Y-116778663D01*
X171310710Y-116741373D01*
X171305119Y-116722130D01*
X171301173Y-116703078D01*
X171298664Y-116683208D01*
X171282579Y-116642583D01*
X171278806Y-116631562D01*
X171266618Y-116589610D01*
X171266617Y-116589609D01*
X171266617Y-116589607D01*
X171266616Y-116589606D01*
X171256423Y-116572371D01*
X171247861Y-116554894D01*
X171240487Y-116536269D01*
X171221097Y-116509582D01*
X171214811Y-116500930D01*
X171208405Y-116491177D01*
X171186170Y-116453580D01*
X171186168Y-116453578D01*
X171186165Y-116453574D01*
X171172006Y-116439415D01*
X171159368Y-116424619D01*
X171147594Y-116408413D01*
X171113940Y-116380572D01*
X171105299Y-116372709D01*
X168788803Y-114056212D01*
X168778980Y-114043950D01*
X168778759Y-114044134D01*
X168773786Y-114038122D01*
X168724776Y-113992099D01*
X168721977Y-113989386D01*
X168702477Y-113969885D01*
X168702471Y-113969880D01*
X168699286Y-113967409D01*
X168690434Y-113959848D01*
X168658582Y-113929938D01*
X168658580Y-113929936D01*
X168658577Y-113929935D01*
X168641029Y-113920288D01*
X168624763Y-113909604D01*
X168617587Y-113904038D01*
X168608936Y-113897327D01*
X168608935Y-113897326D01*
X168608932Y-113897324D01*
X168568849Y-113879978D01*
X168558363Y-113874841D01*
X168520094Y-113853803D01*
X168520092Y-113853802D01*
X168500693Y-113848822D01*
X168482281Y-113842518D01*
X168463898Y-113834562D01*
X168463892Y-113834560D01*
X168420760Y-113827729D01*
X168409322Y-113825361D01*
X168367020Y-113814500D01*
X168367019Y-113814500D01*
X168346984Y-113814500D01*
X168327586Y-113812973D01*
X168320162Y-113811797D01*
X168307805Y-113809840D01*
X168307804Y-113809840D01*
X168264325Y-113813950D01*
X168252656Y-113814500D01*
X167658747Y-113814500D01*
X167591708Y-113794815D01*
X167545953Y-113742011D01*
X167536009Y-113672853D01*
X167539671Y-113655905D01*
X167572597Y-113542573D01*
X167572598Y-113542567D01*
X167575499Y-113505701D01*
X167575500Y-113505694D01*
X167575500Y-111724306D01*
X167572598Y-111687431D01*
X167570384Y-111679812D01*
X167530827Y-111543655D01*
X167526744Y-111529602D01*
X167461702Y-111419621D01*
X167444519Y-111351897D01*
X167466679Y-111285634D01*
X167521145Y-111241871D01*
X167568434Y-111232500D01*
X180770814Y-111232500D01*
X180784697Y-111233279D01*
X180819827Y-111237238D01*
X180819828Y-111237237D01*
X180819830Y-111237238D01*
X180885933Y-111232781D01*
X180894275Y-111232500D01*
X180904149Y-111232500D01*
X180904155Y-111232500D01*
X180944793Y-111228841D01*
X180947504Y-111228628D01*
X181044412Y-111222096D01*
X181048646Y-111221028D01*
X181067841Y-111217767D01*
X181072188Y-111217377D01*
X181165856Y-111191525D01*
X181168444Y-111190841D01*
X181262683Y-111167096D01*
X181266655Y-111165291D01*
X181284962Y-111158654D01*
X181289170Y-111157493D01*
X181376740Y-111115321D01*
X181379131Y-111114202D01*
X181467626Y-111074007D01*
X181471220Y-111071516D01*
X181488035Y-111061724D01*
X181491973Y-111059829D01*
X181570592Y-111002708D01*
X181572724Y-111001194D01*
X181652654Y-110945820D01*
X181655743Y-110942730D01*
X181670545Y-110930088D01*
X181674078Y-110927522D01*
X181741239Y-110857275D01*
X181743096Y-110855376D01*
X182533945Y-110064529D01*
X182618470Y-109980004D01*
X185544451Y-109980004D01*
X185564616Y-110249101D01*
X185580798Y-110319998D01*
X185624666Y-110512195D01*
X185723257Y-110763398D01*
X185858185Y-110997102D01*
X185978359Y-111147795D01*
X186026442Y-111208089D01*
X186184834Y-111355054D01*
X186224259Y-111391635D01*
X186447226Y-111543651D01*
X186690359Y-111660738D01*
X186948228Y-111740280D01*
X186948229Y-111740280D01*
X186948232Y-111740281D01*
X187215063Y-111780499D01*
X187215068Y-111780499D01*
X187215071Y-111780500D01*
X187215072Y-111780500D01*
X187484928Y-111780500D01*
X187484929Y-111780500D01*
X187484936Y-111780499D01*
X187751767Y-111740281D01*
X187751768Y-111740280D01*
X187751772Y-111740280D01*
X188009641Y-111660738D01*
X188252775Y-111543651D01*
X188475741Y-111391635D01*
X188662182Y-111218643D01*
X188673557Y-111208089D01*
X188673557Y-111208087D01*
X188673561Y-111208085D01*
X188841815Y-110997102D01*
X188976743Y-110763398D01*
X189075334Y-110512195D01*
X189135383Y-110249103D01*
X189150253Y-110050668D01*
X189155549Y-109980004D01*
X189155549Y-109979995D01*
X189135383Y-109710898D01*
X189129515Y-109685187D01*
X189075334Y-109447805D01*
X188976743Y-109196602D01*
X188841815Y-108962898D01*
X188673561Y-108751915D01*
X188673560Y-108751914D01*
X188673557Y-108751910D01*
X188475741Y-108568365D01*
X188432166Y-108538656D01*
X188252775Y-108416349D01*
X188252769Y-108416346D01*
X188252768Y-108416345D01*
X188252767Y-108416344D01*
X188009643Y-108299263D01*
X188009645Y-108299263D01*
X187751773Y-108219720D01*
X187751767Y-108219718D01*
X187484936Y-108179500D01*
X187484929Y-108179500D01*
X187215071Y-108179500D01*
X187215063Y-108179500D01*
X186948232Y-108219718D01*
X186948226Y-108219720D01*
X186690358Y-108299262D01*
X186447230Y-108416346D01*
X186224258Y-108568365D01*
X186026442Y-108751910D01*
X185858185Y-108962898D01*
X185723258Y-109196599D01*
X185723256Y-109196603D01*
X185624666Y-109447804D01*
X185624664Y-109447811D01*
X185564616Y-109710898D01*
X185544451Y-109979995D01*
X185544451Y-109980004D01*
X182618470Y-109980004D01*
X186503666Y-106094806D01*
X186514016Y-106085557D01*
X186541666Y-106063508D01*
X186585267Y-106013601D01*
X186590957Y-106007516D01*
X186597945Y-106000529D01*
X186624124Y-105969169D01*
X186625824Y-105967179D01*
X186689765Y-105893996D01*
X186692006Y-105890243D01*
X186703274Y-105874364D01*
X186706068Y-105871019D01*
X186754029Y-105786491D01*
X186755375Y-105784182D01*
X186771426Y-105757317D01*
X186805215Y-105700764D01*
X186806747Y-105696679D01*
X186815003Y-105679033D01*
X186817153Y-105675245D01*
X186849251Y-105583512D01*
X186850141Y-105581055D01*
X186884307Y-105490024D01*
X186885085Y-105485734D01*
X186890055Y-105466904D01*
X186891498Y-105462782D01*
X186891499Y-105462777D01*
X186906696Y-105366825D01*
X186907154Y-105364124D01*
X186919569Y-105295716D01*
X186924500Y-105268549D01*
X186924500Y-105264169D01*
X186926027Y-105244770D01*
X186926710Y-105240460D01*
X186924531Y-105143359D01*
X186924500Y-105140577D01*
X186924500Y-92994838D01*
X186924625Y-92989274D01*
X186928290Y-92907670D01*
X186917322Y-92826704D01*
X186916699Y-92821173D01*
X186909377Y-92739815D01*
X186909377Y-92739812D01*
X186904086Y-92720643D01*
X186900742Y-92704306D01*
X186898075Y-92684613D01*
X186872825Y-92606904D01*
X186871226Y-92601577D01*
X186849493Y-92522830D01*
X186849492Y-92522827D01*
X186840870Y-92504923D01*
X186834658Y-92489437D01*
X186828517Y-92470537D01*
X186828517Y-92470536D01*
X186789794Y-92398577D01*
X186787267Y-92393617D01*
X186751830Y-92320030D01*
X186751829Y-92320027D01*
X186740139Y-92303938D01*
X186731272Y-92289826D01*
X186721852Y-92272319D01*
X186670912Y-92208442D01*
X186667541Y-92204014D01*
X186619526Y-92137927D01*
X186619519Y-92137918D01*
X186605153Y-92124183D01*
X186593900Y-92111872D01*
X186581508Y-92096334D01*
X186519988Y-92042584D01*
X186515882Y-92038832D01*
X186507691Y-92031001D01*
X186456825Y-91982368D01*
X186456819Y-91982364D01*
X186456818Y-91982363D01*
X186440236Y-91971417D01*
X186426968Y-91961314D01*
X186412001Y-91948238D01*
X186411996Y-91948235D01*
X186341857Y-91906329D01*
X186337165Y-91903381D01*
X186268968Y-91858365D01*
X186250686Y-91850550D01*
X186235833Y-91842982D01*
X186218293Y-91832503D01*
X186194209Y-91813735D01*
X185270533Y-90890059D01*
X185270529Y-90890055D01*
X185141019Y-90781932D01*
X185141013Y-90781928D01*
X184945245Y-90670847D01*
X184732786Y-90596502D01*
X184732783Y-90596501D01*
X184510460Y-90561289D01*
X184285421Y-90566340D01*
X184064911Y-90611490D01*
X184064898Y-90611494D01*
X183855991Y-90695292D01*
X183665395Y-90815051D01*
X183499254Y-90966911D01*
X183362889Y-91146009D01*
X183260701Y-91346563D01*
X183195963Y-91562150D01*
X183170762Y-91785820D01*
X183170761Y-91785831D01*
X183185903Y-92010407D01*
X183185903Y-92010412D01*
X183240902Y-92228678D01*
X183240903Y-92228681D01*
X183333991Y-92433622D01*
X183333997Y-92433632D01*
X183462180Y-92618654D01*
X184387181Y-93543655D01*
X184420666Y-93604978D01*
X184423500Y-93631336D01*
X184423500Y-104586664D01*
X184403815Y-104653703D01*
X184387181Y-104674345D01*
X180366345Y-108695181D01*
X180305022Y-108728666D01*
X180278664Y-108731500D01*
X173498335Y-108731500D01*
X173431296Y-108711815D01*
X173385541Y-108659011D01*
X173375597Y-108589853D01*
X173404622Y-108526297D01*
X173410654Y-108519819D01*
X173810472Y-108120001D01*
X174565666Y-107364806D01*
X174576016Y-107355557D01*
X174603666Y-107333508D01*
X174647255Y-107283615D01*
X174652956Y-107277518D01*
X174659927Y-107270547D01*
X174659927Y-107270546D01*
X174659944Y-107270530D01*
X174686074Y-107239231D01*
X174687857Y-107237143D01*
X174751765Y-107163996D01*
X174754006Y-107160243D01*
X174765274Y-107144364D01*
X174768068Y-107141019D01*
X174816029Y-107056491D01*
X174817375Y-107054182D01*
X174822895Y-107044941D01*
X174867215Y-106970764D01*
X174868747Y-106966679D01*
X174877003Y-106949033D01*
X174879153Y-106945245D01*
X174911253Y-106853507D01*
X174912161Y-106851002D01*
X174946307Y-106760024D01*
X174947085Y-106755737D01*
X174952056Y-106736902D01*
X174953498Y-106732783D01*
X174968708Y-106636746D01*
X174969144Y-106634181D01*
X174986500Y-106538547D01*
X174986500Y-106534169D01*
X174988027Y-106514770D01*
X174988710Y-106510460D01*
X174986530Y-106413377D01*
X174986500Y-106410596D01*
X174986500Y-101612103D01*
X175006185Y-101545064D01*
X175054846Y-101501294D01*
X175238793Y-101408913D01*
X175530811Y-101216849D01*
X175798558Y-100992183D01*
X176038412Y-100737953D01*
X176247130Y-100457596D01*
X176421889Y-100154904D01*
X176560326Y-99833971D01*
X176660569Y-99499136D01*
X176660879Y-99497383D01*
X176721260Y-99154938D01*
X176721259Y-99154938D01*
X176721262Y-99154927D01*
X176740738Y-98820536D01*
X176741585Y-98806003D01*
X176741585Y-98805996D01*
X176737554Y-98736796D01*
X176721262Y-98457073D01*
X176719369Y-98446336D01*
X176660571Y-98112872D01*
X176660569Y-98112865D01*
X176657823Y-98103692D01*
X176560326Y-97778029D01*
X176421889Y-97457096D01*
X176302322Y-97250000D01*
X176247129Y-97154402D01*
X176038415Y-96874050D01*
X176038410Y-96874044D01*
X175881996Y-96708256D01*
X175798558Y-96619817D01*
X175650488Y-96495572D01*
X175530813Y-96395152D01*
X175530805Y-96395146D01*
X175238799Y-96203090D01*
X175059251Y-96112917D01*
X175008177Y-96065239D01*
X174990988Y-95997517D01*
X175013141Y-95931252D01*
X175067602Y-95887483D01*
X175073094Y-95885368D01*
X175142772Y-95860438D01*
X175498097Y-95692381D01*
X175835239Y-95490306D01*
X176150951Y-95256158D01*
X176442192Y-94992192D01*
X176706158Y-94700951D01*
X176940306Y-94385239D01*
X177050667Y-94201111D01*
X177102016Y-94153731D01*
X177170830Y-94141632D01*
X177235261Y-94168657D01*
X177244706Y-94177180D01*
X177783181Y-94715655D01*
X177816666Y-94776978D01*
X177819500Y-94803336D01*
X177819500Y-97458814D01*
X177818720Y-97472698D01*
X177814762Y-97507822D01*
X177814761Y-97507830D01*
X177819219Y-97573931D01*
X177819500Y-97582273D01*
X177819500Y-97592156D01*
X177823153Y-97632749D01*
X177823371Y-97635521D01*
X177829903Y-97732407D01*
X177829903Y-97732412D01*
X177830972Y-97736652D01*
X177834230Y-97755824D01*
X177834623Y-97760190D01*
X177860465Y-97853824D01*
X177861158Y-97856447D01*
X177875971Y-97915234D01*
X177884903Y-97950681D01*
X177886715Y-97954670D01*
X177893340Y-97972944D01*
X177894504Y-97977162D01*
X177894507Y-97977170D01*
X177936657Y-98064698D01*
X177937830Y-98067205D01*
X177949678Y-98093289D01*
X177977993Y-98155626D01*
X177977994Y-98155629D01*
X177980483Y-98159221D01*
X177990269Y-98176026D01*
X177992166Y-98179965D01*
X177992171Y-98179973D01*
X178049311Y-98258620D01*
X178050835Y-98260768D01*
X178076792Y-98298235D01*
X178106181Y-98340656D01*
X178109273Y-98343748D01*
X178121907Y-98358539D01*
X178124478Y-98362078D01*
X178124482Y-98362082D01*
X178194699Y-98429217D01*
X178196688Y-98431162D01*
X179909182Y-100143656D01*
X179918448Y-100154024D01*
X179940492Y-100181666D01*
X179990395Y-100225266D01*
X179996491Y-100230965D01*
X180003471Y-100237945D01*
X180034771Y-100264076D01*
X180036859Y-100265860D01*
X180064752Y-100290229D01*
X180110004Y-100329765D01*
X180113753Y-100332005D01*
X180129622Y-100343264D01*
X180132980Y-100346067D01*
X180132983Y-100346070D01*
X180209084Y-100389250D01*
X180213634Y-100391832D01*
X180217466Y-100394006D01*
X180219834Y-100395384D01*
X180303236Y-100445215D01*
X180307326Y-100446749D01*
X180324950Y-100454995D01*
X180328749Y-100457151D01*
X180328751Y-100457152D01*
X180328755Y-100457154D01*
X180420479Y-100489249D01*
X180423020Y-100490170D01*
X180513976Y-100524307D01*
X180518266Y-100525085D01*
X180537094Y-100530055D01*
X180541218Y-100531498D01*
X180637279Y-100546712D01*
X180639827Y-100547145D01*
X180718022Y-100561336D01*
X180735452Y-100564500D01*
X180735453Y-100564500D01*
X180739822Y-100564500D01*
X180759220Y-100566026D01*
X180763541Y-100566711D01*
X180860667Y-100564530D01*
X180863449Y-100564500D01*
X182682148Y-100564500D01*
X182682155Y-100564500D01*
X182850188Y-100549377D01*
X182850192Y-100549376D01*
X183067160Y-100489496D01*
X183067162Y-100489495D01*
X183067170Y-100489493D01*
X183269973Y-100391829D01*
X183452078Y-100259522D01*
X183607632Y-100096825D01*
X183731635Y-99908968D01*
X183733883Y-99903710D01*
X183820100Y-99701995D01*
X183820099Y-99701995D01*
X183820103Y-99701988D01*
X183870191Y-99482537D01*
X183880290Y-99257670D01*
X183850075Y-99034613D01*
X183780517Y-98820536D01*
X183772696Y-98806003D01*
X183673853Y-98622321D01*
X183673851Y-98622318D01*
X183533510Y-98446336D01*
X183513916Y-98429217D01*
X183363996Y-98298235D01*
X183170764Y-98182785D01*
X183065394Y-98143239D01*
X182960023Y-98103692D01*
X182738550Y-98063500D01*
X182738547Y-98063500D01*
X181417336Y-98063500D01*
X181350297Y-98043815D01*
X181329655Y-98027181D01*
X180356819Y-97054345D01*
X180323334Y-96993022D01*
X180320500Y-96966664D01*
X180320500Y-94311185D01*
X180321280Y-94297300D01*
X180325238Y-94262173D01*
X180325028Y-94259063D01*
X180320781Y-94196067D01*
X180320500Y-94187725D01*
X180320500Y-94177852D01*
X180320500Y-94177845D01*
X180316838Y-94137172D01*
X180316630Y-94134516D01*
X180313499Y-94088080D01*
X180310097Y-94037593D01*
X180309028Y-94033351D01*
X180305768Y-94014169D01*
X180305377Y-94009812D01*
X180279527Y-93916150D01*
X180278831Y-93913514D01*
X180255096Y-93819317D01*
X180253289Y-93815339D01*
X180246653Y-93797034D01*
X180245492Y-93792828D01*
X180203351Y-93705320D01*
X180202172Y-93702800D01*
X180162008Y-93614377D01*
X180162007Y-93614374D01*
X180159517Y-93610780D01*
X180149725Y-93593964D01*
X180147830Y-93590029D01*
X180147827Y-93590024D01*
X180090740Y-93511450D01*
X180089162Y-93509228D01*
X180033820Y-93429346D01*
X180030729Y-93426255D01*
X180018093Y-93411461D01*
X180015521Y-93407921D01*
X180015518Y-93407918D01*
X179945299Y-93340781D01*
X179943310Y-93338836D01*
X177934816Y-91330342D01*
X177925549Y-91319973D01*
X177903506Y-91292332D01*
X177853603Y-91248732D01*
X177847507Y-91243033D01*
X177840532Y-91236058D01*
X177840521Y-91236048D01*
X177809255Y-91209945D01*
X177807139Y-91208138D01*
X177734003Y-91144240D01*
X177733997Y-91144236D01*
X177733996Y-91144235D01*
X177730241Y-91141991D01*
X177714373Y-91130732D01*
X177711019Y-91127932D01*
X177711018Y-91127931D01*
X177711013Y-91127927D01*
X177626548Y-91080001D01*
X177624144Y-91078601D01*
X177540763Y-91028784D01*
X177540757Y-91028781D01*
X177536666Y-91027246D01*
X177519045Y-91019002D01*
X177515246Y-91016846D01*
X177496343Y-91010232D01*
X177439567Y-90969511D01*
X177420551Y-90934974D01*
X177310438Y-90627228D01*
X177142381Y-90271903D01*
X176940306Y-89934761D01*
X176706158Y-89619049D01*
X176660841Y-89569049D01*
X176442192Y-89327807D01*
X176150956Y-89063846D01*
X176144651Y-89059170D01*
X175835239Y-88829694D01*
X175835236Y-88829692D01*
X175498100Y-88627620D01*
X175142772Y-88459562D01*
X175142770Y-88459561D01*
X174772684Y-88327143D01*
X174391406Y-88231637D01*
X174391401Y-88231636D01*
X174391400Y-88231636D01*
X174247256Y-88210254D01*
X174002599Y-88173963D01*
X174002597Y-88173962D01*
X174002591Y-88173962D01*
X173610000Y-88154675D01*
X173217409Y-88173962D01*
X173217403Y-88173962D01*
X173217400Y-88173963D01*
X172828593Y-88231637D01*
X172447315Y-88327143D01*
X172077229Y-88459561D01*
X172077227Y-88459562D01*
X171721899Y-88627620D01*
X171384763Y-88829692D01*
X171069043Y-89063846D01*
X170777807Y-89327807D01*
X170513846Y-89619043D01*
X170279692Y-89934763D01*
X170165858Y-90124685D01*
X170114509Y-90172067D01*
X170045695Y-90184165D01*
X169981264Y-90157139D01*
X169941672Y-90099570D01*
X169935500Y-90060936D01*
X169935500Y-87590452D01*
X169955185Y-87523413D01*
X169971819Y-87502771D01*
X170241678Y-87232912D01*
X170513788Y-86960801D01*
X170526042Y-86950986D01*
X170525859Y-86950764D01*
X170531868Y-86945791D01*
X170531877Y-86945786D01*
X170577949Y-86896722D01*
X170580566Y-86894023D01*
X170600120Y-86874471D01*
X170602576Y-86871303D01*
X170610156Y-86862427D01*
X170640062Y-86830582D01*
X170649713Y-86813024D01*
X170660396Y-86796761D01*
X170672673Y-86780936D01*
X170690021Y-86740844D01*
X170695151Y-86730371D01*
X170716197Y-86692092D01*
X170721180Y-86672680D01*
X170727481Y-86654280D01*
X170735437Y-86635896D01*
X170742270Y-86592748D01*
X170744633Y-86581338D01*
X170755500Y-86539019D01*
X170755500Y-86518983D01*
X170757027Y-86499582D01*
X170758943Y-86487485D01*
X170760160Y-86479804D01*
X170756050Y-86436324D01*
X170755500Y-86424655D01*
X170755500Y-80628687D01*
X170775185Y-80561648D01*
X170787350Y-80545715D01*
X170821078Y-80508256D01*
X170862533Y-80462216D01*
X170957179Y-80298284D01*
X171015674Y-80118256D01*
X171035460Y-79930000D01*
X171015674Y-79741744D01*
X170957179Y-79561716D01*
X170862533Y-79397784D01*
X170735871Y-79257112D01*
X170735870Y-79257111D01*
X170582734Y-79145851D01*
X170582729Y-79145848D01*
X170409807Y-79068857D01*
X170409802Y-79068855D01*
X170264001Y-79037865D01*
X170224646Y-79029500D01*
X170035354Y-79029500D01*
X170002897Y-79036398D01*
X169850197Y-79068855D01*
X169850192Y-79068857D01*
X169677271Y-79145848D01*
X169604427Y-79198772D01*
X169538620Y-79222251D01*
X169470566Y-79206425D01*
X169421872Y-79156319D01*
X169412896Y-79133167D01*
X169412587Y-79133262D01*
X169274974Y-78683909D01*
X169274972Y-78683904D01*
X169100737Y-78250304D01*
X169100733Y-78250293D01*
X168890354Y-77833032D01*
X168890343Y-77833012D01*
X168645328Y-77435081D01*
X168367446Y-77059359D01*
X168367442Y-77059354D01*
X168367436Y-77059346D01*
X168058702Y-76708559D01*
X168058689Y-76708546D01*
X167721322Y-76385205D01*
X167533541Y-76233583D01*
X167357730Y-76091625D01*
X166970553Y-75829940D01*
X166934155Y-75809607D01*
X166562588Y-75602036D01*
X166562566Y-75602025D01*
X166136753Y-75409545D01*
X165917190Y-75331968D01*
X165860538Y-75291074D01*
X165834988Y-75226043D01*
X165834500Y-75215051D01*
X165834500Y-74947336D01*
X165854185Y-74880297D01*
X165906989Y-74834542D01*
X165917195Y-74830418D01*
X165922747Y-74828457D01*
X165922750Y-74828455D01*
X165922752Y-74828455D01*
X166348566Y-74635974D01*
X166348568Y-74635972D01*
X166348579Y-74635968D01*
X166756553Y-74408060D01*
X167143730Y-74146375D01*
X167507319Y-73852797D01*
X167844701Y-73529442D01*
X168060588Y-73284148D01*
X168153436Y-73178653D01*
X168153442Y-73178645D01*
X168153446Y-73178641D01*
X168431328Y-72802919D01*
X168676345Y-72404985D01*
X168886733Y-71987706D01*
X169060975Y-71554088D01*
X169197816Y-71107255D01*
X169296270Y-70650427D01*
X169355628Y-70186896D01*
X169370118Y-69845800D01*
X169375461Y-69720006D01*
X169375461Y-69719993D01*
X169355629Y-69253117D01*
X169355628Y-69253111D01*
X169355628Y-69253104D01*
X169296270Y-68789573D01*
X169197816Y-68332745D01*
X169060975Y-67885912D01*
X168886733Y-67452294D01*
X168886733Y-67452293D01*
X168676354Y-67035032D01*
X168676343Y-67035012D01*
X168431328Y-66637081D01*
X168153446Y-66261359D01*
X168153442Y-66261354D01*
X168153436Y-66261346D01*
X167844702Y-65910559D01*
X167844689Y-65910546D01*
X167507322Y-65587205D01*
X167353358Y-65462888D01*
X167143730Y-65293625D01*
X166756553Y-65031940D01*
X166660460Y-64978259D01*
X166348588Y-64804036D01*
X166348566Y-64804025D01*
X165922752Y-64611544D01*
X165922746Y-64611542D01*
X165653515Y-64516417D01*
X165596862Y-64475523D01*
X165571312Y-64410493D01*
X165584976Y-64341972D01*
X165633516Y-64291716D01*
X165694824Y-64275500D01*
X168677257Y-64275500D01*
X168692877Y-64277224D01*
X168692904Y-64276939D01*
X168700660Y-64277671D01*
X168700667Y-64277673D01*
X168767873Y-64275561D01*
X168771768Y-64275500D01*
X168799346Y-64275500D01*
X168799350Y-64275500D01*
X168803324Y-64274997D01*
X168814963Y-64274080D01*
X168858627Y-64272709D01*
X168877869Y-64267117D01*
X168896912Y-64263174D01*
X168916792Y-64260664D01*
X168957401Y-64244585D01*
X168968444Y-64240803D01*
X169010390Y-64228618D01*
X169027629Y-64218422D01*
X169045103Y-64209862D01*
X169063727Y-64202488D01*
X169063727Y-64202487D01*
X169063732Y-64202486D01*
X169099083Y-64176800D01*
X169108814Y-64170408D01*
X169146420Y-64148170D01*
X169160589Y-64133999D01*
X169175379Y-64121368D01*
X169191587Y-64109594D01*
X169219438Y-64075926D01*
X169227279Y-64067309D01*
X169810196Y-63484392D01*
X169828179Y-63469516D01*
X169834938Y-63464924D01*
X169871639Y-63423292D01*
X169876928Y-63417661D01*
X169888120Y-63406470D01*
X169897811Y-63393975D01*
X169902749Y-63388005D01*
X169939450Y-63346378D01*
X169943157Y-63339101D01*
X169955663Y-63319395D01*
X169960674Y-63312936D01*
X169982703Y-63262028D01*
X169986013Y-63254992D01*
X170011198Y-63205565D01*
X170012980Y-63197593D01*
X170020192Y-63175395D01*
X170023438Y-63167895D01*
X170032120Y-63113073D01*
X170033567Y-63105487D01*
X170045673Y-63051333D01*
X170045416Y-63043163D01*
X170046883Y-63019866D01*
X170048160Y-63011804D01*
X170042938Y-62956569D01*
X170042450Y-62948805D01*
X170040709Y-62893373D01*
X170040708Y-62893369D01*
X170040602Y-62889993D01*
X170039500Y-62875980D01*
X170039500Y-61642537D01*
X170059185Y-61575498D01*
X170111989Y-61529743D01*
X170181147Y-61519799D01*
X170198095Y-61523461D01*
X170198796Y-61523665D01*
X170234819Y-61526500D01*
X170633180Y-61526499D01*
X170669204Y-61523665D01*
X170823393Y-61478869D01*
X170961598Y-61397135D01*
X170961603Y-61397130D01*
X170990915Y-61367819D01*
X171052238Y-61334334D01*
X171078596Y-61331500D01*
X177209257Y-61331500D01*
X177224877Y-61333224D01*
X177224904Y-61332939D01*
X177232660Y-61333671D01*
X177232667Y-61333673D01*
X177299873Y-61331561D01*
X177303768Y-61331500D01*
X177331346Y-61331500D01*
X177331350Y-61331500D01*
X177335324Y-61330997D01*
X177346963Y-61330080D01*
X177390627Y-61328709D01*
X177409869Y-61323117D01*
X177428912Y-61319174D01*
X177448792Y-61316664D01*
X177489401Y-61300585D01*
X177500444Y-61296803D01*
X177542390Y-61284618D01*
X177559629Y-61274422D01*
X177577103Y-61265862D01*
X177595727Y-61258488D01*
X177595727Y-61258487D01*
X177595732Y-61258486D01*
X177631083Y-61232800D01*
X177640814Y-61226408D01*
X177678420Y-61204170D01*
X177692586Y-61190003D01*
X177707381Y-61177368D01*
X177723584Y-61165596D01*
X177723583Y-61165596D01*
X177723587Y-61165594D01*
X177751437Y-61131928D01*
X177759279Y-61123310D01*
X177994785Y-60887803D01*
X178007046Y-60877983D01*
X178006862Y-60877761D01*
X178012871Y-60872789D01*
X178012877Y-60872786D01*
X178058904Y-60823771D01*
X178061583Y-60821006D01*
X178081120Y-60801471D01*
X178083576Y-60798303D01*
X178091156Y-60789427D01*
X178121062Y-60757582D01*
X178130713Y-60740024D01*
X178141396Y-60723761D01*
X178153673Y-60707936D01*
X178171021Y-60667844D01*
X178176151Y-60657371D01*
X178197197Y-60619092D01*
X178202180Y-60599680D01*
X178208481Y-60581280D01*
X178216437Y-60562896D01*
X178223270Y-60519748D01*
X178225633Y-60508338D01*
X178236500Y-60466019D01*
X178236500Y-60445983D01*
X178238027Y-60426582D01*
X178241160Y-60406804D01*
X178237050Y-60363324D01*
X178236500Y-60351655D01*
X178236500Y-57758976D01*
X178256185Y-57691937D01*
X178308989Y-57646182D01*
X178336135Y-57638736D01*
X178335932Y-57637876D01*
X178343479Y-57636092D01*
X178343481Y-57636091D01*
X178343483Y-57636091D01*
X178478331Y-57585796D01*
X178593546Y-57499546D01*
X178679796Y-57384331D01*
X178730091Y-57249483D01*
X178736500Y-57189873D01*
X178736500Y-56960005D01*
X184564556Y-56960005D01*
X184584310Y-57274004D01*
X184584311Y-57274011D01*
X184584312Y-57274015D01*
X184629328Y-57510000D01*
X184643270Y-57583083D01*
X184740497Y-57882316D01*
X184740499Y-57882321D01*
X184874461Y-58167003D01*
X184874464Y-58167009D01*
X185043051Y-58432661D01*
X185043054Y-58432665D01*
X185243606Y-58675090D01*
X185243608Y-58675092D01*
X185243610Y-58675094D01*
X185399161Y-58821166D01*
X185472968Y-58890476D01*
X185472978Y-58890484D01*
X185727504Y-59075408D01*
X185727509Y-59075410D01*
X185727516Y-59075416D01*
X186003234Y-59226994D01*
X186003239Y-59226996D01*
X186003241Y-59226997D01*
X186003242Y-59226998D01*
X186295771Y-59342818D01*
X186295774Y-59342819D01*
X186590194Y-59418413D01*
X186600527Y-59421066D01*
X186666010Y-59429338D01*
X186912670Y-59460499D01*
X186912679Y-59460499D01*
X186912682Y-59460500D01*
X186912684Y-59460500D01*
X187227316Y-59460500D01*
X187227318Y-59460500D01*
X187227321Y-59460499D01*
X187227329Y-59460499D01*
X187448836Y-59432516D01*
X187539473Y-59421066D01*
X187844225Y-59342819D01*
X187844228Y-59342818D01*
X188136757Y-59226998D01*
X188136758Y-59226997D01*
X188136756Y-59226997D01*
X188136766Y-59226994D01*
X188412484Y-59075416D01*
X188667030Y-58890478D01*
X188896390Y-58675094D01*
X189096947Y-58432663D01*
X189265537Y-58167007D01*
X189399503Y-57882315D01*
X189496731Y-57583079D01*
X189555688Y-57274015D01*
X189555689Y-57274004D01*
X189575444Y-56960005D01*
X189575444Y-56959994D01*
X189555689Y-56645995D01*
X189555688Y-56645988D01*
X189555688Y-56645985D01*
X189496731Y-56336921D01*
X189399503Y-56037685D01*
X189398012Y-56034517D01*
X189334558Y-55899671D01*
X189265537Y-55752993D01*
X189163477Y-55592172D01*
X189096948Y-55487338D01*
X189096945Y-55487334D01*
X188896393Y-55244909D01*
X188896391Y-55244907D01*
X188856406Y-55207358D01*
X188667030Y-55029522D01*
X188667027Y-55029520D01*
X188667021Y-55029515D01*
X188412495Y-54844591D01*
X188412488Y-54844586D01*
X188412484Y-54844584D01*
X188136766Y-54693006D01*
X188136763Y-54693004D01*
X188136758Y-54693002D01*
X188136757Y-54693001D01*
X187844228Y-54577181D01*
X187844225Y-54577180D01*
X187539476Y-54498934D01*
X187539463Y-54498932D01*
X187227329Y-54459500D01*
X187227318Y-54459500D01*
X186912682Y-54459500D01*
X186912670Y-54459500D01*
X186600536Y-54498932D01*
X186600523Y-54498934D01*
X186295774Y-54577180D01*
X186295771Y-54577181D01*
X186003242Y-54693001D01*
X186003241Y-54693002D01*
X185727516Y-54844584D01*
X185727504Y-54844591D01*
X185472978Y-55029515D01*
X185472968Y-55029523D01*
X185243608Y-55244907D01*
X185243606Y-55244909D01*
X185043054Y-55487334D01*
X185043051Y-55487338D01*
X184874464Y-55752990D01*
X184874461Y-55752996D01*
X184740499Y-56037678D01*
X184740497Y-56037683D01*
X184643270Y-56336916D01*
X184584311Y-56645988D01*
X184584310Y-56645995D01*
X184564556Y-56959994D01*
X184564556Y-56960005D01*
X178736500Y-56960005D01*
X178736499Y-56094128D01*
X178730091Y-56034517D01*
X178723305Y-56016324D01*
X178679797Y-55899671D01*
X178679793Y-55899664D01*
X178593547Y-55784455D01*
X178593544Y-55784452D01*
X178478335Y-55698206D01*
X178478328Y-55698202D01*
X178343482Y-55647908D01*
X178343483Y-55647908D01*
X178283883Y-55641501D01*
X178283881Y-55641500D01*
X178283873Y-55641500D01*
X178283864Y-55641500D01*
X176938129Y-55641500D01*
X176938123Y-55641501D01*
X176878516Y-55647908D01*
X176743671Y-55698202D01*
X176743664Y-55698206D01*
X176628455Y-55784452D01*
X176628452Y-55784455D01*
X176542206Y-55899664D01*
X176542202Y-55899671D01*
X176491908Y-56034517D01*
X176486027Y-56089225D01*
X176485501Y-56094123D01*
X176485500Y-56094135D01*
X176485500Y-57189870D01*
X176485501Y-57189876D01*
X176491908Y-57249483D01*
X176542202Y-57384328D01*
X176542206Y-57384335D01*
X176628452Y-57499544D01*
X176628455Y-57499547D01*
X176743664Y-57585793D01*
X176743671Y-57585797D01*
X176878517Y-57636091D01*
X176886062Y-57637874D01*
X176885523Y-57640151D01*
X176939287Y-57662408D01*
X176979147Y-57719793D01*
X176985500Y-57758975D01*
X176985500Y-59956500D01*
X176965815Y-60023539D01*
X176913011Y-60069294D01*
X176861500Y-60080500D01*
X171078596Y-60080500D01*
X171011557Y-60060815D01*
X170990915Y-60044181D01*
X170961603Y-60014869D01*
X170961595Y-60014863D01*
X170823393Y-59933131D01*
X170823388Y-59933129D01*
X170669208Y-59888335D01*
X170669202Y-59888334D01*
X170633181Y-59885500D01*
X170234830Y-59885500D01*
X170234808Y-59885501D01*
X170198794Y-59888335D01*
X170044611Y-59933129D01*
X170044604Y-59933132D01*
X169987119Y-59967128D01*
X169919395Y-59984309D01*
X169860881Y-59967128D01*
X169803395Y-59933132D01*
X169803388Y-59933129D01*
X169649208Y-59888335D01*
X169649202Y-59888334D01*
X169613181Y-59885500D01*
X169214830Y-59885500D01*
X169214808Y-59885501D01*
X169178794Y-59888335D01*
X169024611Y-59933129D01*
X169024606Y-59933131D01*
X168886404Y-60014863D01*
X168886396Y-60014869D01*
X168772869Y-60128396D01*
X168772863Y-60128404D01*
X168691131Y-60266606D01*
X168691129Y-60266611D01*
X168646335Y-60420791D01*
X168646334Y-60420797D01*
X168643500Y-60456811D01*
X168643500Y-60955169D01*
X168643501Y-60955191D01*
X168646335Y-60991205D01*
X168691129Y-61145388D01*
X168691131Y-61145393D01*
X168771232Y-61280837D01*
X168788500Y-61343958D01*
X168788500Y-62685547D01*
X168768815Y-62752586D01*
X168752181Y-62773228D01*
X168537228Y-62988181D01*
X168475905Y-63021666D01*
X168449547Y-63024500D01*
X165716427Y-63024500D01*
X165649388Y-63004815D01*
X165603633Y-62952011D01*
X165593106Y-62887539D01*
X165605460Y-62770000D01*
X165585674Y-62581744D01*
X165585672Y-62581740D01*
X165585223Y-62577460D01*
X165597792Y-62508731D01*
X165645525Y-62457707D01*
X165708541Y-62440499D01*
X166377872Y-62440499D01*
X166437483Y-62434091D01*
X166572331Y-62383796D01*
X166687546Y-62297546D01*
X166773796Y-62182331D01*
X166824091Y-62047483D01*
X166830500Y-61987873D01*
X166830499Y-59492128D01*
X166824091Y-59432517D01*
X166819820Y-59421067D01*
X166773797Y-59297671D01*
X166773793Y-59297664D01*
X166687548Y-59182457D01*
X166687546Y-59182454D01*
X166687542Y-59182451D01*
X166687539Y-59182448D01*
X166615229Y-59128316D01*
X166573358Y-59072382D01*
X166570463Y-59063644D01*
X166567120Y-59052137D01*
X166563174Y-59033081D01*
X166560664Y-59013208D01*
X166560663Y-59013205D01*
X166544583Y-58972592D01*
X166540799Y-58961539D01*
X166528618Y-58919615D01*
X166528617Y-58919610D01*
X166518420Y-58902368D01*
X166509863Y-58884902D01*
X166502486Y-58866268D01*
X166476809Y-58830926D01*
X166470412Y-58821190D01*
X166448170Y-58783579D01*
X166448167Y-58783576D01*
X166448165Y-58783573D01*
X166434005Y-58769413D01*
X166421370Y-58754620D01*
X166409592Y-58738410D01*
X166404251Y-58732722D01*
X166406060Y-58731023D01*
X166373787Y-58683257D01*
X166372180Y-58613406D01*
X166408592Y-58553774D01*
X166448596Y-58529413D01*
X166572086Y-58483354D01*
X166572093Y-58483350D01*
X166687187Y-58397190D01*
X166687190Y-58397187D01*
X166773350Y-58282093D01*
X166773354Y-58282086D01*
X166823596Y-58147379D01*
X166823598Y-58147372D01*
X166829999Y-58087844D01*
X166830000Y-58087827D01*
X166830000Y-57090000D01*
X165834000Y-57090000D01*
X165766961Y-57070315D01*
X165721206Y-57017511D01*
X165710000Y-56966000D01*
X165710000Y-56892000D01*
X168736000Y-56892000D01*
X168736000Y-57189844D01*
X168742401Y-57249372D01*
X168742403Y-57249379D01*
X168792645Y-57384086D01*
X168792649Y-57384093D01*
X168878809Y-57499187D01*
X168878812Y-57499190D01*
X168993906Y-57585350D01*
X168993913Y-57585354D01*
X169128620Y-57635596D01*
X169128627Y-57635598D01*
X169188155Y-57641999D01*
X169188172Y-57642000D01*
X169611000Y-57642000D01*
X169611000Y-56892000D01*
X170111000Y-56892000D01*
X170111000Y-57642000D01*
X170533828Y-57642000D01*
X170533844Y-57641999D01*
X170593372Y-57635598D01*
X170593379Y-57635596D01*
X170728086Y-57585354D01*
X170728093Y-57585350D01*
X170843187Y-57499190D01*
X170843190Y-57499187D01*
X170929350Y-57384093D01*
X170929354Y-57384086D01*
X170979596Y-57249379D01*
X170979598Y-57249372D01*
X170985999Y-57189844D01*
X170986000Y-57189827D01*
X170986000Y-56892000D01*
X170111000Y-56892000D01*
X169611000Y-56892000D01*
X168736000Y-56892000D01*
X165710000Y-56892000D01*
X165710000Y-55140000D01*
X166210000Y-55140000D01*
X166210000Y-56590000D01*
X166830000Y-56590000D01*
X166830000Y-56392000D01*
X168736000Y-56392000D01*
X169611000Y-56392000D01*
X169611000Y-55642000D01*
X170111000Y-55642000D01*
X170111000Y-56392000D01*
X170986000Y-56392000D01*
X170986000Y-56094172D01*
X170985999Y-56094155D01*
X170979598Y-56034627D01*
X170979596Y-56034620D01*
X170929354Y-55899913D01*
X170929350Y-55899906D01*
X170843190Y-55784812D01*
X170843187Y-55784809D01*
X170728093Y-55698649D01*
X170728086Y-55698645D01*
X170593379Y-55648403D01*
X170593372Y-55648401D01*
X170533844Y-55642000D01*
X170111000Y-55642000D01*
X169611000Y-55642000D01*
X169188155Y-55642000D01*
X169128627Y-55648401D01*
X169128620Y-55648403D01*
X168993913Y-55698645D01*
X168993906Y-55698649D01*
X168878812Y-55784809D01*
X168878809Y-55784812D01*
X168792649Y-55899906D01*
X168792645Y-55899913D01*
X168742403Y-56034620D01*
X168742401Y-56034627D01*
X168736000Y-56094155D01*
X168736000Y-56392000D01*
X166830000Y-56392000D01*
X166830000Y-55592172D01*
X166829999Y-55592155D01*
X166823598Y-55532627D01*
X166823596Y-55532620D01*
X166773354Y-55397913D01*
X166773350Y-55397906D01*
X166687190Y-55282812D01*
X166687187Y-55282809D01*
X166572093Y-55196649D01*
X166572086Y-55196645D01*
X166437379Y-55146403D01*
X166437372Y-55146401D01*
X166377844Y-55140000D01*
X166210000Y-55140000D01*
X165710000Y-55140000D01*
X165542155Y-55140000D01*
X165482627Y-55146401D01*
X165475070Y-55148187D01*
X165474766Y-55146902D01*
X165413129Y-55151304D01*
X165351809Y-55117813D01*
X165318331Y-55056486D01*
X165315500Y-55030141D01*
X165315500Y-55002737D01*
X165317224Y-54987123D01*
X165316938Y-54987096D01*
X165317672Y-54979333D01*
X165315561Y-54912144D01*
X165315500Y-54908250D01*
X165315500Y-54880651D01*
X165315500Y-54880650D01*
X165314997Y-54876670D01*
X165314080Y-54865021D01*
X165313438Y-54844584D01*
X165312709Y-54821373D01*
X165307122Y-54802144D01*
X165303174Y-54783084D01*
X165300664Y-54763208D01*
X165284585Y-54722597D01*
X165280804Y-54711552D01*
X165268619Y-54669612D01*
X165267065Y-54666985D01*
X165258418Y-54652363D01*
X165249860Y-54634894D01*
X165242486Y-54616268D01*
X165242483Y-54616264D01*
X165242483Y-54616263D01*
X165216816Y-54580935D01*
X165210403Y-54571172D01*
X165188172Y-54533583D01*
X165188170Y-54533579D01*
X165188166Y-54533575D01*
X165188163Y-54533571D01*
X165174005Y-54519413D01*
X165161370Y-54504620D01*
X165149593Y-54488412D01*
X165115945Y-54460576D01*
X165107304Y-54452713D01*
X164256272Y-53601681D01*
X164222787Y-53540358D01*
X164227771Y-53470666D01*
X164269643Y-53414733D01*
X164335107Y-53390316D01*
X164343953Y-53390000D01*
X190325970Y-53390000D01*
X190393009Y-53409685D01*
G37*
%TD.AperFunction*%
%TA.AperFunction,Conductor*%
G36*
X159834703Y-84017151D02*
G01*
X159846583Y-84028940D01*
X160109297Y-84327440D01*
X160109310Y-84327453D01*
X160446677Y-84650794D01*
X160446681Y-84650797D01*
X160810270Y-84944375D01*
X161197447Y-85206060D01*
X161324654Y-85277122D01*
X161605411Y-85433963D01*
X161605433Y-85433974D01*
X162031247Y-85626455D01*
X162031252Y-85626457D01*
X162125897Y-85659897D01*
X162471876Y-85782139D01*
X162924113Y-85899892D01*
X163384708Y-85978869D01*
X163528850Y-85991137D01*
X163850323Y-86018499D01*
X163850340Y-86018499D01*
X163850342Y-86018500D01*
X163850343Y-86018500D01*
X164317657Y-86018500D01*
X164317658Y-86018500D01*
X164317659Y-86018499D01*
X164317676Y-86018499D01*
X164594812Y-85994910D01*
X164783292Y-85978869D01*
X165243887Y-85899892D01*
X165696124Y-85782139D01*
X166136747Y-85626457D01*
X166136752Y-85626455D01*
X166562566Y-85433974D01*
X166562568Y-85433972D01*
X166562579Y-85433968D01*
X166970553Y-85206060D01*
X167357730Y-84944375D01*
X167721319Y-84650797D01*
X168056804Y-84329259D01*
X168118822Y-84297085D01*
X168188393Y-84303547D01*
X168243425Y-84346596D01*
X168266447Y-84412564D01*
X168265923Y-84431744D01*
X168258540Y-84502000D01*
X168278326Y-84690256D01*
X168278327Y-84690259D01*
X168336818Y-84870277D01*
X168336821Y-84870284D01*
X168431467Y-85034216D01*
X168466464Y-85073084D01*
X168506650Y-85117715D01*
X168536880Y-85180706D01*
X168538500Y-85200687D01*
X168538500Y-85287546D01*
X168518815Y-85354585D01*
X168502181Y-85375227D01*
X167256208Y-86621199D01*
X167243951Y-86631020D01*
X167244134Y-86631241D01*
X167238122Y-86636214D01*
X167192098Y-86685223D01*
X167189391Y-86688016D01*
X167169889Y-86707517D01*
X167169875Y-86707534D01*
X167167407Y-86710715D01*
X167159843Y-86719570D01*
X167129937Y-86751418D01*
X167129936Y-86751420D01*
X167120284Y-86768976D01*
X167109610Y-86785226D01*
X167097329Y-86801061D01*
X167097324Y-86801068D01*
X167079975Y-86841158D01*
X167074838Y-86851644D01*
X167053803Y-86889906D01*
X167048822Y-86909307D01*
X167042521Y-86927710D01*
X167034562Y-86946102D01*
X167034561Y-86946105D01*
X167027728Y-86989243D01*
X167025360Y-87000674D01*
X167014501Y-87042971D01*
X167014500Y-87042982D01*
X167014500Y-87063016D01*
X167012973Y-87082415D01*
X167009840Y-87102194D01*
X167009840Y-87102195D01*
X167013950Y-87145674D01*
X167014500Y-87157343D01*
X167014500Y-87185312D01*
X166994815Y-87252351D01*
X166982650Y-87268284D01*
X166907466Y-87351784D01*
X166812821Y-87515715D01*
X166812818Y-87515722D01*
X166754327Y-87695740D01*
X166754326Y-87695744D01*
X166734540Y-87884000D01*
X166754326Y-88072256D01*
X166754327Y-88072259D01*
X166812818Y-88252277D01*
X166812821Y-88252284D01*
X166907467Y-88416216D01*
X166965899Y-88481111D01*
X167034129Y-88556888D01*
X167187265Y-88668148D01*
X167187270Y-88668151D01*
X167360192Y-88745142D01*
X167360197Y-88745144D01*
X167545354Y-88784500D01*
X167545355Y-88784500D01*
X167734644Y-88784500D01*
X167734646Y-88784500D01*
X167919803Y-88745144D01*
X168092730Y-88668151D01*
X168245871Y-88556888D01*
X168372533Y-88416216D01*
X168453114Y-88276644D01*
X168503679Y-88228431D01*
X168572286Y-88215207D01*
X168637151Y-88241175D01*
X168677680Y-88298089D01*
X168684500Y-88338646D01*
X168684500Y-104657255D01*
X168682775Y-104672872D01*
X168683061Y-104672899D01*
X168682326Y-104680665D01*
X168684439Y-104747872D01*
X168684500Y-104751767D01*
X168684500Y-104779357D01*
X168685003Y-104783335D01*
X168685918Y-104794967D01*
X168687290Y-104838624D01*
X168687291Y-104838627D01*
X168692880Y-104857867D01*
X168696824Y-104876911D01*
X168697196Y-104879848D01*
X168699336Y-104896792D01*
X168715414Y-104937403D01*
X168719197Y-104948452D01*
X168731382Y-104990390D01*
X168731808Y-104991111D01*
X168741580Y-105007634D01*
X168750138Y-105025103D01*
X168757514Y-105043732D01*
X168783181Y-105079060D01*
X168789593Y-105088821D01*
X168811828Y-105126417D01*
X168811833Y-105126424D01*
X168825990Y-105140580D01*
X168838628Y-105155376D01*
X168850405Y-105171586D01*
X168850406Y-105171587D01*
X168884057Y-105199425D01*
X168892698Y-105207288D01*
X169251038Y-105565629D01*
X169284523Y-105626952D01*
X169286678Y-105640348D01*
X169292600Y-105696685D01*
X169304326Y-105808256D01*
X169304327Y-105808259D01*
X169362818Y-105988277D01*
X169362821Y-105988284D01*
X169457467Y-106152216D01*
X169535183Y-106238528D01*
X169565413Y-106301519D01*
X169556788Y-106370854D01*
X169512047Y-106424520D01*
X169445394Y-106445478D01*
X169443033Y-106445500D01*
X167501809Y-106445500D01*
X167434770Y-106425815D01*
X167414128Y-106409181D01*
X167402819Y-106397872D01*
X167369334Y-106336549D01*
X167366500Y-106310191D01*
X167366500Y-106249185D01*
X167367280Y-106235300D01*
X167371238Y-106200173D01*
X167366780Y-106134066D01*
X167366500Y-106125725D01*
X167366500Y-106115852D01*
X167366500Y-106115845D01*
X167362838Y-106075172D01*
X167362630Y-106072516D01*
X167358660Y-106013619D01*
X167356097Y-105975593D01*
X167355028Y-105971351D01*
X167351768Y-105952169D01*
X167351377Y-105947812D01*
X167325527Y-105854150D01*
X167324831Y-105851514D01*
X167308471Y-105786587D01*
X167301096Y-105757317D01*
X167299289Y-105753339D01*
X167292653Y-105735034D01*
X167291493Y-105730831D01*
X167291493Y-105730830D01*
X167249298Y-105643211D01*
X167248200Y-105640864D01*
X167208007Y-105552375D01*
X167205518Y-105548782D01*
X167195728Y-105531970D01*
X167193829Y-105528027D01*
X167193827Y-105528024D01*
X167193825Y-105528020D01*
X167193824Y-105528019D01*
X167136740Y-105449451D01*
X167135128Y-105447180D01*
X167124434Y-105431744D01*
X167079820Y-105367346D01*
X167076729Y-105364255D01*
X167064093Y-105349461D01*
X167061521Y-105345921D01*
X167061518Y-105345918D01*
X166991299Y-105278781D01*
X166989310Y-105276836D01*
X166292816Y-104580342D01*
X166283549Y-104569973D01*
X166261506Y-104542332D01*
X166211603Y-104498732D01*
X166205507Y-104493033D01*
X166198532Y-104486058D01*
X166198521Y-104486048D01*
X166167255Y-104459945D01*
X166165139Y-104458138D01*
X166092003Y-104394240D01*
X166091997Y-104394236D01*
X166091996Y-104394235D01*
X166088241Y-104391991D01*
X166072373Y-104380732D01*
X166069019Y-104377932D01*
X166069018Y-104377931D01*
X166069013Y-104377927D01*
X165984548Y-104330001D01*
X165982144Y-104328601D01*
X165898763Y-104278784D01*
X165894669Y-104277248D01*
X165877044Y-104269002D01*
X165873245Y-104266846D01*
X165781569Y-104234767D01*
X165778953Y-104233819D01*
X165688029Y-104199694D01*
X165688019Y-104199691D01*
X165683723Y-104198912D01*
X165664918Y-104193949D01*
X165660784Y-104192502D01*
X165660777Y-104192501D01*
X165564848Y-104177307D01*
X165562105Y-104176841D01*
X165466550Y-104159500D01*
X165466547Y-104159500D01*
X165462172Y-104159500D01*
X165442769Y-104157972D01*
X165438460Y-104157289D01*
X165341359Y-104159469D01*
X165338577Y-104159500D01*
X157628451Y-104159500D01*
X157561412Y-104139815D01*
X157515657Y-104087011D01*
X157505713Y-104017853D01*
X157534738Y-103954297D01*
X157540751Y-103947837D01*
X157609789Y-103878799D01*
X157622041Y-103868987D01*
X157621858Y-103868765D01*
X157627870Y-103863790D01*
X157627877Y-103863786D01*
X157673949Y-103814722D01*
X157676566Y-103812023D01*
X157696120Y-103792471D01*
X157698576Y-103789303D01*
X157706156Y-103780427D01*
X157736062Y-103748582D01*
X157745713Y-103731024D01*
X157756396Y-103714761D01*
X157768673Y-103698936D01*
X157786021Y-103658844D01*
X157791151Y-103648371D01*
X157812197Y-103610092D01*
X157817180Y-103590680D01*
X157823481Y-103572280D01*
X157831437Y-103553896D01*
X157838270Y-103510748D01*
X157840633Y-103499338D01*
X157851500Y-103457019D01*
X157851500Y-103436983D01*
X157853027Y-103417582D01*
X157856160Y-103397804D01*
X157852049Y-103354327D01*
X157851500Y-103342658D01*
X157851500Y-100894453D01*
X157871185Y-100827414D01*
X157887819Y-100806771D01*
X157956773Y-100737818D01*
X158018097Y-100704334D01*
X158044454Y-100701500D01*
X160953257Y-100701500D01*
X160968877Y-100703224D01*
X160968904Y-100702939D01*
X160976660Y-100703671D01*
X160976667Y-100703673D01*
X161043873Y-100701561D01*
X161047768Y-100701500D01*
X161079248Y-100701500D01*
X161079248Y-100701868D01*
X161108329Y-100704002D01*
X161195354Y-100722500D01*
X161384644Y-100722500D01*
X161384646Y-100722500D01*
X161569803Y-100683144D01*
X161742730Y-100606151D01*
X161773218Y-100584000D01*
X162670540Y-100584000D01*
X162690326Y-100772256D01*
X162690327Y-100772259D01*
X162748818Y-100952277D01*
X162748821Y-100952284D01*
X162843467Y-101116216D01*
X162891180Y-101169206D01*
X162970129Y-101256888D01*
X163123265Y-101368148D01*
X163123270Y-101368151D01*
X163296191Y-101445142D01*
X163296193Y-101445142D01*
X163296197Y-101445144D01*
X163424547Y-101472425D01*
X163486025Y-101505616D01*
X163519802Y-101566778D01*
X163515150Y-101636493D01*
X163481742Y-101685858D01*
X163478130Y-101689109D01*
X163351466Y-101829785D01*
X163256821Y-101993715D01*
X163256818Y-101993722D01*
X163198327Y-102173740D01*
X163198326Y-102173744D01*
X163178540Y-102362000D01*
X163198326Y-102550256D01*
X163198327Y-102550259D01*
X163256818Y-102730277D01*
X163256821Y-102730284D01*
X163351467Y-102894216D01*
X163452753Y-103006705D01*
X163478129Y-103034888D01*
X163631265Y-103146148D01*
X163631270Y-103146151D01*
X163804192Y-103223142D01*
X163804197Y-103223144D01*
X163989354Y-103262500D01*
X163989355Y-103262500D01*
X164178644Y-103262500D01*
X164178646Y-103262500D01*
X164363803Y-103223144D01*
X164536730Y-103146151D01*
X164689871Y-103034888D01*
X164692788Y-103031647D01*
X164695600Y-103028526D01*
X164755087Y-102991879D01*
X164787748Y-102987500D01*
X165271257Y-102987500D01*
X165286877Y-102989224D01*
X165286904Y-102988939D01*
X165294660Y-102989671D01*
X165294667Y-102989673D01*
X165361873Y-102987561D01*
X165365768Y-102987500D01*
X165393346Y-102987500D01*
X165393350Y-102987500D01*
X165397324Y-102986997D01*
X165408963Y-102986080D01*
X165452627Y-102984709D01*
X165471869Y-102979117D01*
X165490912Y-102975174D01*
X165510792Y-102972664D01*
X165551401Y-102956585D01*
X165562444Y-102952803D01*
X165604390Y-102940618D01*
X165621629Y-102930422D01*
X165639103Y-102921862D01*
X165657727Y-102914488D01*
X165657727Y-102914487D01*
X165657732Y-102914486D01*
X165693083Y-102888800D01*
X165702814Y-102882408D01*
X165740420Y-102860170D01*
X165754589Y-102845999D01*
X165769379Y-102833368D01*
X165785587Y-102821594D01*
X165813438Y-102787926D01*
X165821279Y-102779309D01*
X166245785Y-102354803D01*
X166258041Y-102344987D01*
X166257858Y-102344765D01*
X166263870Y-102339790D01*
X166263877Y-102339786D01*
X166309949Y-102290722D01*
X166312566Y-102288023D01*
X166332120Y-102268471D01*
X166334576Y-102265303D01*
X166342156Y-102256427D01*
X166372062Y-102224582D01*
X166381713Y-102207024D01*
X166392396Y-102190761D01*
X166404673Y-102174936D01*
X166422021Y-102134844D01*
X166427151Y-102124371D01*
X166448197Y-102086092D01*
X166453180Y-102066680D01*
X166459481Y-102048280D01*
X166467437Y-102029896D01*
X166474270Y-101986748D01*
X166476633Y-101975338D01*
X166487500Y-101933019D01*
X166487500Y-101912983D01*
X166489027Y-101893582D01*
X166492160Y-101873804D01*
X166488049Y-101830327D01*
X166487500Y-101818658D01*
X166487500Y-100132451D01*
X166507185Y-100065412D01*
X166523815Y-100044774D01*
X166753785Y-99814803D01*
X166766041Y-99804987D01*
X166765858Y-99804765D01*
X166771870Y-99799790D01*
X166771877Y-99799786D01*
X166817949Y-99750722D01*
X166820566Y-99748023D01*
X166840120Y-99728471D01*
X166842576Y-99725303D01*
X166850156Y-99716427D01*
X166880062Y-99684582D01*
X166889713Y-99667024D01*
X166900396Y-99650761D01*
X166912673Y-99634936D01*
X166930021Y-99594844D01*
X166935151Y-99584371D01*
X166956197Y-99546092D01*
X166961180Y-99526680D01*
X166967481Y-99508280D01*
X166975437Y-99489896D01*
X166982270Y-99446748D01*
X166984633Y-99435338D01*
X166995500Y-99393019D01*
X166995500Y-99372983D01*
X166997027Y-99353582D01*
X167000160Y-99333804D01*
X166996049Y-99290327D01*
X166995500Y-99278658D01*
X166995500Y-98488687D01*
X167015185Y-98421648D01*
X167027350Y-98405715D01*
X167045891Y-98385122D01*
X167102533Y-98322216D01*
X167197179Y-98158284D01*
X167255674Y-97978256D01*
X167275460Y-97790000D01*
X167255674Y-97601744D01*
X167197179Y-97421716D01*
X167102533Y-97257784D01*
X166975871Y-97117112D01*
X166971804Y-97114157D01*
X166822734Y-97005851D01*
X166822729Y-97005848D01*
X166649807Y-96928857D01*
X166649802Y-96928855D01*
X166504001Y-96897865D01*
X166464646Y-96889500D01*
X166275354Y-96889500D01*
X166242897Y-96896398D01*
X166090197Y-96928855D01*
X166090192Y-96928857D01*
X165917270Y-97005848D01*
X165917265Y-97005851D01*
X165764129Y-97117111D01*
X165637466Y-97257785D01*
X165542821Y-97421715D01*
X165542818Y-97421722D01*
X165487441Y-97592156D01*
X165484326Y-97601744D01*
X165464540Y-97790000D01*
X165484326Y-97978256D01*
X165484327Y-97978259D01*
X165542818Y-98158277D01*
X165542821Y-98158284D01*
X165637467Y-98322216D01*
X165656855Y-98343748D01*
X165712650Y-98405715D01*
X165742880Y-98468706D01*
X165744500Y-98488687D01*
X165744500Y-99003546D01*
X165724815Y-99070585D01*
X165708181Y-99091227D01*
X165478208Y-99321199D01*
X165465951Y-99331020D01*
X165466134Y-99331241D01*
X165460122Y-99336214D01*
X165414098Y-99385223D01*
X165411391Y-99388016D01*
X165391889Y-99407517D01*
X165391875Y-99407534D01*
X165389407Y-99410715D01*
X165381843Y-99419570D01*
X165351937Y-99451418D01*
X165351936Y-99451420D01*
X165342284Y-99468976D01*
X165331610Y-99485226D01*
X165319329Y-99501061D01*
X165319324Y-99501068D01*
X165301975Y-99541158D01*
X165296838Y-99551644D01*
X165275803Y-99589906D01*
X165270822Y-99609307D01*
X165264521Y-99627710D01*
X165256562Y-99646102D01*
X165256561Y-99646105D01*
X165249728Y-99689243D01*
X165247360Y-99700674D01*
X165236501Y-99742971D01*
X165236500Y-99742982D01*
X165236500Y-99763016D01*
X165234973Y-99782415D01*
X165231840Y-99802194D01*
X165231840Y-99802195D01*
X165235950Y-99845674D01*
X165236500Y-99857343D01*
X165236500Y-101543547D01*
X165216815Y-101610586D01*
X165200181Y-101631228D01*
X165131228Y-101700181D01*
X165069905Y-101733666D01*
X165043547Y-101736500D01*
X164787748Y-101736500D01*
X164720709Y-101716815D01*
X164695600Y-101695474D01*
X164689873Y-101689114D01*
X164689869Y-101689110D01*
X164536734Y-101577851D01*
X164536729Y-101577848D01*
X164363807Y-101500857D01*
X164363802Y-101500855D01*
X164235455Y-101473575D01*
X164173973Y-101440383D01*
X164140197Y-101379220D01*
X164144849Y-101309505D01*
X164178269Y-101260131D01*
X164181865Y-101256891D01*
X164181871Y-101256888D01*
X164308533Y-101116216D01*
X164403179Y-100952284D01*
X164461674Y-100772256D01*
X164481460Y-100584000D01*
X164461674Y-100395744D01*
X164461672Y-100395740D01*
X164461416Y-100394532D01*
X164461372Y-100392885D01*
X164460994Y-100389280D01*
X164461277Y-100389250D01*
X164460450Y-100357620D01*
X164459915Y-100357604D01*
X164460160Y-100349805D01*
X164456050Y-100306324D01*
X164455500Y-100294655D01*
X164455500Y-98488687D01*
X164475185Y-98421648D01*
X164487350Y-98405715D01*
X164505891Y-98385122D01*
X164562533Y-98322216D01*
X164657179Y-98158284D01*
X164715674Y-97978256D01*
X164735460Y-97790000D01*
X164715674Y-97601744D01*
X164657179Y-97421716D01*
X164562533Y-97257784D01*
X164435871Y-97117112D01*
X164431804Y-97114157D01*
X164282734Y-97005851D01*
X164282729Y-97005848D01*
X164109807Y-96928857D01*
X164109802Y-96928855D01*
X163964001Y-96897865D01*
X163924646Y-96889500D01*
X163735354Y-96889500D01*
X163702897Y-96896398D01*
X163550197Y-96928855D01*
X163550192Y-96928857D01*
X163377270Y-97005848D01*
X163377265Y-97005851D01*
X163224129Y-97117111D01*
X163097466Y-97257785D01*
X163002821Y-97421715D01*
X163002818Y-97421722D01*
X162947441Y-97592156D01*
X162944326Y-97601744D01*
X162924540Y-97790000D01*
X162944326Y-97978256D01*
X162944327Y-97978259D01*
X163002818Y-98158277D01*
X163002821Y-98158284D01*
X163097467Y-98322216D01*
X163116855Y-98343748D01*
X163172650Y-98405715D01*
X163202880Y-98468706D01*
X163204500Y-98488687D01*
X163204500Y-99683156D01*
X163184815Y-99750195D01*
X163132011Y-99795950D01*
X163130939Y-99796434D01*
X163123268Y-99799849D01*
X162970129Y-99911111D01*
X162843466Y-100051785D01*
X162748821Y-100215715D01*
X162748818Y-100215722D01*
X162690435Y-100395407D01*
X162690326Y-100395744D01*
X162670540Y-100584000D01*
X161773218Y-100584000D01*
X161895871Y-100494888D01*
X162022533Y-100354216D01*
X162117179Y-100190284D01*
X162175674Y-100010256D01*
X162195460Y-99822000D01*
X162175674Y-99633744D01*
X162117179Y-99453716D01*
X162022533Y-99289784D01*
X161895871Y-99149112D01*
X161895870Y-99149111D01*
X161742734Y-99037851D01*
X161742729Y-99037848D01*
X161569807Y-98960857D01*
X161569802Y-98960855D01*
X161424001Y-98929865D01*
X161384646Y-98921500D01*
X161195354Y-98921500D01*
X161162897Y-98928398D01*
X161010197Y-98960855D01*
X161010192Y-98960857D01*
X160837270Y-99037848D01*
X160837265Y-99037851D01*
X160684129Y-99149111D01*
X160557465Y-99289785D01*
X160500473Y-99388500D01*
X160449906Y-99436716D01*
X160393086Y-99450500D01*
X157816737Y-99450500D01*
X157801120Y-99448776D01*
X157801093Y-99449062D01*
X157793331Y-99448327D01*
X157726144Y-99450439D01*
X157722250Y-99450500D01*
X157694650Y-99450500D01*
X157690962Y-99450965D01*
X157690649Y-99451005D01*
X157679031Y-99451918D01*
X157635372Y-99453290D01*
X157635369Y-99453291D01*
X157616126Y-99458881D01*
X157597083Y-99462825D01*
X157577206Y-99465336D01*
X157552704Y-99475037D01*
X157483126Y-99481411D01*
X157421146Y-99449157D01*
X157386444Y-99388514D01*
X157384944Y-99338210D01*
X157386237Y-99330878D01*
X157417262Y-99154927D01*
X157436738Y-98820536D01*
X157437585Y-98806003D01*
X157437585Y-98805996D01*
X157433554Y-98736796D01*
X157417262Y-98457073D01*
X157415369Y-98446336D01*
X157356571Y-98112872D01*
X157356569Y-98112865D01*
X157353823Y-98103692D01*
X157256326Y-97778029D01*
X157117889Y-97457096D01*
X156998322Y-97250000D01*
X156943129Y-97154402D01*
X156734415Y-96874050D01*
X156734410Y-96874044D01*
X156577996Y-96708256D01*
X156494558Y-96619817D01*
X156346488Y-96495572D01*
X156226813Y-96395152D01*
X156226805Y-96395146D01*
X155934799Y-96203090D01*
X155934786Y-96203082D01*
X155773665Y-96122165D01*
X155722591Y-96074488D01*
X155705401Y-96006765D01*
X155727553Y-95940500D01*
X155782015Y-95896731D01*
X155787513Y-95894613D01*
X156022772Y-95810438D01*
X156378097Y-95642381D01*
X156715239Y-95440306D01*
X157030951Y-95206158D01*
X157322192Y-94942192D01*
X157586158Y-94650951D01*
X157820306Y-94335239D01*
X158022381Y-93998097D01*
X158190438Y-93642772D01*
X158322857Y-93272684D01*
X158388216Y-93011756D01*
X158423600Y-92951510D01*
X158485939Y-92919957D01*
X158555441Y-92927115D01*
X158610040Y-92970713D01*
X158632400Y-93036909D01*
X158632500Y-93041887D01*
X158632500Y-95821312D01*
X158612815Y-95888351D01*
X158600650Y-95904284D01*
X158525466Y-95987784D01*
X158430821Y-96151715D01*
X158430818Y-96151722D01*
X158414129Y-96203087D01*
X158372326Y-96331744D01*
X158352540Y-96520000D01*
X158372326Y-96708256D01*
X158372327Y-96708259D01*
X158430818Y-96888277D01*
X158430821Y-96888284D01*
X158525467Y-97052216D01*
X158617476Y-97154402D01*
X158652129Y-97192888D01*
X158805265Y-97304148D01*
X158805270Y-97304151D01*
X158978192Y-97381142D01*
X158978197Y-97381144D01*
X159163354Y-97420500D01*
X159163355Y-97420500D01*
X159352644Y-97420500D01*
X159352646Y-97420500D01*
X159537803Y-97381144D01*
X159710730Y-97304151D01*
X159863871Y-97192888D01*
X159990533Y-97052216D01*
X160085179Y-96888284D01*
X160143674Y-96708256D01*
X160163460Y-96520000D01*
X160143674Y-96331744D01*
X160085179Y-96151716D01*
X159990533Y-95987784D01*
X159972281Y-95967513D01*
X159915350Y-95904284D01*
X159885120Y-95841292D01*
X159883500Y-95821312D01*
X159883500Y-89490742D01*
X159885224Y-89475122D01*
X159884939Y-89475096D01*
X159885671Y-89467340D01*
X159885673Y-89467333D01*
X159883561Y-89400126D01*
X159883500Y-89396231D01*
X159883500Y-89368654D01*
X159883500Y-89368650D01*
X159882996Y-89364665D01*
X159882080Y-89353021D01*
X159881742Y-89342256D01*
X159880709Y-89309373D01*
X159875122Y-89290144D01*
X159871174Y-89271084D01*
X159868663Y-89251204D01*
X159852588Y-89210604D01*
X159848804Y-89199552D01*
X159836618Y-89157609D01*
X159836616Y-89157606D01*
X159826423Y-89140371D01*
X159817861Y-89122894D01*
X159810487Y-89104269D01*
X159784816Y-89068937D01*
X159778405Y-89059177D01*
X159756170Y-89021580D01*
X159756168Y-89021578D01*
X159756165Y-89021574D01*
X159742006Y-89007415D01*
X159729368Y-88992619D01*
X159717594Y-88976413D01*
X159704697Y-88965744D01*
X159683940Y-88948572D01*
X159675299Y-88940709D01*
X159371199Y-88636609D01*
X159337714Y-88575286D01*
X159342698Y-88505594D01*
X159384570Y-88449661D01*
X159408437Y-88435652D01*
X159456730Y-88414151D01*
X159609871Y-88302888D01*
X159736533Y-88162216D01*
X159831179Y-87998284D01*
X159889674Y-87818256D01*
X159909460Y-87630000D01*
X159889674Y-87441744D01*
X159831179Y-87261716D01*
X159736533Y-87097784D01*
X159705228Y-87063016D01*
X159661350Y-87014284D01*
X159631120Y-86951292D01*
X159629500Y-86931312D01*
X159629500Y-84110864D01*
X159649185Y-84043825D01*
X159701989Y-83998070D01*
X159771147Y-83988126D01*
X159834703Y-84017151D01*
G37*
%TD.AperFunction*%
%TA.AperFunction,Conductor*%
G36*
X157100948Y-53409685D02*
G01*
X157146703Y-53462489D01*
X157156647Y-53531647D01*
X157127622Y-53595203D01*
X157106794Y-53614318D01*
X157034129Y-53667111D01*
X156907466Y-53807785D01*
X156812821Y-53971715D01*
X156812818Y-53971722D01*
X156754327Y-54151740D01*
X156754326Y-54151744D01*
X156734540Y-54340000D01*
X156754326Y-54528256D01*
X156754327Y-54528259D01*
X156812818Y-54708277D01*
X156812821Y-54708284D01*
X156826282Y-54731600D01*
X156839251Y-54754062D01*
X156855724Y-54821963D01*
X156845147Y-54866489D01*
X156842822Y-54871709D01*
X156791546Y-55029522D01*
X156784326Y-55051744D01*
X156764540Y-55240000D01*
X156784326Y-55428256D01*
X156784327Y-55428259D01*
X156842818Y-55608277D01*
X156842820Y-55608281D01*
X156842821Y-55608284D01*
X156881446Y-55675185D01*
X156914826Y-55733001D01*
X156931298Y-55800901D01*
X156914826Y-55856999D01*
X156842820Y-55981718D01*
X156842818Y-55981722D01*
X156798208Y-56119019D01*
X156784326Y-56161744D01*
X156764540Y-56350000D01*
X156784326Y-56538256D01*
X156784327Y-56538259D01*
X156842818Y-56718277D01*
X156842821Y-56718284D01*
X156937467Y-56882216D01*
X157028380Y-56983185D01*
X157064129Y-57022888D01*
X157217265Y-57134148D01*
X157217270Y-57134151D01*
X157390192Y-57211142D01*
X157390197Y-57211144D01*
X157575354Y-57250500D01*
X157575355Y-57250500D01*
X157764644Y-57250500D01*
X157764646Y-57250500D01*
X157949803Y-57211144D01*
X158122730Y-57134151D01*
X158275871Y-57022888D01*
X158278788Y-57019647D01*
X158281600Y-57016526D01*
X158341087Y-56979879D01*
X158373748Y-56975500D01*
X158577257Y-56975500D01*
X158592877Y-56977224D01*
X158592904Y-56976939D01*
X158600660Y-56977671D01*
X158600667Y-56977673D01*
X158667873Y-56975561D01*
X158671768Y-56975500D01*
X158699346Y-56975500D01*
X158699350Y-56975500D01*
X158703324Y-56974997D01*
X158714963Y-56974080D01*
X158758627Y-56972709D01*
X158777869Y-56967117D01*
X158796912Y-56963174D01*
X158816792Y-56960664D01*
X158857401Y-56944585D01*
X158868444Y-56940803D01*
X158910390Y-56928618D01*
X158927629Y-56918422D01*
X158945103Y-56909862D01*
X158963727Y-56902488D01*
X158963727Y-56902487D01*
X158963732Y-56902486D01*
X158999083Y-56876800D01*
X159008814Y-56870408D01*
X159046420Y-56848170D01*
X159060589Y-56833999D01*
X159075379Y-56821368D01*
X159091587Y-56809594D01*
X159119437Y-56775927D01*
X159127278Y-56767310D01*
X159353785Y-56540803D01*
X159366046Y-56530983D01*
X159365862Y-56530761D01*
X159371871Y-56525789D01*
X159371877Y-56525786D01*
X159417904Y-56476771D01*
X159420583Y-56474006D01*
X159440120Y-56454471D01*
X159442576Y-56451303D01*
X159450156Y-56442427D01*
X159480062Y-56410582D01*
X159489713Y-56393024D01*
X159500396Y-56376761D01*
X159512673Y-56360936D01*
X159530021Y-56320844D01*
X159535151Y-56310371D01*
X159556197Y-56272092D01*
X159561180Y-56252680D01*
X159567481Y-56234280D01*
X159575437Y-56215896D01*
X159582270Y-56172748D01*
X159584633Y-56161338D01*
X159595500Y-56119019D01*
X159595500Y-56098983D01*
X159597027Y-56079582D01*
X159600160Y-56059804D01*
X159596050Y-56016324D01*
X159595500Y-56004655D01*
X159595500Y-55920452D01*
X159615185Y-55853413D01*
X159631819Y-55832771D01*
X159772771Y-55691819D01*
X159834094Y-55658334D01*
X159860452Y-55655500D01*
X159886000Y-55655500D01*
X159953039Y-55675185D01*
X159998794Y-55727989D01*
X160010000Y-55779500D01*
X160010000Y-56590000D01*
X161006000Y-56590000D01*
X161073039Y-56609685D01*
X161118794Y-56662489D01*
X161130000Y-56714000D01*
X161130000Y-56966000D01*
X161110315Y-57033039D01*
X161057511Y-57078794D01*
X161006000Y-57090000D01*
X160010000Y-57090000D01*
X160010000Y-57692200D01*
X159990315Y-57759239D01*
X159937511Y-57804994D01*
X159868353Y-57814938D01*
X159866602Y-57814673D01*
X159822760Y-57807729D01*
X159811322Y-57805361D01*
X159769020Y-57794500D01*
X159769019Y-57794500D01*
X159748984Y-57794500D01*
X159729586Y-57792973D01*
X159722162Y-57791797D01*
X159709805Y-57789840D01*
X159709804Y-57789840D01*
X159666325Y-57793950D01*
X159654656Y-57794500D01*
X156913274Y-57794500D01*
X156846235Y-57774815D01*
X156800480Y-57722011D01*
X156789953Y-57657539D01*
X156791534Y-57642499D01*
X156805460Y-57510000D01*
X156785674Y-57321744D01*
X156727179Y-57141716D01*
X156632533Y-56977784D01*
X156505871Y-56837112D01*
X156505870Y-56837111D01*
X156352734Y-56725851D01*
X156352729Y-56725848D01*
X156179807Y-56648857D01*
X156179802Y-56648855D01*
X156034001Y-56617865D01*
X155994646Y-56609500D01*
X155805354Y-56609500D01*
X155772897Y-56616398D01*
X155620197Y-56648855D01*
X155620192Y-56648857D01*
X155447270Y-56725848D01*
X155447265Y-56725851D01*
X155294130Y-56837110D01*
X155294126Y-56837114D01*
X155288400Y-56843474D01*
X155228913Y-56880121D01*
X155196252Y-56884500D01*
X146652743Y-56884500D01*
X146637122Y-56882775D01*
X146637096Y-56883061D01*
X146629334Y-56882327D01*
X146629333Y-56882327D01*
X146567109Y-56884282D01*
X146562127Y-56884439D01*
X146558232Y-56884500D01*
X146530647Y-56884500D01*
X146526661Y-56885003D01*
X146515033Y-56885918D01*
X146471373Y-56887290D01*
X146452129Y-56892881D01*
X146433079Y-56896825D01*
X146413211Y-56899334D01*
X146413210Y-56899334D01*
X146372599Y-56915413D01*
X146361554Y-56919194D01*
X146319614Y-56931379D01*
X146319610Y-56931381D01*
X146302366Y-56941579D01*
X146284905Y-56950133D01*
X146266274Y-56957510D01*
X146266262Y-56957517D01*
X146230933Y-56983185D01*
X146221173Y-56989596D01*
X146183580Y-57011829D01*
X146169414Y-57025995D01*
X146154624Y-57038627D01*
X146138414Y-57050404D01*
X146138411Y-57050407D01*
X146110573Y-57084058D01*
X146102711Y-57092697D01*
X143236208Y-59959199D01*
X143223951Y-59969020D01*
X143224134Y-59969241D01*
X143218122Y-59974214D01*
X143172098Y-60023223D01*
X143169391Y-60026016D01*
X143149889Y-60045517D01*
X143149875Y-60045534D01*
X143147407Y-60048715D01*
X143139843Y-60057570D01*
X143109937Y-60089418D01*
X143109936Y-60089420D01*
X143100284Y-60106976D01*
X143089610Y-60123226D01*
X143077329Y-60139061D01*
X143077324Y-60139068D01*
X143059975Y-60179158D01*
X143054838Y-60189644D01*
X143033803Y-60227906D01*
X143028822Y-60247307D01*
X143022521Y-60265710D01*
X143014562Y-60284102D01*
X143014561Y-60284105D01*
X143007728Y-60327243D01*
X143005360Y-60338674D01*
X142994501Y-60380971D01*
X142994500Y-60380982D01*
X142994500Y-60401016D01*
X142992973Y-60420415D01*
X142989840Y-60440194D01*
X142989840Y-60440195D01*
X142993950Y-60483674D01*
X142994500Y-60495343D01*
X142994500Y-65156001D01*
X142974815Y-65223040D01*
X142922011Y-65268795D01*
X142870500Y-65280001D01*
X142870000Y-65280001D01*
X142870000Y-65531931D01*
X142862182Y-65575264D01*
X142825908Y-65672518D01*
X142819501Y-65732117D01*
X142819500Y-65732128D01*
X142819500Y-66854001D01*
X142819501Y-67106001D01*
X142799816Y-67173040D01*
X142747013Y-67218795D01*
X142695501Y-67230001D01*
X142544499Y-67230001D01*
X142477460Y-67210316D01*
X142431705Y-67157512D01*
X142420499Y-67106001D01*
X142420498Y-65732130D01*
X142420497Y-65732124D01*
X142420496Y-65732117D01*
X142414090Y-65672518D01*
X142396050Y-65624151D01*
X142377818Y-65575267D01*
X142370000Y-65531934D01*
X142370000Y-65280001D01*
X142272155Y-65280001D01*
X142212627Y-65286402D01*
X142212620Y-65286404D01*
X142164044Y-65304521D01*
X142094352Y-65309504D01*
X142077381Y-65304520D01*
X142027484Y-65285910D01*
X142027482Y-65285909D01*
X141967882Y-65279502D01*
X141967880Y-65279501D01*
X141967872Y-65279501D01*
X141967864Y-65279501D01*
X141577960Y-65279501D01*
X141510921Y-65259816D01*
X141465166Y-65207012D01*
X141455222Y-65137854D01*
X141460029Y-65117183D01*
X141462168Y-65110596D01*
X141485674Y-65038256D01*
X141505460Y-64850000D01*
X141485674Y-64661744D01*
X141427179Y-64481716D01*
X141332533Y-64317784D01*
X141205871Y-64177112D01*
X141205465Y-64176817D01*
X141052734Y-64065851D01*
X141052729Y-64065848D01*
X140879807Y-63988857D01*
X140879802Y-63988855D01*
X140734001Y-63957865D01*
X140694646Y-63949500D01*
X140505354Y-63949500D01*
X140472897Y-63956398D01*
X140320197Y-63988855D01*
X140320196Y-63988855D01*
X140166663Y-64057213D01*
X140097413Y-64066497D01*
X140065792Y-64057212D01*
X139889807Y-63978857D01*
X139889802Y-63978855D01*
X139744001Y-63947865D01*
X139704646Y-63939500D01*
X139515354Y-63939500D01*
X139482897Y-63946398D01*
X139330197Y-63978855D01*
X139330192Y-63978857D01*
X139157266Y-64055850D01*
X139156675Y-64056192D01*
X139156290Y-64056285D01*
X139151334Y-64058492D01*
X139150930Y-64057584D01*
X139088772Y-64072655D01*
X139044254Y-64062075D01*
X138879807Y-63988857D01*
X138879802Y-63988855D01*
X138855679Y-63983728D01*
X138794197Y-63950535D01*
X138760421Y-63889372D01*
X138763529Y-63824120D01*
X138783306Y-63763251D01*
X138807674Y-63688256D01*
X138827460Y-63500000D01*
X138807674Y-63311744D01*
X138749179Y-63131716D01*
X138654533Y-62967784D01*
X138527871Y-62827112D01*
X138506097Y-62811292D01*
X138374734Y-62715851D01*
X138374729Y-62715848D01*
X138201807Y-62638857D01*
X138201802Y-62638855D01*
X138056001Y-62607865D01*
X138016646Y-62599500D01*
X137827354Y-62599500D01*
X137794897Y-62606398D01*
X137642197Y-62638855D01*
X137642192Y-62638857D01*
X137469270Y-62715848D01*
X137469265Y-62715851D01*
X137316129Y-62827111D01*
X137189466Y-62967785D01*
X137094821Y-63131715D01*
X137094818Y-63131722D01*
X137039575Y-63301744D01*
X137036326Y-63311744D01*
X137016540Y-63500000D01*
X137036326Y-63688256D01*
X137036327Y-63688259D01*
X137094818Y-63868277D01*
X137094821Y-63868284D01*
X137189467Y-64032216D01*
X137270941Y-64122702D01*
X137316129Y-64172888D01*
X137469265Y-64284148D01*
X137469270Y-64284151D01*
X137642197Y-64361144D01*
X137666319Y-64366271D01*
X137727800Y-64399461D01*
X137761578Y-64460624D01*
X137758470Y-64525878D01*
X137714327Y-64661739D01*
X137714327Y-64661740D01*
X137714326Y-64661744D01*
X137694540Y-64850000D01*
X137714326Y-65038256D01*
X137714327Y-65038259D01*
X137772818Y-65218277D01*
X137772821Y-65218284D01*
X137867466Y-65382215D01*
X137867946Y-65382748D01*
X137868126Y-65383123D01*
X137871285Y-65387471D01*
X137870489Y-65388048D01*
X137898174Y-65445741D01*
X137889547Y-65515076D01*
X137880830Y-65530092D01*
X137880897Y-65530129D01*
X137876645Y-65537914D01*
X137826403Y-65672621D01*
X137826401Y-65672628D01*
X137820000Y-65732156D01*
X137820000Y-66730001D01*
X140695499Y-66730001D01*
X140762538Y-66749686D01*
X140808293Y-66802490D01*
X140819499Y-66854001D01*
X140819500Y-67106001D01*
X140799816Y-67173040D01*
X140747012Y-67218795D01*
X140695500Y-67230001D01*
X137820000Y-67230001D01*
X137820000Y-68227845D01*
X137826401Y-68287373D01*
X137826403Y-68287380D01*
X137876645Y-68422087D01*
X137876647Y-68422089D01*
X137895267Y-68446963D01*
X137919684Y-68512427D01*
X137920000Y-68521274D01*
X137920000Y-76738725D01*
X137900315Y-76805764D01*
X137895268Y-76813035D01*
X137876646Y-76837910D01*
X137876645Y-76837912D01*
X137826403Y-76972619D01*
X137826401Y-76972626D01*
X137820000Y-77032154D01*
X137820000Y-78029999D01*
X138695501Y-78029999D01*
X138762540Y-78049684D01*
X138808295Y-78102488D01*
X138819501Y-78153999D01*
X138819502Y-78405999D01*
X138799818Y-78473038D01*
X138747014Y-78518793D01*
X138695502Y-78529999D01*
X137820000Y-78529999D01*
X137820000Y-79527843D01*
X137826401Y-79587371D01*
X137826403Y-79587378D01*
X137876645Y-79722085D01*
X137876649Y-79722092D01*
X137962809Y-79837186D01*
X137962810Y-79837187D01*
X137999504Y-79864656D01*
X138041376Y-79920589D01*
X138046360Y-79990281D01*
X138012875Y-80051604D01*
X137998086Y-80064236D01*
X137994132Y-80067108D01*
X137994129Y-80067111D01*
X137867466Y-80207785D01*
X137772821Y-80371715D01*
X137772818Y-80371722D01*
X137728456Y-80508256D01*
X137714326Y-80551744D01*
X137694540Y-80740000D01*
X137714326Y-80928256D01*
X137714327Y-80928259D01*
X137772818Y-81108277D01*
X137772821Y-81108284D01*
X137867467Y-81272216D01*
X137994129Y-81412888D01*
X138147265Y-81524148D01*
X138147270Y-81524151D01*
X138320192Y-81601142D01*
X138320197Y-81601144D01*
X138505354Y-81640500D01*
X138505355Y-81640500D01*
X138694644Y-81640500D01*
X138694646Y-81640500D01*
X138844720Y-81608601D01*
X138914387Y-81613917D01*
X138970121Y-81656054D01*
X138994226Y-81721634D01*
X138994501Y-81729891D01*
X138994501Y-85997256D01*
X138992776Y-86012873D01*
X138993062Y-86012900D01*
X138992327Y-86020666D01*
X138994440Y-86087873D01*
X138994501Y-86091768D01*
X138994501Y-86119358D01*
X138995004Y-86123336D01*
X138995919Y-86134968D01*
X138997291Y-86178625D01*
X138997292Y-86178628D01*
X139002881Y-86197868D01*
X139006825Y-86216912D01*
X139007251Y-86220277D01*
X139009337Y-86236793D01*
X139025415Y-86277404D01*
X139029198Y-86288453D01*
X139041382Y-86330389D01*
X139051581Y-86347635D01*
X139060139Y-86365104D01*
X139067515Y-86383733D01*
X139093182Y-86419061D01*
X139099594Y-86428822D01*
X139121829Y-86466418D01*
X139121834Y-86466425D01*
X139135991Y-86480581D01*
X139148629Y-86495377D01*
X139160406Y-86511587D01*
X139160407Y-86511588D01*
X139194052Y-86539421D01*
X139202694Y-86547284D01*
X139303182Y-86647773D01*
X139336666Y-86709097D01*
X139339500Y-86735453D01*
X139339500Y-86819168D01*
X139339501Y-86819192D01*
X139342335Y-86855205D01*
X139387129Y-87009388D01*
X139387132Y-87009395D01*
X139421128Y-87066881D01*
X139438309Y-87134605D01*
X139421128Y-87193119D01*
X139387132Y-87250604D01*
X139387129Y-87250611D01*
X139342335Y-87404791D01*
X139342334Y-87404797D01*
X139339500Y-87440811D01*
X139339500Y-87839169D01*
X139339501Y-87839191D01*
X139342335Y-87875205D01*
X139387129Y-88029388D01*
X139387131Y-88029394D01*
X139446513Y-88129803D01*
X139463696Y-88197527D01*
X139441536Y-88263790D01*
X139390218Y-88306203D01*
X139247267Y-88369850D01*
X139247265Y-88369851D01*
X139094129Y-88481111D01*
X138967466Y-88621785D01*
X138872821Y-88785715D01*
X138872818Y-88785722D01*
X138815576Y-88961897D01*
X138814326Y-88965744D01*
X138807320Y-89032402D01*
X138780736Y-89097014D01*
X138723439Y-89136999D01*
X138653620Y-89139659D01*
X138593446Y-89104150D01*
X138562023Y-89041745D01*
X138560681Y-89032416D01*
X138553674Y-88965744D01*
X138495179Y-88785716D01*
X138400533Y-88621784D01*
X138273871Y-88481112D01*
X138257959Y-88469551D01*
X138120734Y-88369851D01*
X138120729Y-88369848D01*
X137947807Y-88292857D01*
X137947802Y-88292855D01*
X137801784Y-88261819D01*
X137762646Y-88253500D01*
X137573354Y-88253500D01*
X137540897Y-88260398D01*
X137388197Y-88292855D01*
X137388192Y-88292857D01*
X137215270Y-88369848D01*
X137215265Y-88369851D01*
X137062129Y-88481111D01*
X136935466Y-88621785D01*
X136840821Y-88785715D01*
X136840818Y-88785722D01*
X136791931Y-88936182D01*
X136752493Y-88993858D01*
X136688135Y-89021056D01*
X136619288Y-89009141D01*
X136567813Y-88961897D01*
X136550000Y-88897864D01*
X136550000Y-86108135D01*
X136569685Y-86041096D01*
X136622489Y-85995341D01*
X136691647Y-85985397D01*
X136755203Y-86014422D01*
X136791931Y-86069817D01*
X136840818Y-86220278D01*
X136840821Y-86220284D01*
X136935467Y-86384216D01*
X137009485Y-86466421D01*
X137062129Y-86524888D01*
X137215265Y-86636148D01*
X137215270Y-86636151D01*
X137388192Y-86713142D01*
X137388197Y-86713144D01*
X137573354Y-86752500D01*
X137573355Y-86752500D01*
X137762644Y-86752500D01*
X137762646Y-86752500D01*
X137947803Y-86713144D01*
X138120730Y-86636151D01*
X138273871Y-86524888D01*
X138400533Y-86384216D01*
X138495179Y-86220284D01*
X138553674Y-86040256D01*
X138573460Y-85852000D01*
X138553674Y-85663744D01*
X138495179Y-85483716D01*
X138400533Y-85319784D01*
X138273871Y-85179112D01*
X138267468Y-85174460D01*
X138120734Y-85067851D01*
X138120729Y-85067848D01*
X137947807Y-84990857D01*
X137947802Y-84990855D01*
X137800782Y-84959606D01*
X137762646Y-84951500D01*
X137573354Y-84951500D01*
X137540897Y-84958398D01*
X137388197Y-84990855D01*
X137388192Y-84990857D01*
X137215270Y-85067848D01*
X137215265Y-85067851D01*
X137062129Y-85179111D01*
X136935466Y-85319785D01*
X136840821Y-85483715D01*
X136840818Y-85483722D01*
X136791931Y-85634182D01*
X136752493Y-85691858D01*
X136688135Y-85719056D01*
X136619288Y-85707141D01*
X136567813Y-85659897D01*
X136550000Y-85595864D01*
X136550000Y-83060135D01*
X136569685Y-82993096D01*
X136622489Y-82947341D01*
X136691647Y-82937397D01*
X136755203Y-82966422D01*
X136791931Y-83021817D01*
X136840818Y-83172278D01*
X136840821Y-83172284D01*
X136935467Y-83336216D01*
X137047934Y-83461123D01*
X137062129Y-83476888D01*
X137215265Y-83588148D01*
X137215270Y-83588151D01*
X137388192Y-83665142D01*
X137388197Y-83665144D01*
X137573354Y-83704500D01*
X137573355Y-83704500D01*
X137762644Y-83704500D01*
X137762646Y-83704500D01*
X137947803Y-83665144D01*
X138120730Y-83588151D01*
X138273871Y-83476888D01*
X138400533Y-83336216D01*
X138495179Y-83172284D01*
X138553674Y-82992256D01*
X138573460Y-82804000D01*
X138553674Y-82615744D01*
X138495179Y-82435716D01*
X138400533Y-82271784D01*
X138273871Y-82131112D01*
X138250745Y-82114310D01*
X138120734Y-82019851D01*
X138120729Y-82019848D01*
X137947807Y-81942857D01*
X137947802Y-81942855D01*
X137770940Y-81905263D01*
X137762646Y-81903500D01*
X137573354Y-81903500D01*
X137565060Y-81905263D01*
X137388197Y-81942855D01*
X137388192Y-81942857D01*
X137215270Y-82019848D01*
X137215265Y-82019851D01*
X137062129Y-82131111D01*
X136935466Y-82271785D01*
X136840821Y-82435715D01*
X136840818Y-82435722D01*
X136791931Y-82586182D01*
X136752493Y-82643858D01*
X136688135Y-82671056D01*
X136619288Y-82659141D01*
X136567813Y-82611897D01*
X136550000Y-82547864D01*
X136550000Y-58928000D01*
X137016540Y-58928000D01*
X137036326Y-59116256D01*
X137036327Y-59116259D01*
X137094818Y-59296277D01*
X137094821Y-59296284D01*
X137189467Y-59460216D01*
X137280542Y-59561365D01*
X137316129Y-59600888D01*
X137469265Y-59712148D01*
X137469270Y-59712151D01*
X137642192Y-59789142D01*
X137642197Y-59789144D01*
X137827354Y-59828500D01*
X137827355Y-59828500D01*
X138016644Y-59828500D01*
X138016646Y-59828500D01*
X138201803Y-59789144D01*
X138374730Y-59712151D01*
X138527871Y-59600888D01*
X138654533Y-59460216D01*
X138749179Y-59296284D01*
X138807674Y-59116256D01*
X138827460Y-58928000D01*
X138807674Y-58739744D01*
X138749179Y-58559716D01*
X138654533Y-58395784D01*
X138527871Y-58255112D01*
X138476320Y-58217658D01*
X138374734Y-58143851D01*
X138374729Y-58143848D01*
X138201807Y-58066857D01*
X138201802Y-58066855D01*
X138056001Y-58035865D01*
X138016646Y-58027500D01*
X137827354Y-58027500D01*
X137794897Y-58034398D01*
X137642197Y-58066855D01*
X137642192Y-58066857D01*
X137469270Y-58143848D01*
X137469265Y-58143851D01*
X137316129Y-58255111D01*
X137189466Y-58395785D01*
X137094821Y-58559715D01*
X137094818Y-58559722D01*
X137036759Y-58738410D01*
X137036326Y-58739744D01*
X137016540Y-58928000D01*
X136550000Y-58928000D01*
X136550000Y-54610000D01*
X137016540Y-54610000D01*
X137036326Y-54798256D01*
X137036327Y-54798259D01*
X137094818Y-54978277D01*
X137094821Y-54978284D01*
X137189467Y-55142216D01*
X137315738Y-55282454D01*
X137316129Y-55282888D01*
X137469265Y-55394148D01*
X137469270Y-55394151D01*
X137642192Y-55471142D01*
X137642197Y-55471144D01*
X137827354Y-55510500D01*
X137827355Y-55510500D01*
X138016644Y-55510500D01*
X138016646Y-55510500D01*
X138201803Y-55471144D01*
X138374730Y-55394151D01*
X138527871Y-55282888D01*
X138654533Y-55142216D01*
X138749179Y-54978284D01*
X138807674Y-54798256D01*
X138827460Y-54610000D01*
X139302540Y-54610000D01*
X139322326Y-54798256D01*
X139322327Y-54798259D01*
X139380818Y-54978277D01*
X139380821Y-54978284D01*
X139475467Y-55142216D01*
X139601738Y-55282454D01*
X139602129Y-55282888D01*
X139755265Y-55394148D01*
X139755270Y-55394151D01*
X139928192Y-55471142D01*
X139928197Y-55471144D01*
X140113354Y-55510500D01*
X140113355Y-55510500D01*
X140302644Y-55510500D01*
X140302646Y-55510500D01*
X140487803Y-55471144D01*
X140660730Y-55394151D01*
X140813871Y-55282888D01*
X140940533Y-55142216D01*
X141035179Y-54978284D01*
X141093674Y-54798256D01*
X141100679Y-54731597D01*
X141127263Y-54666985D01*
X141184561Y-54627000D01*
X141254380Y-54624340D01*
X141314553Y-54659849D01*
X141345977Y-54722254D01*
X141347318Y-54731583D01*
X141354326Y-54798256D01*
X141354327Y-54798259D01*
X141412818Y-54978277D01*
X141412821Y-54978284D01*
X141507467Y-55142216D01*
X141633738Y-55282454D01*
X141634129Y-55282888D01*
X141787265Y-55394148D01*
X141787270Y-55394151D01*
X141960192Y-55471142D01*
X141960197Y-55471144D01*
X142145354Y-55510500D01*
X142145355Y-55510500D01*
X142334644Y-55510500D01*
X142334646Y-55510500D01*
X142519803Y-55471144D01*
X142692730Y-55394151D01*
X142845871Y-55282888D01*
X142972533Y-55142216D01*
X143067179Y-54978284D01*
X143125674Y-54798256D01*
X143145460Y-54610000D01*
X143620540Y-54610000D01*
X143640326Y-54798256D01*
X143640327Y-54798259D01*
X143698818Y-54978277D01*
X143698821Y-54978284D01*
X143793467Y-55142216D01*
X143919738Y-55282454D01*
X143920129Y-55282888D01*
X144073265Y-55394148D01*
X144073270Y-55394151D01*
X144246192Y-55471142D01*
X144246197Y-55471144D01*
X144431354Y-55510500D01*
X144431355Y-55510500D01*
X144620644Y-55510500D01*
X144620646Y-55510500D01*
X144805803Y-55471144D01*
X144978730Y-55394151D01*
X145131871Y-55282888D01*
X145258533Y-55142216D01*
X145353179Y-54978284D01*
X145411674Y-54798256D01*
X145431460Y-54610000D01*
X146414540Y-54610000D01*
X146434326Y-54798256D01*
X146434327Y-54798259D01*
X146492818Y-54978277D01*
X146492821Y-54978284D01*
X146587467Y-55142216D01*
X146713738Y-55282454D01*
X146714129Y-55282888D01*
X146867265Y-55394148D01*
X146867270Y-55394151D01*
X147040192Y-55471142D01*
X147040197Y-55471144D01*
X147225354Y-55510500D01*
X147225355Y-55510500D01*
X147414644Y-55510500D01*
X147414646Y-55510500D01*
X147599803Y-55471144D01*
X147772730Y-55394151D01*
X147925871Y-55282888D01*
X148052533Y-55142216D01*
X148147179Y-54978284D01*
X148205674Y-54798256D01*
X148225460Y-54610000D01*
X148954540Y-54610000D01*
X148974326Y-54798256D01*
X148974327Y-54798259D01*
X149032818Y-54978277D01*
X149032821Y-54978284D01*
X149127467Y-55142216D01*
X149253738Y-55282454D01*
X149254129Y-55282888D01*
X149407265Y-55394148D01*
X149407270Y-55394151D01*
X149580192Y-55471142D01*
X149580197Y-55471144D01*
X149765354Y-55510500D01*
X149765355Y-55510500D01*
X149954644Y-55510500D01*
X149954646Y-55510500D01*
X150139803Y-55471144D01*
X150312730Y-55394151D01*
X150465871Y-55282888D01*
X150592533Y-55142216D01*
X150687179Y-54978284D01*
X150745674Y-54798256D01*
X150765460Y-54610000D01*
X151240540Y-54610000D01*
X151260326Y-54798256D01*
X151260327Y-54798259D01*
X151318818Y-54978277D01*
X151318821Y-54978284D01*
X151413467Y-55142216D01*
X151539738Y-55282454D01*
X151540129Y-55282888D01*
X151693265Y-55394148D01*
X151693270Y-55394151D01*
X151866192Y-55471142D01*
X151866197Y-55471144D01*
X152051354Y-55510500D01*
X152051355Y-55510500D01*
X152240644Y-55510500D01*
X152240646Y-55510500D01*
X152425803Y-55471144D01*
X152598730Y-55394151D01*
X152751871Y-55282888D01*
X152878533Y-55142216D01*
X152973179Y-54978284D01*
X153031674Y-54798256D01*
X153051460Y-54610000D01*
X153031674Y-54421744D01*
X152973179Y-54241716D01*
X152878533Y-54077784D01*
X152751871Y-53937112D01*
X152751870Y-53937111D01*
X152598734Y-53825851D01*
X152598729Y-53825848D01*
X152425807Y-53748857D01*
X152425802Y-53748855D01*
X152264169Y-53714500D01*
X152240646Y-53709500D01*
X152051354Y-53709500D01*
X152027831Y-53714500D01*
X151866197Y-53748855D01*
X151866192Y-53748857D01*
X151693270Y-53825848D01*
X151693265Y-53825851D01*
X151540129Y-53937111D01*
X151413466Y-54077785D01*
X151318821Y-54241715D01*
X151318818Y-54241722D01*
X151286886Y-54340000D01*
X151260326Y-54421744D01*
X151240540Y-54610000D01*
X150765460Y-54610000D01*
X150745674Y-54421744D01*
X150687179Y-54241716D01*
X150592533Y-54077784D01*
X150465871Y-53937112D01*
X150465870Y-53937111D01*
X150312734Y-53825851D01*
X150312729Y-53825848D01*
X150139807Y-53748857D01*
X150139802Y-53748855D01*
X149978169Y-53714500D01*
X149954646Y-53709500D01*
X149765354Y-53709500D01*
X149741831Y-53714500D01*
X149580197Y-53748855D01*
X149580192Y-53748857D01*
X149407270Y-53825848D01*
X149407265Y-53825851D01*
X149254129Y-53937111D01*
X149127466Y-54077785D01*
X149032821Y-54241715D01*
X149032818Y-54241722D01*
X149000886Y-54340000D01*
X148974326Y-54421744D01*
X148954540Y-54610000D01*
X148225460Y-54610000D01*
X148205674Y-54421744D01*
X148147179Y-54241716D01*
X148052533Y-54077784D01*
X147925871Y-53937112D01*
X147925870Y-53937111D01*
X147772734Y-53825851D01*
X147772729Y-53825848D01*
X147599807Y-53748857D01*
X147599802Y-53748855D01*
X147438169Y-53714500D01*
X147414646Y-53709500D01*
X147225354Y-53709500D01*
X147201831Y-53714500D01*
X147040197Y-53748855D01*
X147040192Y-53748857D01*
X146867270Y-53825848D01*
X146867265Y-53825851D01*
X146714129Y-53937111D01*
X146587466Y-54077785D01*
X146492821Y-54241715D01*
X146492818Y-54241722D01*
X146460886Y-54340000D01*
X146434326Y-54421744D01*
X146414540Y-54610000D01*
X145431460Y-54610000D01*
X145411674Y-54421744D01*
X145353179Y-54241716D01*
X145258533Y-54077784D01*
X145131871Y-53937112D01*
X145131870Y-53937111D01*
X144978734Y-53825851D01*
X144978729Y-53825848D01*
X144805807Y-53748857D01*
X144805802Y-53748855D01*
X144644169Y-53714500D01*
X144620646Y-53709500D01*
X144431354Y-53709500D01*
X144407831Y-53714500D01*
X144246197Y-53748855D01*
X144246192Y-53748857D01*
X144073270Y-53825848D01*
X144073265Y-53825851D01*
X143920129Y-53937111D01*
X143793466Y-54077785D01*
X143698821Y-54241715D01*
X143698818Y-54241722D01*
X143666886Y-54340000D01*
X143640326Y-54421744D01*
X143620540Y-54610000D01*
X143145460Y-54610000D01*
X143125674Y-54421744D01*
X143067179Y-54241716D01*
X142972533Y-54077784D01*
X142845871Y-53937112D01*
X142845870Y-53937111D01*
X142692734Y-53825851D01*
X142692729Y-53825848D01*
X142519807Y-53748857D01*
X142519802Y-53748855D01*
X142358169Y-53714500D01*
X142334646Y-53709500D01*
X142145354Y-53709500D01*
X142121831Y-53714500D01*
X141960197Y-53748855D01*
X141960192Y-53748857D01*
X141787270Y-53825848D01*
X141787265Y-53825851D01*
X141634129Y-53937111D01*
X141507466Y-54077785D01*
X141412821Y-54241715D01*
X141412818Y-54241722D01*
X141380886Y-54340000D01*
X141354326Y-54421744D01*
X141347320Y-54488402D01*
X141320736Y-54553014D01*
X141263439Y-54592999D01*
X141193620Y-54595659D01*
X141133446Y-54560150D01*
X141102023Y-54497745D01*
X141100681Y-54488412D01*
X141093674Y-54421744D01*
X141035179Y-54241716D01*
X140940533Y-54077784D01*
X140813871Y-53937112D01*
X140813870Y-53937111D01*
X140660734Y-53825851D01*
X140660729Y-53825848D01*
X140487807Y-53748857D01*
X140487802Y-53748855D01*
X140326169Y-53714500D01*
X140302646Y-53709500D01*
X140113354Y-53709500D01*
X140089831Y-53714500D01*
X139928197Y-53748855D01*
X139928192Y-53748857D01*
X139755270Y-53825848D01*
X139755265Y-53825851D01*
X139602129Y-53937111D01*
X139475466Y-54077785D01*
X139380821Y-54241715D01*
X139380818Y-54241722D01*
X139348886Y-54340000D01*
X139322326Y-54421744D01*
X139302540Y-54610000D01*
X138827460Y-54610000D01*
X138807674Y-54421744D01*
X138749179Y-54241716D01*
X138654533Y-54077784D01*
X138527871Y-53937112D01*
X138527870Y-53937111D01*
X138374734Y-53825851D01*
X138374729Y-53825848D01*
X138201807Y-53748857D01*
X138201802Y-53748855D01*
X138040169Y-53714500D01*
X138016646Y-53709500D01*
X137827354Y-53709500D01*
X137803831Y-53714500D01*
X137642197Y-53748855D01*
X137642192Y-53748857D01*
X137469270Y-53825848D01*
X137469265Y-53825851D01*
X137316129Y-53937111D01*
X137189466Y-54077785D01*
X137094821Y-54241715D01*
X137094818Y-54241722D01*
X137062886Y-54340000D01*
X137036326Y-54421744D01*
X137016540Y-54610000D01*
X136550000Y-54610000D01*
X136550000Y-53514000D01*
X136569685Y-53446961D01*
X136622489Y-53401206D01*
X136674000Y-53390000D01*
X157033909Y-53390000D01*
X157100948Y-53409685D01*
G37*
%TD.AperFunction*%
%TA.AperFunction,Conductor*%
G36*
X153303147Y-76950185D02*
G01*
X153348902Y-77002989D01*
X153358846Y-77072147D01*
X153352160Y-77095317D01*
X153352829Y-77095535D01*
X153350821Y-77101716D01*
X153292326Y-77281744D01*
X153272540Y-77470000D01*
X153292326Y-77658256D01*
X153292327Y-77658259D01*
X153350818Y-77838277D01*
X153350819Y-77838279D01*
X153350821Y-77838284D01*
X153445467Y-78002216D01*
X153480573Y-78041205D01*
X153520650Y-78085715D01*
X153550880Y-78148706D01*
X153552500Y-78168687D01*
X153552500Y-79635255D01*
X153550775Y-79650872D01*
X153551061Y-79650899D01*
X153550326Y-79658665D01*
X153552439Y-79725872D01*
X153552500Y-79729767D01*
X153552500Y-79757357D01*
X153553003Y-79761335D01*
X153553918Y-79772967D01*
X153555290Y-79816624D01*
X153555291Y-79816627D01*
X153560880Y-79835867D01*
X153564824Y-79854911D01*
X153566056Y-79864656D01*
X153567336Y-79874792D01*
X153583414Y-79915403D01*
X153587197Y-79926452D01*
X153596110Y-79957131D01*
X153599382Y-79968390D01*
X153606542Y-79980498D01*
X153609580Y-79985634D01*
X153618138Y-80003103D01*
X153625514Y-80021732D01*
X153651181Y-80057060D01*
X153657593Y-80066821D01*
X153679828Y-80104417D01*
X153679833Y-80104424D01*
X153693990Y-80118580D01*
X153706628Y-80133376D01*
X153718405Y-80149586D01*
X153718406Y-80149587D01*
X153752057Y-80177425D01*
X153760698Y-80185288D01*
X154383181Y-80807772D01*
X154416666Y-80869095D01*
X154419500Y-80895452D01*
X154419500Y-80979168D01*
X154419501Y-80979192D01*
X154422335Y-81015205D01*
X154467129Y-81169388D01*
X154467131Y-81169393D01*
X154548863Y-81307595D01*
X154548869Y-81307603D01*
X154662396Y-81421130D01*
X154662400Y-81421133D01*
X154662402Y-81421135D01*
X154800607Y-81502869D01*
X154800614Y-81502871D01*
X154954791Y-81547664D01*
X154954794Y-81547664D01*
X154954796Y-81547665D01*
X154990819Y-81550500D01*
X155389180Y-81550499D01*
X155425204Y-81547665D01*
X155579393Y-81502869D01*
X155636882Y-81468869D01*
X155704602Y-81451688D01*
X155763117Y-81468869D01*
X155820607Y-81502869D01*
X155820610Y-81502869D01*
X155820612Y-81502871D01*
X155974791Y-81547664D01*
X155974794Y-81547664D01*
X155974796Y-81547665D01*
X156010819Y-81550500D01*
X156409180Y-81550499D01*
X156445204Y-81547665D01*
X156599393Y-81502869D01*
X156737598Y-81421135D01*
X156739447Y-81419286D01*
X156752819Y-81405915D01*
X156814142Y-81372430D01*
X156883834Y-81377414D01*
X156939767Y-81419286D01*
X156964184Y-81484750D01*
X156964500Y-81493596D01*
X156964500Y-86850500D01*
X156944815Y-86917539D01*
X156892011Y-86963294D01*
X156840500Y-86974500D01*
X142436538Y-86974500D01*
X142369499Y-86954815D01*
X142323744Y-86902011D01*
X142313800Y-86832853D01*
X142317461Y-86815909D01*
X142317663Y-86815211D01*
X142317665Y-86815202D01*
X142319317Y-86794214D01*
X142320500Y-86779181D01*
X142320499Y-86380820D01*
X142317665Y-86344796D01*
X142272869Y-86190607D01*
X142191135Y-86052402D01*
X142191133Y-86052400D01*
X142191130Y-86052396D01*
X142121819Y-85983085D01*
X142088334Y-85921762D01*
X142085500Y-85895404D01*
X142085500Y-85292742D01*
X142087224Y-85277122D01*
X142086939Y-85277096D01*
X142087671Y-85269340D01*
X142087673Y-85269333D01*
X142085561Y-85202126D01*
X142085500Y-85198231D01*
X142085500Y-85170654D01*
X142085500Y-85170650D01*
X142084996Y-85166665D01*
X142084080Y-85155021D01*
X142082709Y-85111373D01*
X142077122Y-85092144D01*
X142073174Y-85073084D01*
X142070663Y-85053204D01*
X142054588Y-85012604D01*
X142050804Y-85001552D01*
X142038618Y-84959609D01*
X142038616Y-84959606D01*
X142028423Y-84942371D01*
X142019861Y-84924894D01*
X142012487Y-84906269D01*
X141986816Y-84870937D01*
X141980405Y-84861177D01*
X141958170Y-84823580D01*
X141958168Y-84823578D01*
X141958165Y-84823574D01*
X141944006Y-84809415D01*
X141931368Y-84794619D01*
X141919594Y-84778413D01*
X141885940Y-84750572D01*
X141877299Y-84742709D01*
X141361382Y-84226790D01*
X141361351Y-84226761D01*
X141281817Y-84147226D01*
X141248333Y-84085902D01*
X141245499Y-84059545D01*
X141245499Y-80104498D01*
X141265184Y-80037459D01*
X141317988Y-79991704D01*
X141369495Y-79980498D01*
X141967871Y-79980498D01*
X142027482Y-79974090D01*
X142064854Y-79960151D01*
X142076665Y-79955746D01*
X142146356Y-79950761D01*
X142163326Y-79955742D01*
X142197229Y-79968388D01*
X142212511Y-79974088D01*
X142212517Y-79974090D01*
X142272127Y-79980499D01*
X142967872Y-79980498D01*
X143027483Y-79974090D01*
X143076665Y-79955745D01*
X143146355Y-79950760D01*
X143163333Y-79955746D01*
X143212508Y-79974087D01*
X143212511Y-79974088D01*
X143212517Y-79974090D01*
X143272127Y-79980499D01*
X143967872Y-79980498D01*
X144027483Y-79974090D01*
X144076665Y-79955745D01*
X144146355Y-79950760D01*
X144163321Y-79955741D01*
X144212515Y-79974090D01*
X144272125Y-79980499D01*
X144967870Y-79980498D01*
X145027481Y-79974090D01*
X145064853Y-79960151D01*
X145076664Y-79955746D01*
X145146355Y-79950761D01*
X145163325Y-79955742D01*
X145197228Y-79968388D01*
X145212510Y-79974088D01*
X145212516Y-79974090D01*
X145272126Y-79980499D01*
X145967871Y-79980498D01*
X146027482Y-79974090D01*
X146064854Y-79960151D01*
X146076665Y-79955746D01*
X146146356Y-79950761D01*
X146163326Y-79955742D01*
X146197229Y-79968388D01*
X146212511Y-79974088D01*
X146212517Y-79974090D01*
X146272127Y-79980499D01*
X146967872Y-79980498D01*
X147027483Y-79974090D01*
X147076665Y-79955745D01*
X147146355Y-79950760D01*
X147163333Y-79955746D01*
X147212508Y-79974087D01*
X147212511Y-79974088D01*
X147212517Y-79974090D01*
X147272127Y-79980499D01*
X147967872Y-79980498D01*
X148027483Y-79974090D01*
X148064855Y-79960151D01*
X148076666Y-79955746D01*
X148146357Y-79950761D01*
X148163327Y-79955742D01*
X148197230Y-79968388D01*
X148212512Y-79974088D01*
X148212518Y-79974090D01*
X148272128Y-79980499D01*
X148967873Y-79980498D01*
X149027484Y-79974090D01*
X149076666Y-79955745D01*
X149146356Y-79950760D01*
X149163322Y-79955741D01*
X149212516Y-79974090D01*
X149272126Y-79980499D01*
X149967871Y-79980498D01*
X150027482Y-79974090D01*
X150076664Y-79955745D01*
X150146354Y-79950760D01*
X150163332Y-79955746D01*
X150212507Y-79974087D01*
X150212510Y-79974088D01*
X150212516Y-79974090D01*
X150272126Y-79980499D01*
X150633348Y-79980498D01*
X150700386Y-80000182D01*
X150746141Y-80052986D01*
X150756085Y-80122145D01*
X150754639Y-80130270D01*
X150754327Y-80131735D01*
X150754326Y-80131743D01*
X150754326Y-80131744D01*
X150734540Y-80320000D01*
X150754326Y-80508256D01*
X150754327Y-80508259D01*
X150812818Y-80688277D01*
X150812821Y-80688284D01*
X150907467Y-80852216D01*
X150975934Y-80928256D01*
X151034129Y-80992888D01*
X151187265Y-81104148D01*
X151187270Y-81104151D01*
X151360192Y-81181142D01*
X151360197Y-81181144D01*
X151545354Y-81220500D01*
X151545355Y-81220500D01*
X151734644Y-81220500D01*
X151734646Y-81220500D01*
X151919803Y-81181144D01*
X152092730Y-81104151D01*
X152245871Y-80992888D01*
X152372533Y-80852216D01*
X152467179Y-80688284D01*
X152525674Y-80508256D01*
X152545460Y-80320000D01*
X152525674Y-80131744D01*
X152467179Y-79951716D01*
X152401055Y-79837186D01*
X152381280Y-79802934D01*
X152364807Y-79735033D01*
X152372486Y-79697600D01*
X152413595Y-79587382D01*
X152413598Y-79587371D01*
X152419999Y-79527843D01*
X152420000Y-79527826D01*
X152420000Y-78529999D01*
X151544498Y-78529999D01*
X151477459Y-78510314D01*
X151431704Y-78457510D01*
X151420498Y-78405999D01*
X151420498Y-78153999D01*
X151440183Y-78086960D01*
X151492987Y-78041205D01*
X151544498Y-78029999D01*
X152420000Y-78029999D01*
X152420000Y-77054500D01*
X152439685Y-76987461D01*
X152492489Y-76941706D01*
X152544000Y-76930500D01*
X153236108Y-76930500D01*
X153303147Y-76950185D01*
G37*
%TD.AperFunction*%
%TA.AperFunction,Conductor*%
G36*
X155357539Y-76659685D02*
G01*
X155403294Y-76712489D01*
X155414500Y-76764000D01*
X155414500Y-77127947D01*
X155417390Y-77164673D01*
X155417391Y-77164679D01*
X155463066Y-77321892D01*
X155463068Y-77321895D01*
X155472732Y-77338236D01*
X155490000Y-77401357D01*
X155490000Y-77706991D01*
X155646696Y-77661468D01*
X155661386Y-77652781D01*
X155729110Y-77635597D01*
X155787628Y-77652779D01*
X155803103Y-77661931D01*
X155803104Y-77661931D01*
X155803107Y-77661933D01*
X155960320Y-77707608D01*
X155960323Y-77707608D01*
X155960325Y-77707609D01*
X155997060Y-77710500D01*
X155997068Y-77710500D01*
X156422932Y-77710500D01*
X156422940Y-77710500D01*
X156459675Y-77707609D01*
X156459677Y-77707608D01*
X156459679Y-77707608D01*
X156616892Y-77661933D01*
X156616893Y-77661932D01*
X156616897Y-77661931D01*
X156757820Y-77578590D01*
X156757825Y-77578585D01*
X156762819Y-77573592D01*
X156824142Y-77540107D01*
X156893834Y-77545091D01*
X156949767Y-77586963D01*
X156974184Y-77652427D01*
X156974500Y-77661273D01*
X156974500Y-78108727D01*
X156954815Y-78175766D01*
X156902011Y-78221521D01*
X156832853Y-78231465D01*
X156769297Y-78202440D01*
X156762819Y-78196408D01*
X156757825Y-78191414D01*
X156757817Y-78191408D01*
X156632372Y-78117221D01*
X156616897Y-78108069D01*
X156616896Y-78108068D01*
X156616895Y-78108068D01*
X156616892Y-78108066D01*
X156459679Y-78062391D01*
X156459673Y-78062390D01*
X156422947Y-78059500D01*
X156422940Y-78059500D01*
X155997060Y-78059500D01*
X155997052Y-78059500D01*
X155960326Y-78062390D01*
X155960320Y-78062391D01*
X155803103Y-78108068D01*
X155803102Y-78108068D01*
X155787625Y-78117221D01*
X155719900Y-78134400D01*
X155661392Y-78117220D01*
X155646704Y-78108534D01*
X155646691Y-78108529D01*
X155490001Y-78063005D01*
X155490000Y-78063006D01*
X155490000Y-78368641D01*
X155472734Y-78431759D01*
X155463067Y-78448104D01*
X155417391Y-78605320D01*
X155417390Y-78605326D01*
X155414500Y-78642052D01*
X155414500Y-79006000D01*
X155394815Y-79073039D01*
X155342011Y-79118794D01*
X155290500Y-79130000D01*
X155114000Y-79130000D01*
X155046961Y-79110315D01*
X155001206Y-79057511D01*
X154990000Y-79006000D01*
X154990000Y-78058314D01*
X154956172Y-78012990D01*
X154951288Y-77943291D01*
X154965025Y-77907832D01*
X155005179Y-77838284D01*
X155063674Y-77658256D01*
X155083460Y-77470000D01*
X155063674Y-77281744D01*
X155005179Y-77101716D01*
X155005178Y-77101715D01*
X155005178Y-77101713D01*
X155002536Y-77095778D01*
X155004160Y-77095054D01*
X154990000Y-77042198D01*
X154990000Y-76764000D01*
X155009685Y-76696961D01*
X155062489Y-76651206D01*
X155114000Y-76640000D01*
X155290500Y-76640000D01*
X155357539Y-76659685D01*
G37*
%TD.AperFunction*%
%TA.AperFunction,Conductor*%
G36*
X154917459Y-59065185D02*
G01*
X154963214Y-59117989D01*
X154973740Y-59182459D01*
X154964540Y-59270000D01*
X154984326Y-59458256D01*
X154984327Y-59458259D01*
X155042818Y-59638277D01*
X155042821Y-59638284D01*
X155137467Y-59802216D01*
X155215009Y-59888335D01*
X155264129Y-59942888D01*
X155417265Y-60054148D01*
X155417270Y-60054151D01*
X155590192Y-60131142D01*
X155590197Y-60131144D01*
X155775354Y-60170500D01*
X155775355Y-60170500D01*
X155964644Y-60170500D01*
X155964646Y-60170500D01*
X156149803Y-60131144D01*
X156322730Y-60054151D01*
X156395662Y-60001163D01*
X156420557Y-59983076D01*
X156486363Y-59959596D01*
X156554417Y-59975421D01*
X156581123Y-59995713D01*
X156658181Y-60072771D01*
X156691666Y-60134094D01*
X156694500Y-60160452D01*
X156694500Y-62791312D01*
X156674815Y-62858351D01*
X156662650Y-62874284D01*
X156587466Y-62957784D01*
X156492821Y-63121715D01*
X156492818Y-63121722D01*
X156434327Y-63301740D01*
X156434326Y-63301744D01*
X156414540Y-63490000D01*
X156434326Y-63678256D01*
X156434327Y-63678259D01*
X156492818Y-63858277D01*
X156492821Y-63858284D01*
X156587467Y-64022216D01*
X156677945Y-64122702D01*
X156714129Y-64162888D01*
X156867265Y-64274148D01*
X156867270Y-64274151D01*
X157040192Y-64351142D01*
X157040197Y-64351144D01*
X157225354Y-64390500D01*
X157225355Y-64390500D01*
X157414644Y-64390500D01*
X157414646Y-64390500D01*
X157599803Y-64351144D01*
X157772730Y-64274151D01*
X157925871Y-64162888D01*
X158052533Y-64022216D01*
X158147179Y-63858284D01*
X158205674Y-63678256D01*
X158225460Y-63490000D01*
X158205674Y-63301744D01*
X158147179Y-63121716D01*
X158052533Y-62957784D01*
X158044448Y-62948805D01*
X157977350Y-62874284D01*
X157947120Y-62811292D01*
X157945500Y-62791312D01*
X157945500Y-60025862D01*
X157960000Y-59976480D01*
X157960000Y-59959001D01*
X157979685Y-59891962D01*
X158032489Y-59846207D01*
X158101647Y-59836263D01*
X158159484Y-59860624D01*
X158194767Y-59887698D01*
X158194774Y-59887701D01*
X158197996Y-59889561D01*
X158200178Y-59891850D01*
X158201216Y-59892646D01*
X158201091Y-59892807D01*
X158246213Y-59940127D01*
X158248162Y-59948162D01*
X158260000Y-59960000D01*
X158272689Y-59960000D01*
X158322521Y-59953439D01*
X158391557Y-59964204D01*
X158414704Y-59978396D01*
X158415058Y-59978671D01*
X158415061Y-59978672D01*
X158415064Y-59978674D01*
X158451231Y-59994323D01*
X158455155Y-59996022D01*
X158465635Y-60001155D01*
X158503908Y-60022197D01*
X158523312Y-60027179D01*
X158541710Y-60033478D01*
X158560105Y-60041438D01*
X158603254Y-60048271D01*
X158614680Y-60050638D01*
X158656981Y-60061500D01*
X158677016Y-60061500D01*
X158696413Y-60063026D01*
X158716196Y-60066160D01*
X158759675Y-60062050D01*
X158771344Y-60061500D01*
X159015737Y-60061500D01*
X159082776Y-60081185D01*
X159128531Y-60133989D01*
X159139676Y-60181603D01*
X159140439Y-60205870D01*
X159140500Y-60209767D01*
X159140500Y-60237357D01*
X159141003Y-60241335D01*
X159141918Y-60252967D01*
X159143290Y-60296624D01*
X159143291Y-60296627D01*
X159148880Y-60315867D01*
X159152824Y-60334911D01*
X159153300Y-60338674D01*
X159155336Y-60354792D01*
X159171414Y-60395403D01*
X159175197Y-60406452D01*
X159187381Y-60448388D01*
X159197580Y-60465634D01*
X159206136Y-60483100D01*
X159210984Y-60495343D01*
X159213514Y-60501732D01*
X159239181Y-60537060D01*
X159245593Y-60546821D01*
X159267828Y-60584417D01*
X159267833Y-60584424D01*
X159281990Y-60598580D01*
X159294628Y-60613376D01*
X159306405Y-60629586D01*
X159306406Y-60629587D01*
X159340057Y-60657425D01*
X159348698Y-60665288D01*
X159773194Y-61089784D01*
X159783017Y-61102045D01*
X159783239Y-61101863D01*
X159788211Y-61107873D01*
X159788214Y-61107877D01*
X159828159Y-61145388D01*
X159837223Y-61153900D01*
X159840021Y-61156612D01*
X159859522Y-61176114D01*
X159859526Y-61176117D01*
X159859529Y-61176120D01*
X159862702Y-61178581D01*
X159871574Y-61186159D01*
X159903418Y-61216062D01*
X159920976Y-61225714D01*
X159937237Y-61236396D01*
X159959230Y-61253456D01*
X159957553Y-61255617D01*
X159996293Y-61297090D01*
X160009500Y-61352777D01*
X160009500Y-61987870D01*
X160009501Y-61987876D01*
X160015908Y-62047483D01*
X160066202Y-62182328D01*
X160066203Y-62182329D01*
X160066204Y-62182331D01*
X160152454Y-62297546D01*
X160204810Y-62336739D01*
X160246682Y-62392672D01*
X160254500Y-62436006D01*
X160254500Y-63599546D01*
X160234815Y-63666585D01*
X160218181Y-63687227D01*
X155776208Y-68129199D01*
X155763951Y-68139020D01*
X155764134Y-68139241D01*
X155758122Y-68144214D01*
X155712098Y-68193223D01*
X155709391Y-68196016D01*
X155689889Y-68215517D01*
X155689875Y-68215534D01*
X155687407Y-68218715D01*
X155679843Y-68227570D01*
X155649937Y-68259418D01*
X155649936Y-68259420D01*
X155640284Y-68276976D01*
X155629610Y-68293226D01*
X155617329Y-68309061D01*
X155617324Y-68309068D01*
X155599975Y-68349158D01*
X155594838Y-68359644D01*
X155573803Y-68397906D01*
X155568822Y-68417307D01*
X155562521Y-68435710D01*
X155554562Y-68454102D01*
X155554561Y-68454105D01*
X155547728Y-68497243D01*
X155545360Y-68508674D01*
X155534501Y-68550971D01*
X155534500Y-68550982D01*
X155534500Y-68571016D01*
X155532973Y-68590415D01*
X155529840Y-68610194D01*
X155529840Y-68610195D01*
X155533950Y-68653674D01*
X155534500Y-68665343D01*
X155534500Y-69410211D01*
X155514815Y-69477250D01*
X155462011Y-69523005D01*
X155392853Y-69532949D01*
X155329297Y-69503924D01*
X155318351Y-69493184D01*
X155285871Y-69457112D01*
X155285870Y-69457111D01*
X155132734Y-69345851D01*
X155132729Y-69345848D01*
X154959807Y-69268857D01*
X154959802Y-69268855D01*
X154814001Y-69237865D01*
X154774646Y-69229500D01*
X154585354Y-69229500D01*
X154552897Y-69236398D01*
X154400197Y-69268855D01*
X154400192Y-69268857D01*
X154227270Y-69345848D01*
X154227265Y-69345851D01*
X154074130Y-69457110D01*
X154074126Y-69457114D01*
X154068400Y-69463474D01*
X154008913Y-69500121D01*
X153976252Y-69504500D01*
X153944499Y-69504500D01*
X153877460Y-69484815D01*
X153831705Y-69432011D01*
X153820499Y-69380500D01*
X153820498Y-68782128D01*
X153820497Y-68782122D01*
X153814090Y-68722515D01*
X153763796Y-68587670D01*
X153763792Y-68587663D01*
X153677546Y-68472454D01*
X153677543Y-68472451D01*
X153562334Y-68386205D01*
X153562327Y-68386201D01*
X153427481Y-68335907D01*
X153427482Y-68335907D01*
X153367882Y-68329500D01*
X153367880Y-68329499D01*
X153367872Y-68329499D01*
X153367864Y-68329499D01*
X152544000Y-68329499D01*
X152476961Y-68309814D01*
X152431206Y-68257010D01*
X152420000Y-68205499D01*
X152420000Y-67230001D01*
X151544499Y-67230001D01*
X151477460Y-67210316D01*
X151431705Y-67157512D01*
X151420499Y-67106001D01*
X151420498Y-66854001D01*
X151440182Y-66786962D01*
X151492986Y-66741207D01*
X151544498Y-66730001D01*
X152420000Y-66730001D01*
X152420000Y-65732173D01*
X152419999Y-65732156D01*
X152413598Y-65672628D01*
X152413596Y-65672621D01*
X152363354Y-65537914D01*
X152363350Y-65537907D01*
X152344952Y-65513330D01*
X152320535Y-65447866D01*
X152335387Y-65379593D01*
X152352066Y-65356052D01*
X152382533Y-65322216D01*
X152477179Y-65158284D01*
X152528609Y-65000000D01*
X153884540Y-65000000D01*
X153904326Y-65188256D01*
X153904327Y-65188259D01*
X153962818Y-65368277D01*
X153962821Y-65368284D01*
X154057467Y-65532216D01*
X154117096Y-65598440D01*
X154184129Y-65672888D01*
X154337265Y-65784148D01*
X154337270Y-65784151D01*
X154510192Y-65861142D01*
X154510197Y-65861144D01*
X154695354Y-65900500D01*
X154695355Y-65900500D01*
X154884644Y-65900500D01*
X154884646Y-65900500D01*
X155069803Y-65861144D01*
X155242730Y-65784151D01*
X155395871Y-65672888D01*
X155522533Y-65532216D01*
X155617179Y-65368284D01*
X155675674Y-65188256D01*
X155695460Y-65000000D01*
X155675674Y-64811744D01*
X155617179Y-64631716D01*
X155522533Y-64467784D01*
X155516086Y-64460624D01*
X155447350Y-64384284D01*
X155417120Y-64321292D01*
X155415500Y-64301312D01*
X155415500Y-63948687D01*
X155435185Y-63881648D01*
X155447350Y-63865715D01*
X155465891Y-63845122D01*
X155522533Y-63782216D01*
X155617179Y-63618284D01*
X155675674Y-63438256D01*
X155695460Y-63250000D01*
X155675674Y-63061744D01*
X155617179Y-62881716D01*
X155522533Y-62717784D01*
X155395871Y-62577112D01*
X155395870Y-62577111D01*
X155242734Y-62465851D01*
X155242729Y-62465848D01*
X155069807Y-62388857D01*
X155069802Y-62388855D01*
X154924001Y-62357865D01*
X154884646Y-62349500D01*
X154695354Y-62349500D01*
X154662897Y-62356398D01*
X154510197Y-62388855D01*
X154510192Y-62388857D01*
X154337270Y-62465848D01*
X154337265Y-62465851D01*
X154184129Y-62577111D01*
X154057466Y-62717785D01*
X153962821Y-62881715D01*
X153962818Y-62881722D01*
X153904327Y-63061740D01*
X153904326Y-63061744D01*
X153884540Y-63250000D01*
X153904326Y-63438256D01*
X153904327Y-63438259D01*
X153962818Y-63618277D01*
X153962821Y-63618284D01*
X154057467Y-63782216D01*
X154076563Y-63803424D01*
X154132650Y-63865715D01*
X154162880Y-63928706D01*
X154164500Y-63948687D01*
X154164500Y-64301312D01*
X154144815Y-64368351D01*
X154132650Y-64384284D01*
X154057466Y-64467784D01*
X153962821Y-64631715D01*
X153962818Y-64631722D01*
X153906830Y-64804036D01*
X153904326Y-64811744D01*
X153884540Y-65000000D01*
X152528609Y-65000000D01*
X152535674Y-64978256D01*
X152555460Y-64790000D01*
X152535674Y-64601744D01*
X152477179Y-64421716D01*
X152382533Y-64257784D01*
X152255871Y-64117112D01*
X152245525Y-64109595D01*
X152102734Y-64005851D01*
X152102729Y-64005848D01*
X151929807Y-63928857D01*
X151929802Y-63928855D01*
X151784001Y-63897865D01*
X151744646Y-63889500D01*
X151555354Y-63889500D01*
X151522897Y-63896398D01*
X151370197Y-63928855D01*
X151370192Y-63928857D01*
X151197270Y-64005848D01*
X151197265Y-64005851D01*
X151044129Y-64117111D01*
X150917466Y-64257785D01*
X150822821Y-64421715D01*
X150822818Y-64421722D01*
X150764327Y-64601740D01*
X150764326Y-64601744D01*
X150744540Y-64790000D01*
X150764326Y-64978256D01*
X150764327Y-64978259D01*
X150809466Y-65117183D01*
X150811461Y-65187024D01*
X150775381Y-65246857D01*
X150712680Y-65277685D01*
X150691535Y-65279501D01*
X150272128Y-65279501D01*
X150272122Y-65279502D01*
X150212517Y-65285909D01*
X150163332Y-65304254D01*
X150093640Y-65309237D01*
X150076668Y-65304254D01*
X150027485Y-65285910D01*
X150022064Y-65285327D01*
X149967874Y-65279501D01*
X149967864Y-65279501D01*
X149272130Y-65279501D01*
X149272124Y-65279502D01*
X149212517Y-65285909D01*
X149163333Y-65304254D01*
X149093641Y-65309238D01*
X149076668Y-65304254D01*
X149027487Y-65285911D01*
X149027486Y-65285910D01*
X149027484Y-65285910D01*
X148967874Y-65279501D01*
X148967864Y-65279501D01*
X148272130Y-65279501D01*
X148272124Y-65279502D01*
X148212519Y-65285909D01*
X148163331Y-65304255D01*
X148093640Y-65309238D01*
X148076667Y-65304254D01*
X148027482Y-65285909D01*
X148027483Y-65285909D01*
X147967883Y-65279502D01*
X147967881Y-65279501D01*
X147967873Y-65279501D01*
X147967865Y-65279501D01*
X147419500Y-65279501D01*
X147352461Y-65259816D01*
X147306706Y-65207012D01*
X147295500Y-65155501D01*
X147295500Y-60440452D01*
X147315185Y-60373413D01*
X147331819Y-60352771D01*
X147932772Y-59751819D01*
X147994095Y-59718334D01*
X148020453Y-59715500D01*
X153687257Y-59715500D01*
X153702877Y-59717224D01*
X153702904Y-59716939D01*
X153710660Y-59717671D01*
X153710667Y-59717673D01*
X153777873Y-59715561D01*
X153781768Y-59715500D01*
X153809346Y-59715500D01*
X153809350Y-59715500D01*
X153813324Y-59714997D01*
X153824963Y-59714080D01*
X153868627Y-59712709D01*
X153887869Y-59707117D01*
X153906912Y-59703174D01*
X153926792Y-59700664D01*
X153967401Y-59684585D01*
X153978444Y-59680803D01*
X154020390Y-59668618D01*
X154037629Y-59658422D01*
X154055103Y-59649862D01*
X154073727Y-59642488D01*
X154073727Y-59642487D01*
X154073732Y-59642486D01*
X154109083Y-59616800D01*
X154118814Y-59610408D01*
X154156420Y-59588170D01*
X154170589Y-59573999D01*
X154185379Y-59561368D01*
X154201587Y-59549594D01*
X154229438Y-59515926D01*
X154237269Y-59507319D01*
X154662773Y-59081816D01*
X154724095Y-59048334D01*
X154750453Y-59045500D01*
X154850420Y-59045500D01*
X154917459Y-59065185D01*
G37*
%TD.AperFunction*%
%TD*%
M02*
