M48
; DRILL file {KiCad 7.0.10} date Wed Jan 17 02:44:30 2024
; FORMAT={-:-/ absolute / inch / decimal}
; #@! TF.CreationDate,2024-01-17T02:44:30+05:30
; #@! TF.GenerationSoftware,Kicad,Pcbnew,7.0.10
; #@! TF.FileFunction,Plated,1,2,PTH
FMAT,2
INCH
; #@! TA.AperFunction,Plated,PTH,ViaDrill
T1C0.0157
; #@! TA.AperFunction,Plated,PTH,ComponentDrill
T2C0.0330
; #@! TA.AperFunction,Plated,PTH,ViaDrill
T3C0.0394
; #@! TA.AperFunction,Plated,PTH,ComponentDrill
T4C0.0433
; #@! TA.AperFunction,Plated,PTH,ComponentDrill
T5C0.0512
; #@! TA.AperFunction,Plated,PTH,ComponentDrill
T6C0.2000
; #@! TA.AperFunction,Plated,PTH,ComponentDrill
T7C0.2992
%
G90
G05
T1
X5.42Y-3.26
X5.42Y-3.38
X5.42Y-3.51
X5.43Y-2.15
X5.43Y-2.32
X5.43Y-2.5
X5.4567Y-2.5531
X5.4567Y-3.1787
X5.4965Y-2.5528
X5.5Y-3.51
X5.52Y-2.15
X5.5354Y-2.5531
X5.59Y-3.51
X5.6Y-2.15
X5.63Y-4.16
X5.67Y-3.51
X5.69Y-2.15
X5.7232Y-3.0043
X5.75Y-2.9543
X5.76Y-3.51
X5.7735Y-3.0161
X5.7744Y-2.8543
X5.8Y-2.15
X5.85Y-2.84
X5.87Y-3.51
X5.8894Y-3.0161
X5.9Y-2.15
X5.9Y-4.09
X5.9701Y-3.1622
X5.9705Y-2.5508
X5.99Y-2.15
X6.01Y-4.09
X6.07Y-2.93
X6.07Y-3.05
X6.0898Y-2.761
X6.09Y-2.8
X6.0941Y-2.4902
X6.0941Y-2.5591
X6.1Y-4.24
X6.113Y-3.1421
X6.1366Y-2.3335
X6.1378Y-2.2642
X6.1937Y-2.4996
X6.2047Y-3.1787
X6.2063Y-2.1394
X6.2075Y-2.1748
X6.2075Y-2.2185
X6.2114Y-3.7902
X6.26Y-3.27
X6.26Y-3.45
X6.27Y-3.8
X6.35Y-3.93
X6.4094Y-2.5059
X6.4339Y-2.4713
X6.44Y-3.96
X6.45Y-3.85
X6.46Y-4.03
X6.4843Y-2.4713
X6.5161Y-4.4559
X6.55Y-3.85
X6.6Y-3.46
X6.66Y-3.3269
X6.698Y-3.1469
X6.7004Y-4.1583
X7.1122Y-4.9803
X7.24Y-4.79
X7.37Y-4.79
T2
X7.19Y-3.91
X7.2609Y-3.6147
T3
X6.8575Y-4.8866
T4
X5.6616Y-3.7787
X5.6616Y-3.8787
X5.6616Y-3.9787
T5
X5.7028Y-4.6213
X5.7028Y-4.9283
X7.376Y-4.3299
X7.376Y-5.2197
T6
X6.0823Y-3.6264
X6.835Y-3.6283
T7
X6.4516Y-2.7449
M30
