%TF.GenerationSoftware,KiCad,Pcbnew,7.0.10*%
%TF.CreationDate,2024-01-17T02:44:35+05:30*%
%TF.ProjectId,open_src,6f70656e-5f73-4726-932e-6b696361645f,rev?*%
%TF.SameCoordinates,Original*%
%TF.FileFunction,Legend,Bot*%
%TF.FilePolarity,Positive*%
%FSLAX46Y46*%
G04 Gerber Fmt 4.6, Leading zero omitted, Abs format (unit mm)*
G04 Created by KiCad (PCBNEW 7.0.10) date 2024-01-17 02:44:35*
%MOMM*%
%LPD*%
G01*
G04 APERTURE LIST*
%ADD10C,0.150000*%
%ADD11C,0.152400*%
%ADD12C,0.120000*%
G04 APERTURE END LIST*
D10*
X155311904Y-100784819D02*
X155311904Y-101594342D01*
X155311904Y-101594342D02*
X155264285Y-101689580D01*
X155264285Y-101689580D02*
X155216666Y-101737200D01*
X155216666Y-101737200D02*
X155121428Y-101784819D01*
X155121428Y-101784819D02*
X154930952Y-101784819D01*
X154930952Y-101784819D02*
X154835714Y-101737200D01*
X154835714Y-101737200D02*
X154788095Y-101689580D01*
X154788095Y-101689580D02*
X154740476Y-101594342D01*
X154740476Y-101594342D02*
X154740476Y-100784819D01*
X154359523Y-100784819D02*
X153740476Y-100784819D01*
X153740476Y-100784819D02*
X154073809Y-101165771D01*
X154073809Y-101165771D02*
X153930952Y-101165771D01*
X153930952Y-101165771D02*
X153835714Y-101213390D01*
X153835714Y-101213390D02*
X153788095Y-101261009D01*
X153788095Y-101261009D02*
X153740476Y-101356247D01*
X153740476Y-101356247D02*
X153740476Y-101594342D01*
X153740476Y-101594342D02*
X153788095Y-101689580D01*
X153788095Y-101689580D02*
X153835714Y-101737200D01*
X153835714Y-101737200D02*
X153930952Y-101784819D01*
X153930952Y-101784819D02*
X154216666Y-101784819D01*
X154216666Y-101784819D02*
X154311904Y-101737200D01*
X154311904Y-101737200D02*
X154359523Y-101689580D01*
X159414099Y-95755619D02*
X159414099Y-95993714D01*
X159652194Y-95898476D02*
X159414099Y-95993714D01*
X159414099Y-95993714D02*
X159176004Y-95898476D01*
X159556956Y-96184190D02*
X159414099Y-95993714D01*
X159414099Y-95993714D02*
X159271242Y-96184190D01*
X159414099Y-95755619D02*
X159414099Y-95993714D01*
X159652194Y-95898476D02*
X159414099Y-95993714D01*
X159414099Y-95993714D02*
X159176004Y-95898476D01*
X159556956Y-96184190D02*
X159414099Y-95993714D01*
X159414099Y-95993714D02*
X159271242Y-96184190D01*
X163710857Y-100630819D02*
X164044190Y-100154628D01*
X164282285Y-100630819D02*
X164282285Y-99630819D01*
X164282285Y-99630819D02*
X163901333Y-99630819D01*
X163901333Y-99630819D02*
X163806095Y-99678438D01*
X163806095Y-99678438D02*
X163758476Y-99726057D01*
X163758476Y-99726057D02*
X163710857Y-99821295D01*
X163710857Y-99821295D02*
X163710857Y-99964152D01*
X163710857Y-99964152D02*
X163758476Y-100059390D01*
X163758476Y-100059390D02*
X163806095Y-100107009D01*
X163806095Y-100107009D02*
X163901333Y-100154628D01*
X163901333Y-100154628D02*
X164282285Y-100154628D01*
X162758476Y-100630819D02*
X163329904Y-100630819D01*
X163044190Y-100630819D02*
X163044190Y-99630819D01*
X163044190Y-99630819D02*
X163139428Y-99773676D01*
X163139428Y-99773676D02*
X163234666Y-99868914D01*
X163234666Y-99868914D02*
X163329904Y-99916533D01*
X162139428Y-99630819D02*
X162044190Y-99630819D01*
X162044190Y-99630819D02*
X161948952Y-99678438D01*
X161948952Y-99678438D02*
X161901333Y-99726057D01*
X161901333Y-99726057D02*
X161853714Y-99821295D01*
X161853714Y-99821295D02*
X161806095Y-100011771D01*
X161806095Y-100011771D02*
X161806095Y-100249866D01*
X161806095Y-100249866D02*
X161853714Y-100440342D01*
X161853714Y-100440342D02*
X161901333Y-100535580D01*
X161901333Y-100535580D02*
X161948952Y-100583200D01*
X161948952Y-100583200D02*
X162044190Y-100630819D01*
X162044190Y-100630819D02*
X162139428Y-100630819D01*
X162139428Y-100630819D02*
X162234666Y-100583200D01*
X162234666Y-100583200D02*
X162282285Y-100535580D01*
X162282285Y-100535580D02*
X162329904Y-100440342D01*
X162329904Y-100440342D02*
X162377523Y-100249866D01*
X162377523Y-100249866D02*
X162377523Y-100011771D01*
X162377523Y-100011771D02*
X162329904Y-99821295D01*
X162329904Y-99821295D02*
X162282285Y-99726057D01*
X162282285Y-99726057D02*
X162234666Y-99678438D01*
X162234666Y-99678438D02*
X162139428Y-99630819D01*
X161270819Y-94255333D02*
X160794628Y-93922000D01*
X161270819Y-93683905D02*
X160270819Y-93683905D01*
X160270819Y-93683905D02*
X160270819Y-94064857D01*
X160270819Y-94064857D02*
X160318438Y-94160095D01*
X160318438Y-94160095D02*
X160366057Y-94207714D01*
X160366057Y-94207714D02*
X160461295Y-94255333D01*
X160461295Y-94255333D02*
X160604152Y-94255333D01*
X160604152Y-94255333D02*
X160699390Y-94207714D01*
X160699390Y-94207714D02*
X160747009Y-94160095D01*
X160747009Y-94160095D02*
X160794628Y-94064857D01*
X160794628Y-94064857D02*
X160794628Y-93683905D01*
X161270819Y-94731524D02*
X161270819Y-94922000D01*
X161270819Y-94922000D02*
X161223200Y-95017238D01*
X161223200Y-95017238D02*
X161175580Y-95064857D01*
X161175580Y-95064857D02*
X161032723Y-95160095D01*
X161032723Y-95160095D02*
X160842247Y-95207714D01*
X160842247Y-95207714D02*
X160461295Y-95207714D01*
X160461295Y-95207714D02*
X160366057Y-95160095D01*
X160366057Y-95160095D02*
X160318438Y-95112476D01*
X160318438Y-95112476D02*
X160270819Y-95017238D01*
X160270819Y-95017238D02*
X160270819Y-94826762D01*
X160270819Y-94826762D02*
X160318438Y-94731524D01*
X160318438Y-94731524D02*
X160366057Y-94683905D01*
X160366057Y-94683905D02*
X160461295Y-94636286D01*
X160461295Y-94636286D02*
X160699390Y-94636286D01*
X160699390Y-94636286D02*
X160794628Y-94683905D01*
X160794628Y-94683905D02*
X160842247Y-94731524D01*
X160842247Y-94731524D02*
X160889866Y-94826762D01*
X160889866Y-94826762D02*
X160889866Y-95017238D01*
X160889866Y-95017238D02*
X160842247Y-95112476D01*
X160842247Y-95112476D02*
X160794628Y-95160095D01*
X160794628Y-95160095D02*
X160699390Y-95207714D01*
X158060819Y-94265333D02*
X157584628Y-93932000D01*
X158060819Y-93693905D02*
X157060819Y-93693905D01*
X157060819Y-93693905D02*
X157060819Y-94074857D01*
X157060819Y-94074857D02*
X157108438Y-94170095D01*
X157108438Y-94170095D02*
X157156057Y-94217714D01*
X157156057Y-94217714D02*
X157251295Y-94265333D01*
X157251295Y-94265333D02*
X157394152Y-94265333D01*
X157394152Y-94265333D02*
X157489390Y-94217714D01*
X157489390Y-94217714D02*
X157537009Y-94170095D01*
X157537009Y-94170095D02*
X157584628Y-94074857D01*
X157584628Y-94074857D02*
X157584628Y-93693905D01*
X157489390Y-94836762D02*
X157441771Y-94741524D01*
X157441771Y-94741524D02*
X157394152Y-94693905D01*
X157394152Y-94693905D02*
X157298914Y-94646286D01*
X157298914Y-94646286D02*
X157251295Y-94646286D01*
X157251295Y-94646286D02*
X157156057Y-94693905D01*
X157156057Y-94693905D02*
X157108438Y-94741524D01*
X157108438Y-94741524D02*
X157060819Y-94836762D01*
X157060819Y-94836762D02*
X157060819Y-95027238D01*
X157060819Y-95027238D02*
X157108438Y-95122476D01*
X157108438Y-95122476D02*
X157156057Y-95170095D01*
X157156057Y-95170095D02*
X157251295Y-95217714D01*
X157251295Y-95217714D02*
X157298914Y-95217714D01*
X157298914Y-95217714D02*
X157394152Y-95170095D01*
X157394152Y-95170095D02*
X157441771Y-95122476D01*
X157441771Y-95122476D02*
X157489390Y-95027238D01*
X157489390Y-95027238D02*
X157489390Y-94836762D01*
X157489390Y-94836762D02*
X157537009Y-94741524D01*
X157537009Y-94741524D02*
X157584628Y-94693905D01*
X157584628Y-94693905D02*
X157679866Y-94646286D01*
X157679866Y-94646286D02*
X157870342Y-94646286D01*
X157870342Y-94646286D02*
X157965580Y-94693905D01*
X157965580Y-94693905D02*
X158013200Y-94741524D01*
X158013200Y-94741524D02*
X158060819Y-94836762D01*
X158060819Y-94836762D02*
X158060819Y-95027238D01*
X158060819Y-95027238D02*
X158013200Y-95122476D01*
X158013200Y-95122476D02*
X157965580Y-95170095D01*
X157965580Y-95170095D02*
X157870342Y-95217714D01*
X157870342Y-95217714D02*
X157679866Y-95217714D01*
X157679866Y-95217714D02*
X157584628Y-95170095D01*
X157584628Y-95170095D02*
X157537009Y-95122476D01*
X157537009Y-95122476D02*
X157489390Y-95027238D01*
X167552666Y-104748819D02*
X167885999Y-104272628D01*
X168124094Y-104748819D02*
X168124094Y-103748819D01*
X168124094Y-103748819D02*
X167743142Y-103748819D01*
X167743142Y-103748819D02*
X167647904Y-103796438D01*
X167647904Y-103796438D02*
X167600285Y-103844057D01*
X167600285Y-103844057D02*
X167552666Y-103939295D01*
X167552666Y-103939295D02*
X167552666Y-104082152D01*
X167552666Y-104082152D02*
X167600285Y-104177390D01*
X167600285Y-104177390D02*
X167647904Y-104225009D01*
X167647904Y-104225009D02*
X167743142Y-104272628D01*
X167743142Y-104272628D02*
X168124094Y-104272628D01*
X166695523Y-104082152D02*
X166695523Y-104748819D01*
X166933618Y-103701200D02*
X167171713Y-104415485D01*
X167171713Y-104415485D02*
X166552666Y-104415485D01*
X164184819Y-99143333D02*
X163708628Y-98810000D01*
X164184819Y-98571905D02*
X163184819Y-98571905D01*
X163184819Y-98571905D02*
X163184819Y-98952857D01*
X163184819Y-98952857D02*
X163232438Y-99048095D01*
X163232438Y-99048095D02*
X163280057Y-99095714D01*
X163280057Y-99095714D02*
X163375295Y-99143333D01*
X163375295Y-99143333D02*
X163518152Y-99143333D01*
X163518152Y-99143333D02*
X163613390Y-99095714D01*
X163613390Y-99095714D02*
X163661009Y-99048095D01*
X163661009Y-99048095D02*
X163708628Y-98952857D01*
X163708628Y-98952857D02*
X163708628Y-98571905D01*
X163184819Y-99476667D02*
X163184819Y-100095714D01*
X163184819Y-100095714D02*
X163565771Y-99762381D01*
X163565771Y-99762381D02*
X163565771Y-99905238D01*
X163565771Y-99905238D02*
X163613390Y-100000476D01*
X163613390Y-100000476D02*
X163661009Y-100048095D01*
X163661009Y-100048095D02*
X163756247Y-100095714D01*
X163756247Y-100095714D02*
X163994342Y-100095714D01*
X163994342Y-100095714D02*
X164089580Y-100048095D01*
X164089580Y-100048095D02*
X164137200Y-100000476D01*
X164137200Y-100000476D02*
X164184819Y-99905238D01*
X164184819Y-99905238D02*
X164184819Y-99619524D01*
X164184819Y-99619524D02*
X164137200Y-99524286D01*
X164137200Y-99524286D02*
X164089580Y-99476667D01*
X166386738Y-103092057D02*
X166481976Y-103044438D01*
X166481976Y-103044438D02*
X166577214Y-102949200D01*
X166577214Y-102949200D02*
X166720071Y-102806342D01*
X166720071Y-102806342D02*
X166815309Y-102758723D01*
X166815309Y-102758723D02*
X166910547Y-102758723D01*
X166862928Y-102996819D02*
X166958166Y-102949200D01*
X166958166Y-102949200D02*
X167053404Y-102853961D01*
X167053404Y-102853961D02*
X167101023Y-102663485D01*
X167101023Y-102663485D02*
X167101023Y-102330152D01*
X167101023Y-102330152D02*
X167053404Y-102139676D01*
X167053404Y-102139676D02*
X166958166Y-102044438D01*
X166958166Y-102044438D02*
X166862928Y-101996819D01*
X166862928Y-101996819D02*
X166672452Y-101996819D01*
X166672452Y-101996819D02*
X166577214Y-102044438D01*
X166577214Y-102044438D02*
X166481976Y-102139676D01*
X166481976Y-102139676D02*
X166434357Y-102330152D01*
X166434357Y-102330152D02*
X166434357Y-102663485D01*
X166434357Y-102663485D02*
X166481976Y-102853961D01*
X166481976Y-102853961D02*
X166577214Y-102949200D01*
X166577214Y-102949200D02*
X166672452Y-102996819D01*
X166672452Y-102996819D02*
X166862928Y-102996819D01*
X166101023Y-101996819D02*
X165481976Y-101996819D01*
X165481976Y-101996819D02*
X165815309Y-102377771D01*
X165815309Y-102377771D02*
X165672452Y-102377771D01*
X165672452Y-102377771D02*
X165577214Y-102425390D01*
X165577214Y-102425390D02*
X165529595Y-102473009D01*
X165529595Y-102473009D02*
X165481976Y-102568247D01*
X165481976Y-102568247D02*
X165481976Y-102806342D01*
X165481976Y-102806342D02*
X165529595Y-102901580D01*
X165529595Y-102901580D02*
X165577214Y-102949200D01*
X165577214Y-102949200D02*
X165672452Y-102996819D01*
X165672452Y-102996819D02*
X165958166Y-102996819D01*
X165958166Y-102996819D02*
X166053404Y-102949200D01*
X166053404Y-102949200D02*
X166101023Y-102901580D01*
X164025238Y-98750057D02*
X164120476Y-98702438D01*
X164120476Y-98702438D02*
X164215714Y-98607200D01*
X164215714Y-98607200D02*
X164358571Y-98464342D01*
X164358571Y-98464342D02*
X164453809Y-98416723D01*
X164453809Y-98416723D02*
X164549047Y-98416723D01*
X164501428Y-98654819D02*
X164596666Y-98607200D01*
X164596666Y-98607200D02*
X164691904Y-98511961D01*
X164691904Y-98511961D02*
X164739523Y-98321485D01*
X164739523Y-98321485D02*
X164739523Y-97988152D01*
X164739523Y-97988152D02*
X164691904Y-97797676D01*
X164691904Y-97797676D02*
X164596666Y-97702438D01*
X164596666Y-97702438D02*
X164501428Y-97654819D01*
X164501428Y-97654819D02*
X164310952Y-97654819D01*
X164310952Y-97654819D02*
X164215714Y-97702438D01*
X164215714Y-97702438D02*
X164120476Y-97797676D01*
X164120476Y-97797676D02*
X164072857Y-97988152D01*
X164072857Y-97988152D02*
X164072857Y-98321485D01*
X164072857Y-98321485D02*
X164120476Y-98511961D01*
X164120476Y-98511961D02*
X164215714Y-98607200D01*
X164215714Y-98607200D02*
X164310952Y-98654819D01*
X164310952Y-98654819D02*
X164501428Y-98654819D01*
X163691904Y-97750057D02*
X163644285Y-97702438D01*
X163644285Y-97702438D02*
X163549047Y-97654819D01*
X163549047Y-97654819D02*
X163310952Y-97654819D01*
X163310952Y-97654819D02*
X163215714Y-97702438D01*
X163215714Y-97702438D02*
X163168095Y-97750057D01*
X163168095Y-97750057D02*
X163120476Y-97845295D01*
X163120476Y-97845295D02*
X163120476Y-97940533D01*
X163120476Y-97940533D02*
X163168095Y-98083390D01*
X163168095Y-98083390D02*
X163739523Y-98654819D01*
X163739523Y-98654819D02*
X163120476Y-98654819D01*
X141164819Y-124515714D02*
X140164819Y-124515714D01*
X140164819Y-124515714D02*
X140164819Y-124896666D01*
X140164819Y-124896666D02*
X140212438Y-124991904D01*
X140212438Y-124991904D02*
X140260057Y-125039523D01*
X140260057Y-125039523D02*
X140355295Y-125087142D01*
X140355295Y-125087142D02*
X140498152Y-125087142D01*
X140498152Y-125087142D02*
X140593390Y-125039523D01*
X140593390Y-125039523D02*
X140641009Y-124991904D01*
X140641009Y-124991904D02*
X140688628Y-124896666D01*
X140688628Y-124896666D02*
X140688628Y-124515714D01*
X141117200Y-125468095D02*
X141164819Y-125610952D01*
X141164819Y-125610952D02*
X141164819Y-125849047D01*
X141164819Y-125849047D02*
X141117200Y-125944285D01*
X141117200Y-125944285D02*
X141069580Y-125991904D01*
X141069580Y-125991904D02*
X140974342Y-126039523D01*
X140974342Y-126039523D02*
X140879104Y-126039523D01*
X140879104Y-126039523D02*
X140783866Y-125991904D01*
X140783866Y-125991904D02*
X140736247Y-125944285D01*
X140736247Y-125944285D02*
X140688628Y-125849047D01*
X140688628Y-125849047D02*
X140641009Y-125658571D01*
X140641009Y-125658571D02*
X140593390Y-125563333D01*
X140593390Y-125563333D02*
X140545771Y-125515714D01*
X140545771Y-125515714D02*
X140450533Y-125468095D01*
X140450533Y-125468095D02*
X140355295Y-125468095D01*
X140355295Y-125468095D02*
X140260057Y-125515714D01*
X140260057Y-125515714D02*
X140212438Y-125563333D01*
X140212438Y-125563333D02*
X140164819Y-125658571D01*
X140164819Y-125658571D02*
X140164819Y-125896666D01*
X140164819Y-125896666D02*
X140212438Y-126039523D01*
X141164819Y-126991904D02*
X141164819Y-126420476D01*
X141164819Y-126706190D02*
X140164819Y-126706190D01*
X140164819Y-126706190D02*
X140307676Y-126610952D01*
X140307676Y-126610952D02*
X140402914Y-126515714D01*
X140402914Y-126515714D02*
X140450533Y-126420476D01*
D11*
%TO.C,U3*%
X158182200Y-105355900D02*
X150917800Y-105355900D01*
X150917800Y-105355900D02*
X150917800Y-104875840D01*
X150917800Y-97304100D02*
X158182200Y-97304100D01*
X158182200Y-97304100D02*
X158182200Y-97784160D01*
X158182200Y-99795840D02*
X158182200Y-100324160D01*
X158182200Y-102335840D02*
X158182200Y-102864160D01*
X158182200Y-104875840D02*
X158182200Y-105355900D01*
X150917800Y-102864160D02*
X150917800Y-102335840D01*
X150917800Y-100324160D02*
X150917800Y-99795840D01*
X150917800Y-97784160D02*
X150917800Y-97304100D01*
D12*
%TO.C,R10*%
X163221641Y-101726000D02*
X162914359Y-101726000D01*
X163221641Y-100966000D02*
X162914359Y-100966000D01*
%TO.C,R4*%
X167232359Y-103504000D02*
X167539641Y-103504000D01*
X167232359Y-102744000D02*
X167539641Y-102744000D01*
%TO.C,R3*%
X162180000Y-99463641D02*
X162180000Y-99156359D01*
X162940000Y-99463641D02*
X162940000Y-99156359D01*
%TO.C,Q3*%
X166291500Y-101702000D02*
X166941500Y-101702000D01*
X166291500Y-98582000D02*
X166941500Y-98582000D01*
X166291500Y-101702000D02*
X164616500Y-101702000D01*
X166291500Y-98582000D02*
X165641500Y-98582000D01*
%TO.C,Q2*%
X163930000Y-97360000D02*
X164580000Y-97360000D01*
X163930000Y-94240000D02*
X164580000Y-94240000D01*
X163930000Y-97360000D02*
X162255000Y-97360000D01*
X163930000Y-94240000D02*
X163280000Y-94240000D01*
%TO.C,PS1*%
X141860000Y-126180000D02*
X141860000Y-124170000D01*
X142240000Y-135640000D02*
X142240000Y-106920000D01*
X142250000Y-106920000D02*
X189960000Y-106920000D01*
X189960000Y-135640000D02*
X142250000Y-135640000D01*
X189960000Y-106920000D02*
X189960000Y-135640000D01*
%TD*%
M02*
