%TF.GenerationSoftware,KiCad,Pcbnew,7.0.10*%
%TF.CreationDate,2024-01-17T02:44:35+05:30*%
%TF.ProjectId,open_src,6f70656e-5f73-4726-932e-6b696361645f,rev?*%
%TF.SameCoordinates,Original*%
%TF.FileFunction,Legend,Top*%
%TF.FilePolarity,Positive*%
%FSLAX46Y46*%
G04 Gerber Fmt 4.6, Leading zero omitted, Abs format (unit mm)*
G04 Created by KiCad (PCBNEW 7.0.10) date 2024-01-17 02:44:35*
%MOMM*%
%LPD*%
G01*
G04 APERTURE LIST*
%ADD10C,0.150000*%
%ADD11C,0.120000*%
%ADD12C,0.152400*%
%ADD13C,0.100000*%
G04 APERTURE END LIST*
D10*
X141784819Y-87772857D02*
X141308628Y-88106190D01*
X141784819Y-88344285D02*
X140784819Y-88344285D01*
X140784819Y-88344285D02*
X140784819Y-87963333D01*
X140784819Y-87963333D02*
X140832438Y-87868095D01*
X140832438Y-87868095D02*
X140880057Y-87820476D01*
X140880057Y-87820476D02*
X140975295Y-87772857D01*
X140975295Y-87772857D02*
X141118152Y-87772857D01*
X141118152Y-87772857D02*
X141213390Y-87820476D01*
X141213390Y-87820476D02*
X141261009Y-87868095D01*
X141261009Y-87868095D02*
X141308628Y-87963333D01*
X141308628Y-87963333D02*
X141308628Y-88344285D01*
X141784819Y-86820476D02*
X141784819Y-87391904D01*
X141784819Y-87106190D02*
X140784819Y-87106190D01*
X140784819Y-87106190D02*
X140927676Y-87201428D01*
X140927676Y-87201428D02*
X141022914Y-87296666D01*
X141022914Y-87296666D02*
X141070533Y-87391904D01*
X141118152Y-85963333D02*
X141784819Y-85963333D01*
X140737200Y-86201428D02*
X141451485Y-86439523D01*
X141451485Y-86439523D02*
X141451485Y-85820476D01*
X143124819Y-87732857D02*
X142648628Y-88066190D01*
X143124819Y-88304285D02*
X142124819Y-88304285D01*
X142124819Y-88304285D02*
X142124819Y-87923333D01*
X142124819Y-87923333D02*
X142172438Y-87828095D01*
X142172438Y-87828095D02*
X142220057Y-87780476D01*
X142220057Y-87780476D02*
X142315295Y-87732857D01*
X142315295Y-87732857D02*
X142458152Y-87732857D01*
X142458152Y-87732857D02*
X142553390Y-87780476D01*
X142553390Y-87780476D02*
X142601009Y-87828095D01*
X142601009Y-87828095D02*
X142648628Y-87923333D01*
X142648628Y-87923333D02*
X142648628Y-88304285D01*
X143124819Y-86780476D02*
X143124819Y-87351904D01*
X143124819Y-87066190D02*
X142124819Y-87066190D01*
X142124819Y-87066190D02*
X142267676Y-87161428D01*
X142267676Y-87161428D02*
X142362914Y-87256666D01*
X142362914Y-87256666D02*
X142410533Y-87351904D01*
X142124819Y-86447142D02*
X142124819Y-85828095D01*
X142124819Y-85828095D02*
X142505771Y-86161428D01*
X142505771Y-86161428D02*
X142505771Y-86018571D01*
X142505771Y-86018571D02*
X142553390Y-85923333D01*
X142553390Y-85923333D02*
X142601009Y-85875714D01*
X142601009Y-85875714D02*
X142696247Y-85828095D01*
X142696247Y-85828095D02*
X142934342Y-85828095D01*
X142934342Y-85828095D02*
X143029580Y-85875714D01*
X143029580Y-85875714D02*
X143077200Y-85923333D01*
X143077200Y-85923333D02*
X143124819Y-86018571D01*
X143124819Y-86018571D02*
X143124819Y-86304285D01*
X143124819Y-86304285D02*
X143077200Y-86399523D01*
X143077200Y-86399523D02*
X143029580Y-86447142D01*
X144874819Y-73391904D02*
X145684342Y-73391904D01*
X145684342Y-73391904D02*
X145779580Y-73344285D01*
X145779580Y-73344285D02*
X145827200Y-73296666D01*
X145827200Y-73296666D02*
X145874819Y-73201428D01*
X145874819Y-73201428D02*
X145874819Y-73010952D01*
X145874819Y-73010952D02*
X145827200Y-72915714D01*
X145827200Y-72915714D02*
X145779580Y-72868095D01*
X145779580Y-72868095D02*
X145684342Y-72820476D01*
X145684342Y-72820476D02*
X144874819Y-72820476D01*
X145874819Y-71820476D02*
X145874819Y-72391904D01*
X145874819Y-72106190D02*
X144874819Y-72106190D01*
X144874819Y-72106190D02*
X145017676Y-72201428D01*
X145017676Y-72201428D02*
X145112914Y-72296666D01*
X145112914Y-72296666D02*
X145160533Y-72391904D01*
X138074819Y-80114999D02*
X138312914Y-80114999D01*
X138217676Y-80353094D02*
X138312914Y-80114999D01*
X138312914Y-80114999D02*
X138217676Y-79876904D01*
X138503390Y-80257856D02*
X138312914Y-80114999D01*
X138312914Y-80114999D02*
X138503390Y-79972142D01*
X138074819Y-80114999D02*
X138312914Y-80114999D01*
X138217676Y-80353094D02*
X138312914Y-80114999D01*
X138312914Y-80114999D02*
X138217676Y-79876904D01*
X138503390Y-80257856D02*
X138312914Y-80114999D01*
X138312914Y-80114999D02*
X138503390Y-79972142D01*
X153670095Y-89860819D02*
X153670095Y-88860819D01*
X153670095Y-89337009D02*
X154241523Y-89337009D01*
X154241523Y-89860819D02*
X154241523Y-88860819D01*
X154765333Y-89860819D02*
X154955809Y-89860819D01*
X154955809Y-89860819D02*
X155051047Y-89813200D01*
X155051047Y-89813200D02*
X155098666Y-89765580D01*
X155098666Y-89765580D02*
X155193904Y-89622723D01*
X155193904Y-89622723D02*
X155241523Y-89432247D01*
X155241523Y-89432247D02*
X155241523Y-89051295D01*
X155241523Y-89051295D02*
X155193904Y-88956057D01*
X155193904Y-88956057D02*
X155146285Y-88908438D01*
X155146285Y-88908438D02*
X155051047Y-88860819D01*
X155051047Y-88860819D02*
X154860571Y-88860819D01*
X154860571Y-88860819D02*
X154765333Y-88908438D01*
X154765333Y-88908438D02*
X154717714Y-88956057D01*
X154717714Y-88956057D02*
X154670095Y-89051295D01*
X154670095Y-89051295D02*
X154670095Y-89289390D01*
X154670095Y-89289390D02*
X154717714Y-89384628D01*
X154717714Y-89384628D02*
X154765333Y-89432247D01*
X154765333Y-89432247D02*
X154860571Y-89479866D01*
X154860571Y-89479866D02*
X155051047Y-89479866D01*
X155051047Y-89479866D02*
X155146285Y-89432247D01*
X155146285Y-89432247D02*
X155193904Y-89384628D01*
X155193904Y-89384628D02*
X155241523Y-89289390D01*
X163322095Y-71572819D02*
X163322095Y-70572819D01*
X163322095Y-71049009D02*
X163893523Y-71049009D01*
X163893523Y-71572819D02*
X163893523Y-70572819D01*
X164512571Y-71001390D02*
X164417333Y-70953771D01*
X164417333Y-70953771D02*
X164369714Y-70906152D01*
X164369714Y-70906152D02*
X164322095Y-70810914D01*
X164322095Y-70810914D02*
X164322095Y-70763295D01*
X164322095Y-70763295D02*
X164369714Y-70668057D01*
X164369714Y-70668057D02*
X164417333Y-70620438D01*
X164417333Y-70620438D02*
X164512571Y-70572819D01*
X164512571Y-70572819D02*
X164703047Y-70572819D01*
X164703047Y-70572819D02*
X164798285Y-70620438D01*
X164798285Y-70620438D02*
X164845904Y-70668057D01*
X164845904Y-70668057D02*
X164893523Y-70763295D01*
X164893523Y-70763295D02*
X164893523Y-70810914D01*
X164893523Y-70810914D02*
X164845904Y-70906152D01*
X164845904Y-70906152D02*
X164798285Y-70953771D01*
X164798285Y-70953771D02*
X164703047Y-71001390D01*
X164703047Y-71001390D02*
X164512571Y-71001390D01*
X164512571Y-71001390D02*
X164417333Y-71049009D01*
X164417333Y-71049009D02*
X164369714Y-71096628D01*
X164369714Y-71096628D02*
X164322095Y-71191866D01*
X164322095Y-71191866D02*
X164322095Y-71382342D01*
X164322095Y-71382342D02*
X164369714Y-71477580D01*
X164369714Y-71477580D02*
X164417333Y-71525200D01*
X164417333Y-71525200D02*
X164512571Y-71572819D01*
X164512571Y-71572819D02*
X164703047Y-71572819D01*
X164703047Y-71572819D02*
X164798285Y-71525200D01*
X164798285Y-71525200D02*
X164845904Y-71477580D01*
X164845904Y-71477580D02*
X164893523Y-71382342D01*
X164893523Y-71382342D02*
X164893523Y-71191866D01*
X164893523Y-71191866D02*
X164845904Y-71096628D01*
X164845904Y-71096628D02*
X164798285Y-71049009D01*
X164798285Y-71049009D02*
X164703047Y-71001390D01*
X183980819Y-95730666D02*
X183504628Y-96063999D01*
X183980819Y-96302094D02*
X182980819Y-96302094D01*
X182980819Y-96302094D02*
X182980819Y-95921142D01*
X182980819Y-95921142D02*
X183028438Y-95825904D01*
X183028438Y-95825904D02*
X183076057Y-95778285D01*
X183076057Y-95778285D02*
X183171295Y-95730666D01*
X183171295Y-95730666D02*
X183314152Y-95730666D01*
X183314152Y-95730666D02*
X183409390Y-95778285D01*
X183409390Y-95778285D02*
X183457009Y-95825904D01*
X183457009Y-95825904D02*
X183504628Y-95921142D01*
X183504628Y-95921142D02*
X183504628Y-96302094D01*
X183980819Y-94778285D02*
X183980819Y-95349713D01*
X183980819Y-95063999D02*
X182980819Y-95063999D01*
X182980819Y-95063999D02*
X183123676Y-95159237D01*
X183123676Y-95159237D02*
X183218914Y-95254475D01*
X183218914Y-95254475D02*
X183266533Y-95349713D01*
X183188095Y-116584819D02*
X183188095Y-117394342D01*
X183188095Y-117394342D02*
X183235714Y-117489580D01*
X183235714Y-117489580D02*
X183283333Y-117537200D01*
X183283333Y-117537200D02*
X183378571Y-117584819D01*
X183378571Y-117584819D02*
X183569047Y-117584819D01*
X183569047Y-117584819D02*
X183664285Y-117537200D01*
X183664285Y-117537200D02*
X183711904Y-117489580D01*
X183711904Y-117489580D02*
X183759523Y-117394342D01*
X183759523Y-117394342D02*
X183759523Y-116584819D01*
X184664285Y-116918152D02*
X184664285Y-117584819D01*
X184426190Y-116537200D02*
X184188095Y-117251485D01*
X184188095Y-117251485D02*
X184807142Y-117251485D01*
X167724819Y-110901904D02*
X168534342Y-110901904D01*
X168534342Y-110901904D02*
X168629580Y-110854285D01*
X168629580Y-110854285D02*
X168677200Y-110806666D01*
X168677200Y-110806666D02*
X168724819Y-110711428D01*
X168724819Y-110711428D02*
X168724819Y-110520952D01*
X168724819Y-110520952D02*
X168677200Y-110425714D01*
X168677200Y-110425714D02*
X168629580Y-110378095D01*
X168629580Y-110378095D02*
X168534342Y-110330476D01*
X168534342Y-110330476D02*
X167724819Y-110330476D01*
X167820057Y-109901904D02*
X167772438Y-109854285D01*
X167772438Y-109854285D02*
X167724819Y-109759047D01*
X167724819Y-109759047D02*
X167724819Y-109520952D01*
X167724819Y-109520952D02*
X167772438Y-109425714D01*
X167772438Y-109425714D02*
X167820057Y-109378095D01*
X167820057Y-109378095D02*
X167915295Y-109330476D01*
X167915295Y-109330476D02*
X168010533Y-109330476D01*
X168010533Y-109330476D02*
X168153390Y-109378095D01*
X168153390Y-109378095D02*
X168724819Y-109949523D01*
X168724819Y-109949523D02*
X168724819Y-109330476D01*
X172402667Y-54049200D02*
X172545524Y-54096819D01*
X172545524Y-54096819D02*
X172783619Y-54096819D01*
X172783619Y-54096819D02*
X172878857Y-54049200D01*
X172878857Y-54049200D02*
X172926476Y-54001580D01*
X172926476Y-54001580D02*
X172974095Y-53906342D01*
X172974095Y-53906342D02*
X172974095Y-53811104D01*
X172974095Y-53811104D02*
X172926476Y-53715866D01*
X172926476Y-53715866D02*
X172878857Y-53668247D01*
X172878857Y-53668247D02*
X172783619Y-53620628D01*
X172783619Y-53620628D02*
X172593143Y-53573009D01*
X172593143Y-53573009D02*
X172497905Y-53525390D01*
X172497905Y-53525390D02*
X172450286Y-53477771D01*
X172450286Y-53477771D02*
X172402667Y-53382533D01*
X172402667Y-53382533D02*
X172402667Y-53287295D01*
X172402667Y-53287295D02*
X172450286Y-53192057D01*
X172450286Y-53192057D02*
X172497905Y-53144438D01*
X172497905Y-53144438D02*
X172593143Y-53096819D01*
X172593143Y-53096819D02*
X172831238Y-53096819D01*
X172831238Y-53096819D02*
X172974095Y-53144438D01*
X173307429Y-53096819D02*
X173545524Y-54096819D01*
X173545524Y-54096819D02*
X173736000Y-53382533D01*
X173736000Y-53382533D02*
X173926476Y-54096819D01*
X173926476Y-54096819D02*
X174164572Y-53096819D01*
X175069333Y-54096819D02*
X174497905Y-54096819D01*
X174783619Y-54096819D02*
X174783619Y-53096819D01*
X174783619Y-53096819D02*
X174688381Y-53239676D01*
X174688381Y-53239676D02*
X174593143Y-53334914D01*
X174593143Y-53334914D02*
X174497905Y-53382533D01*
X155057142Y-80014819D02*
X154723809Y-79538628D01*
X154485714Y-80014819D02*
X154485714Y-79014819D01*
X154485714Y-79014819D02*
X154866666Y-79014819D01*
X154866666Y-79014819D02*
X154961904Y-79062438D01*
X154961904Y-79062438D02*
X155009523Y-79110057D01*
X155009523Y-79110057D02*
X155057142Y-79205295D01*
X155057142Y-79205295D02*
X155057142Y-79348152D01*
X155057142Y-79348152D02*
X155009523Y-79443390D01*
X155009523Y-79443390D02*
X154961904Y-79491009D01*
X154961904Y-79491009D02*
X154866666Y-79538628D01*
X154866666Y-79538628D02*
X154485714Y-79538628D01*
X156009523Y-80014819D02*
X155438095Y-80014819D01*
X155723809Y-80014819D02*
X155723809Y-79014819D01*
X155723809Y-79014819D02*
X155628571Y-79157676D01*
X155628571Y-79157676D02*
X155533333Y-79252914D01*
X155533333Y-79252914D02*
X155438095Y-79300533D01*
X156342857Y-79014819D02*
X157009523Y-79014819D01*
X157009523Y-79014819D02*
X156580952Y-80014819D01*
X157784819Y-75902857D02*
X157308628Y-76236190D01*
X157784819Y-76474285D02*
X156784819Y-76474285D01*
X156784819Y-76474285D02*
X156784819Y-76093333D01*
X156784819Y-76093333D02*
X156832438Y-75998095D01*
X156832438Y-75998095D02*
X156880057Y-75950476D01*
X156880057Y-75950476D02*
X156975295Y-75902857D01*
X156975295Y-75902857D02*
X157118152Y-75902857D01*
X157118152Y-75902857D02*
X157213390Y-75950476D01*
X157213390Y-75950476D02*
X157261009Y-75998095D01*
X157261009Y-75998095D02*
X157308628Y-76093333D01*
X157308628Y-76093333D02*
X157308628Y-76474285D01*
X157784819Y-74950476D02*
X157784819Y-75521904D01*
X157784819Y-75236190D02*
X156784819Y-75236190D01*
X156784819Y-75236190D02*
X156927676Y-75331428D01*
X156927676Y-75331428D02*
X157022914Y-75426666D01*
X157022914Y-75426666D02*
X157070533Y-75521904D01*
X156784819Y-74093333D02*
X156784819Y-74283809D01*
X156784819Y-74283809D02*
X156832438Y-74379047D01*
X156832438Y-74379047D02*
X156880057Y-74426666D01*
X156880057Y-74426666D02*
X157022914Y-74521904D01*
X157022914Y-74521904D02*
X157213390Y-74569523D01*
X157213390Y-74569523D02*
X157594342Y-74569523D01*
X157594342Y-74569523D02*
X157689580Y-74521904D01*
X157689580Y-74521904D02*
X157737200Y-74474285D01*
X157737200Y-74474285D02*
X157784819Y-74379047D01*
X157784819Y-74379047D02*
X157784819Y-74188571D01*
X157784819Y-74188571D02*
X157737200Y-74093333D01*
X157737200Y-74093333D02*
X157689580Y-74045714D01*
X157689580Y-74045714D02*
X157594342Y-73998095D01*
X157594342Y-73998095D02*
X157356247Y-73998095D01*
X157356247Y-73998095D02*
X157261009Y-74045714D01*
X157261009Y-74045714D02*
X157213390Y-74093333D01*
X157213390Y-74093333D02*
X157165771Y-74188571D01*
X157165771Y-74188571D02*
X157165771Y-74379047D01*
X157165771Y-74379047D02*
X157213390Y-74474285D01*
X157213390Y-74474285D02*
X157261009Y-74521904D01*
X157261009Y-74521904D02*
X157356247Y-74569523D01*
X169281142Y-62330819D02*
X168947809Y-61854628D01*
X168709714Y-62330819D02*
X168709714Y-61330819D01*
X168709714Y-61330819D02*
X169090666Y-61330819D01*
X169090666Y-61330819D02*
X169185904Y-61378438D01*
X169185904Y-61378438D02*
X169233523Y-61426057D01*
X169233523Y-61426057D02*
X169281142Y-61521295D01*
X169281142Y-61521295D02*
X169281142Y-61664152D01*
X169281142Y-61664152D02*
X169233523Y-61759390D01*
X169233523Y-61759390D02*
X169185904Y-61807009D01*
X169185904Y-61807009D02*
X169090666Y-61854628D01*
X169090666Y-61854628D02*
X168709714Y-61854628D01*
X170233523Y-62330819D02*
X169662095Y-62330819D01*
X169947809Y-62330819D02*
X169947809Y-61330819D01*
X169947809Y-61330819D02*
X169852571Y-61473676D01*
X169852571Y-61473676D02*
X169757333Y-61568914D01*
X169757333Y-61568914D02*
X169662095Y-61616533D01*
X171138285Y-61330819D02*
X170662095Y-61330819D01*
X170662095Y-61330819D02*
X170614476Y-61807009D01*
X170614476Y-61807009D02*
X170662095Y-61759390D01*
X170662095Y-61759390D02*
X170757333Y-61711771D01*
X170757333Y-61711771D02*
X170995428Y-61711771D01*
X170995428Y-61711771D02*
X171090666Y-61759390D01*
X171090666Y-61759390D02*
X171138285Y-61807009D01*
X171138285Y-61807009D02*
X171185904Y-61902247D01*
X171185904Y-61902247D02*
X171185904Y-62140342D01*
X171185904Y-62140342D02*
X171138285Y-62235580D01*
X171138285Y-62235580D02*
X171090666Y-62283200D01*
X171090666Y-62283200D02*
X170995428Y-62330819D01*
X170995428Y-62330819D02*
X170757333Y-62330819D01*
X170757333Y-62330819D02*
X170662095Y-62283200D01*
X170662095Y-62283200D02*
X170614476Y-62235580D01*
X157214819Y-109862857D02*
X156738628Y-110196190D01*
X157214819Y-110434285D02*
X156214819Y-110434285D01*
X156214819Y-110434285D02*
X156214819Y-110053333D01*
X156214819Y-110053333D02*
X156262438Y-109958095D01*
X156262438Y-109958095D02*
X156310057Y-109910476D01*
X156310057Y-109910476D02*
X156405295Y-109862857D01*
X156405295Y-109862857D02*
X156548152Y-109862857D01*
X156548152Y-109862857D02*
X156643390Y-109910476D01*
X156643390Y-109910476D02*
X156691009Y-109958095D01*
X156691009Y-109958095D02*
X156738628Y-110053333D01*
X156738628Y-110053333D02*
X156738628Y-110434285D01*
X157214819Y-108910476D02*
X157214819Y-109481904D01*
X157214819Y-109196190D02*
X156214819Y-109196190D01*
X156214819Y-109196190D02*
X156357676Y-109291428D01*
X156357676Y-109291428D02*
X156452914Y-109386666D01*
X156452914Y-109386666D02*
X156500533Y-109481904D01*
X156310057Y-108529523D02*
X156262438Y-108481904D01*
X156262438Y-108481904D02*
X156214819Y-108386666D01*
X156214819Y-108386666D02*
X156214819Y-108148571D01*
X156214819Y-108148571D02*
X156262438Y-108053333D01*
X156262438Y-108053333D02*
X156310057Y-108005714D01*
X156310057Y-108005714D02*
X156405295Y-107958095D01*
X156405295Y-107958095D02*
X156500533Y-107958095D01*
X156500533Y-107958095D02*
X156643390Y-108005714D01*
X156643390Y-108005714D02*
X157214819Y-108577142D01*
X157214819Y-108577142D02*
X157214819Y-107958095D01*
X145446819Y-98178857D02*
X144970628Y-98512190D01*
X145446819Y-98750285D02*
X144446819Y-98750285D01*
X144446819Y-98750285D02*
X144446819Y-98369333D01*
X144446819Y-98369333D02*
X144494438Y-98274095D01*
X144494438Y-98274095D02*
X144542057Y-98226476D01*
X144542057Y-98226476D02*
X144637295Y-98178857D01*
X144637295Y-98178857D02*
X144780152Y-98178857D01*
X144780152Y-98178857D02*
X144875390Y-98226476D01*
X144875390Y-98226476D02*
X144923009Y-98274095D01*
X144923009Y-98274095D02*
X144970628Y-98369333D01*
X144970628Y-98369333D02*
X144970628Y-98750285D01*
X145446819Y-97226476D02*
X145446819Y-97797904D01*
X145446819Y-97512190D02*
X144446819Y-97512190D01*
X144446819Y-97512190D02*
X144589676Y-97607428D01*
X144589676Y-97607428D02*
X144684914Y-97702666D01*
X144684914Y-97702666D02*
X144732533Y-97797904D01*
X145446819Y-96274095D02*
X145446819Y-96845523D01*
X145446819Y-96559809D02*
X144446819Y-96559809D01*
X144446819Y-96559809D02*
X144589676Y-96655047D01*
X144589676Y-96655047D02*
X144684914Y-96750285D01*
X144684914Y-96750285D02*
X144732533Y-96845523D01*
X149510819Y-109386666D02*
X149034628Y-109719999D01*
X149510819Y-109958094D02*
X148510819Y-109958094D01*
X148510819Y-109958094D02*
X148510819Y-109577142D01*
X148510819Y-109577142D02*
X148558438Y-109481904D01*
X148558438Y-109481904D02*
X148606057Y-109434285D01*
X148606057Y-109434285D02*
X148701295Y-109386666D01*
X148701295Y-109386666D02*
X148844152Y-109386666D01*
X148844152Y-109386666D02*
X148939390Y-109434285D01*
X148939390Y-109434285D02*
X148987009Y-109481904D01*
X148987009Y-109481904D02*
X149034628Y-109577142D01*
X149034628Y-109577142D02*
X149034628Y-109958094D01*
X148510819Y-109053332D02*
X148510819Y-108386666D01*
X148510819Y-108386666D02*
X149510819Y-108815237D01*
X149086819Y-109386666D02*
X148610628Y-109719999D01*
X149086819Y-109958094D02*
X148086819Y-109958094D01*
X148086819Y-109958094D02*
X148086819Y-109577142D01*
X148086819Y-109577142D02*
X148134438Y-109481904D01*
X148134438Y-109481904D02*
X148182057Y-109434285D01*
X148182057Y-109434285D02*
X148277295Y-109386666D01*
X148277295Y-109386666D02*
X148420152Y-109386666D01*
X148420152Y-109386666D02*
X148515390Y-109434285D01*
X148515390Y-109434285D02*
X148563009Y-109481904D01*
X148563009Y-109481904D02*
X148610628Y-109577142D01*
X148610628Y-109577142D02*
X148610628Y-109958094D01*
X148086819Y-108529523D02*
X148086819Y-108719999D01*
X148086819Y-108719999D02*
X148134438Y-108815237D01*
X148134438Y-108815237D02*
X148182057Y-108862856D01*
X148182057Y-108862856D02*
X148324914Y-108958094D01*
X148324914Y-108958094D02*
X148515390Y-109005713D01*
X148515390Y-109005713D02*
X148896342Y-109005713D01*
X148896342Y-109005713D02*
X148991580Y-108958094D01*
X148991580Y-108958094D02*
X149039200Y-108910475D01*
X149039200Y-108910475D02*
X149086819Y-108815237D01*
X149086819Y-108815237D02*
X149086819Y-108624761D01*
X149086819Y-108624761D02*
X149039200Y-108529523D01*
X149039200Y-108529523D02*
X148991580Y-108481904D01*
X148991580Y-108481904D02*
X148896342Y-108434285D01*
X148896342Y-108434285D02*
X148658247Y-108434285D01*
X148658247Y-108434285D02*
X148563009Y-108481904D01*
X148563009Y-108481904D02*
X148515390Y-108529523D01*
X148515390Y-108529523D02*
X148467771Y-108624761D01*
X148467771Y-108624761D02*
X148467771Y-108815237D01*
X148467771Y-108815237D02*
X148515390Y-108910475D01*
X148515390Y-108910475D02*
X148563009Y-108958094D01*
X148563009Y-108958094D02*
X148658247Y-109005713D01*
X141636819Y-109386666D02*
X141160628Y-109719999D01*
X141636819Y-109958094D02*
X140636819Y-109958094D01*
X140636819Y-109958094D02*
X140636819Y-109577142D01*
X140636819Y-109577142D02*
X140684438Y-109481904D01*
X140684438Y-109481904D02*
X140732057Y-109434285D01*
X140732057Y-109434285D02*
X140827295Y-109386666D01*
X140827295Y-109386666D02*
X140970152Y-109386666D01*
X140970152Y-109386666D02*
X141065390Y-109434285D01*
X141065390Y-109434285D02*
X141113009Y-109481904D01*
X141113009Y-109481904D02*
X141160628Y-109577142D01*
X141160628Y-109577142D02*
X141160628Y-109958094D01*
X140636819Y-108481904D02*
X140636819Y-108958094D01*
X140636819Y-108958094D02*
X141113009Y-109005713D01*
X141113009Y-109005713D02*
X141065390Y-108958094D01*
X141065390Y-108958094D02*
X141017771Y-108862856D01*
X141017771Y-108862856D02*
X141017771Y-108624761D01*
X141017771Y-108624761D02*
X141065390Y-108529523D01*
X141065390Y-108529523D02*
X141113009Y-108481904D01*
X141113009Y-108481904D02*
X141208247Y-108434285D01*
X141208247Y-108434285D02*
X141446342Y-108434285D01*
X141446342Y-108434285D02*
X141541580Y-108481904D01*
X141541580Y-108481904D02*
X141589200Y-108529523D01*
X141589200Y-108529523D02*
X141636819Y-108624761D01*
X141636819Y-108624761D02*
X141636819Y-108862856D01*
X141636819Y-108862856D02*
X141589200Y-108958094D01*
X141589200Y-108958094D02*
X141541580Y-109005713D01*
X168364819Y-115116666D02*
X167888628Y-115449999D01*
X168364819Y-115688094D02*
X167364819Y-115688094D01*
X167364819Y-115688094D02*
X167364819Y-115307142D01*
X167364819Y-115307142D02*
X167412438Y-115211904D01*
X167412438Y-115211904D02*
X167460057Y-115164285D01*
X167460057Y-115164285D02*
X167555295Y-115116666D01*
X167555295Y-115116666D02*
X167698152Y-115116666D01*
X167698152Y-115116666D02*
X167793390Y-115164285D01*
X167793390Y-115164285D02*
X167841009Y-115211904D01*
X167841009Y-115211904D02*
X167888628Y-115307142D01*
X167888628Y-115307142D02*
X167888628Y-115688094D01*
X167460057Y-114735713D02*
X167412438Y-114688094D01*
X167412438Y-114688094D02*
X167364819Y-114592856D01*
X167364819Y-114592856D02*
X167364819Y-114354761D01*
X167364819Y-114354761D02*
X167412438Y-114259523D01*
X167412438Y-114259523D02*
X167460057Y-114211904D01*
X167460057Y-114211904D02*
X167555295Y-114164285D01*
X167555295Y-114164285D02*
X167650533Y-114164285D01*
X167650533Y-114164285D02*
X167793390Y-114211904D01*
X167793390Y-114211904D02*
X168364819Y-114783332D01*
X168364819Y-114783332D02*
X168364819Y-114164285D01*
X158639819Y-59123333D02*
X159354104Y-59123333D01*
X159354104Y-59123333D02*
X159496961Y-59170952D01*
X159496961Y-59170952D02*
X159592200Y-59266190D01*
X159592200Y-59266190D02*
X159639819Y-59409047D01*
X159639819Y-59409047D02*
X159639819Y-59504285D01*
X159639819Y-58123333D02*
X159639819Y-58694761D01*
X159639819Y-58409047D02*
X158639819Y-58409047D01*
X158639819Y-58409047D02*
X158782676Y-58504285D01*
X158782676Y-58504285D02*
X158877914Y-58599523D01*
X158877914Y-58599523D02*
X158925533Y-58694761D01*
X154986905Y-78164819D02*
X154986905Y-77164819D01*
X154986905Y-77164819D02*
X155225000Y-77164819D01*
X155225000Y-77164819D02*
X155367857Y-77212438D01*
X155367857Y-77212438D02*
X155463095Y-77307676D01*
X155463095Y-77307676D02*
X155510714Y-77402914D01*
X155510714Y-77402914D02*
X155558333Y-77593390D01*
X155558333Y-77593390D02*
X155558333Y-77736247D01*
X155558333Y-77736247D02*
X155510714Y-77926723D01*
X155510714Y-77926723D02*
X155463095Y-78021961D01*
X155463095Y-78021961D02*
X155367857Y-78117200D01*
X155367857Y-78117200D02*
X155225000Y-78164819D01*
X155225000Y-78164819D02*
X154986905Y-78164819D01*
X155891667Y-77164819D02*
X156510714Y-77164819D01*
X156510714Y-77164819D02*
X156177381Y-77545771D01*
X156177381Y-77545771D02*
X156320238Y-77545771D01*
X156320238Y-77545771D02*
X156415476Y-77593390D01*
X156415476Y-77593390D02*
X156463095Y-77641009D01*
X156463095Y-77641009D02*
X156510714Y-77736247D01*
X156510714Y-77736247D02*
X156510714Y-77974342D01*
X156510714Y-77974342D02*
X156463095Y-78069580D01*
X156463095Y-78069580D02*
X156415476Y-78117200D01*
X156415476Y-78117200D02*
X156320238Y-78164819D01*
X156320238Y-78164819D02*
X156034524Y-78164819D01*
X156034524Y-78164819D02*
X155939286Y-78117200D01*
X155939286Y-78117200D02*
X155891667Y-78069580D01*
X154986905Y-76174819D02*
X154986905Y-75174819D01*
X154986905Y-75174819D02*
X155225000Y-75174819D01*
X155225000Y-75174819D02*
X155367857Y-75222438D01*
X155367857Y-75222438D02*
X155463095Y-75317676D01*
X155463095Y-75317676D02*
X155510714Y-75412914D01*
X155510714Y-75412914D02*
X155558333Y-75603390D01*
X155558333Y-75603390D02*
X155558333Y-75746247D01*
X155558333Y-75746247D02*
X155510714Y-75936723D01*
X155510714Y-75936723D02*
X155463095Y-76031961D01*
X155463095Y-76031961D02*
X155367857Y-76127200D01*
X155367857Y-76127200D02*
X155225000Y-76174819D01*
X155225000Y-76174819D02*
X154986905Y-76174819D01*
X155939286Y-75270057D02*
X155986905Y-75222438D01*
X155986905Y-75222438D02*
X156082143Y-75174819D01*
X156082143Y-75174819D02*
X156320238Y-75174819D01*
X156320238Y-75174819D02*
X156415476Y-75222438D01*
X156415476Y-75222438D02*
X156463095Y-75270057D01*
X156463095Y-75270057D02*
X156510714Y-75365295D01*
X156510714Y-75365295D02*
X156510714Y-75460533D01*
X156510714Y-75460533D02*
X156463095Y-75603390D01*
X156463095Y-75603390D02*
X155891667Y-76174819D01*
X155891667Y-76174819D02*
X156510714Y-76174819D01*
X158193333Y-58669580D02*
X158145714Y-58717200D01*
X158145714Y-58717200D02*
X158002857Y-58764819D01*
X158002857Y-58764819D02*
X157907619Y-58764819D01*
X157907619Y-58764819D02*
X157764762Y-58717200D01*
X157764762Y-58717200D02*
X157669524Y-58621961D01*
X157669524Y-58621961D02*
X157621905Y-58526723D01*
X157621905Y-58526723D02*
X157574286Y-58336247D01*
X157574286Y-58336247D02*
X157574286Y-58193390D01*
X157574286Y-58193390D02*
X157621905Y-58002914D01*
X157621905Y-58002914D02*
X157669524Y-57907676D01*
X157669524Y-57907676D02*
X157764762Y-57812438D01*
X157764762Y-57812438D02*
X157907619Y-57764819D01*
X157907619Y-57764819D02*
X158002857Y-57764819D01*
X158002857Y-57764819D02*
X158145714Y-57812438D01*
X158145714Y-57812438D02*
X158193333Y-57860057D01*
X159098095Y-57764819D02*
X158621905Y-57764819D01*
X158621905Y-57764819D02*
X158574286Y-58241009D01*
X158574286Y-58241009D02*
X158621905Y-58193390D01*
X158621905Y-58193390D02*
X158717143Y-58145771D01*
X158717143Y-58145771D02*
X158955238Y-58145771D01*
X158955238Y-58145771D02*
X159050476Y-58193390D01*
X159050476Y-58193390D02*
X159098095Y-58241009D01*
X159098095Y-58241009D02*
X159145714Y-58336247D01*
X159145714Y-58336247D02*
X159145714Y-58574342D01*
X159145714Y-58574342D02*
X159098095Y-58669580D01*
X159098095Y-58669580D02*
X159050476Y-58717200D01*
X159050476Y-58717200D02*
X158955238Y-58764819D01*
X158955238Y-58764819D02*
X158717143Y-58764819D01*
X158717143Y-58764819D02*
X158621905Y-58717200D01*
X158621905Y-58717200D02*
X158574286Y-58669580D01*
X186588333Y-118249580D02*
X186540714Y-118297200D01*
X186540714Y-118297200D02*
X186397857Y-118344819D01*
X186397857Y-118344819D02*
X186302619Y-118344819D01*
X186302619Y-118344819D02*
X186159762Y-118297200D01*
X186159762Y-118297200D02*
X186064524Y-118201961D01*
X186064524Y-118201961D02*
X186016905Y-118106723D01*
X186016905Y-118106723D02*
X185969286Y-117916247D01*
X185969286Y-117916247D02*
X185969286Y-117773390D01*
X185969286Y-117773390D02*
X186016905Y-117582914D01*
X186016905Y-117582914D02*
X186064524Y-117487676D01*
X186064524Y-117487676D02*
X186159762Y-117392438D01*
X186159762Y-117392438D02*
X186302619Y-117344819D01*
X186302619Y-117344819D02*
X186397857Y-117344819D01*
X186397857Y-117344819D02*
X186540714Y-117392438D01*
X186540714Y-117392438D02*
X186588333Y-117440057D01*
X187445476Y-117678152D02*
X187445476Y-118344819D01*
X187207381Y-117297200D02*
X186969286Y-118011485D01*
X186969286Y-118011485D02*
X187588333Y-118011485D01*
X186618333Y-113319580D02*
X186570714Y-113367200D01*
X186570714Y-113367200D02*
X186427857Y-113414819D01*
X186427857Y-113414819D02*
X186332619Y-113414819D01*
X186332619Y-113414819D02*
X186189762Y-113367200D01*
X186189762Y-113367200D02*
X186094524Y-113271961D01*
X186094524Y-113271961D02*
X186046905Y-113176723D01*
X186046905Y-113176723D02*
X185999286Y-112986247D01*
X185999286Y-112986247D02*
X185999286Y-112843390D01*
X185999286Y-112843390D02*
X186046905Y-112652914D01*
X186046905Y-112652914D02*
X186094524Y-112557676D01*
X186094524Y-112557676D02*
X186189762Y-112462438D01*
X186189762Y-112462438D02*
X186332619Y-112414819D01*
X186332619Y-112414819D02*
X186427857Y-112414819D01*
X186427857Y-112414819D02*
X186570714Y-112462438D01*
X186570714Y-112462438D02*
X186618333Y-112510057D01*
X186951667Y-112414819D02*
X187570714Y-112414819D01*
X187570714Y-112414819D02*
X187237381Y-112795771D01*
X187237381Y-112795771D02*
X187380238Y-112795771D01*
X187380238Y-112795771D02*
X187475476Y-112843390D01*
X187475476Y-112843390D02*
X187523095Y-112891009D01*
X187523095Y-112891009D02*
X187570714Y-112986247D01*
X187570714Y-112986247D02*
X187570714Y-113224342D01*
X187570714Y-113224342D02*
X187523095Y-113319580D01*
X187523095Y-113319580D02*
X187475476Y-113367200D01*
X187475476Y-113367200D02*
X187380238Y-113414819D01*
X187380238Y-113414819D02*
X187094524Y-113414819D01*
X187094524Y-113414819D02*
X186999286Y-113367200D01*
X186999286Y-113367200D02*
X186951667Y-113319580D01*
X138008849Y-130427002D02*
X137675516Y-129950811D01*
X137437421Y-130427002D02*
X137437421Y-129427002D01*
X137437421Y-129427002D02*
X137818373Y-129427002D01*
X137818373Y-129427002D02*
X137913611Y-129474621D01*
X137913611Y-129474621D02*
X137961230Y-129522240D01*
X137961230Y-129522240D02*
X138008849Y-129617478D01*
X138008849Y-129617478D02*
X138008849Y-129760335D01*
X138008849Y-129760335D02*
X137961230Y-129855573D01*
X137961230Y-129855573D02*
X137913611Y-129903192D01*
X137913611Y-129903192D02*
X137818373Y-129950811D01*
X137818373Y-129950811D02*
X137437421Y-129950811D01*
X138437421Y-129903192D02*
X138770754Y-129903192D01*
X138913611Y-130427002D02*
X138437421Y-130427002D01*
X138437421Y-130427002D02*
X138437421Y-129427002D01*
X138437421Y-129427002D02*
X138913611Y-129427002D01*
X139675516Y-129903192D02*
X139342183Y-129903192D01*
X139342183Y-130427002D02*
X139342183Y-129427002D01*
X139342183Y-129427002D02*
X139818373Y-129427002D01*
X140342183Y-129427002D02*
X140342183Y-129665097D01*
X140104088Y-129569859D02*
X140342183Y-129665097D01*
X140342183Y-129665097D02*
X140580278Y-129569859D01*
X140199326Y-129855573D02*
X140342183Y-129665097D01*
X140342183Y-129665097D02*
X140485040Y-129855573D01*
X141104088Y-129427002D02*
X141104088Y-129665097D01*
X140865993Y-129569859D02*
X141104088Y-129665097D01*
X141104088Y-129665097D02*
X141342183Y-129569859D01*
X140961231Y-129855573D02*
X141104088Y-129665097D01*
X141104088Y-129665097D02*
X141246945Y-129855573D01*
X185736666Y-54464819D02*
X185403333Y-53988628D01*
X185165238Y-54464819D02*
X185165238Y-53464819D01*
X185165238Y-53464819D02*
X185546190Y-53464819D01*
X185546190Y-53464819D02*
X185641428Y-53512438D01*
X185641428Y-53512438D02*
X185689047Y-53560057D01*
X185689047Y-53560057D02*
X185736666Y-53655295D01*
X185736666Y-53655295D02*
X185736666Y-53798152D01*
X185736666Y-53798152D02*
X185689047Y-53893390D01*
X185689047Y-53893390D02*
X185641428Y-53941009D01*
X185641428Y-53941009D02*
X185546190Y-53988628D01*
X185546190Y-53988628D02*
X185165238Y-53988628D01*
X186165238Y-53941009D02*
X186498571Y-53941009D01*
X186641428Y-54464819D02*
X186165238Y-54464819D01*
X186165238Y-54464819D02*
X186165238Y-53464819D01*
X186165238Y-53464819D02*
X186641428Y-53464819D01*
X187403333Y-53941009D02*
X187070000Y-53941009D01*
X187070000Y-54464819D02*
X187070000Y-53464819D01*
X187070000Y-53464819D02*
X187546190Y-53464819D01*
X188070000Y-53464819D02*
X188070000Y-53702914D01*
X187831905Y-53607676D02*
X188070000Y-53702914D01*
X188070000Y-53702914D02*
X188308095Y-53607676D01*
X187927143Y-53893390D02*
X188070000Y-53702914D01*
X188070000Y-53702914D02*
X188212857Y-53893390D01*
X188831905Y-53464819D02*
X188831905Y-53702914D01*
X188593810Y-53607676D02*
X188831905Y-53702914D01*
X188831905Y-53702914D02*
X189070000Y-53607676D01*
X188689048Y-53893390D02*
X188831905Y-53702914D01*
X188831905Y-53702914D02*
X188974762Y-53893390D01*
X165346666Y-130251009D02*
X165013333Y-130251009D01*
X165013333Y-130774819D02*
X165013333Y-129774819D01*
X165013333Y-129774819D02*
X165489523Y-129774819D01*
X166394285Y-130774819D02*
X165822857Y-130774819D01*
X166108571Y-130774819D02*
X166108571Y-129774819D01*
X166108571Y-129774819D02*
X166013333Y-129917676D01*
X166013333Y-129917676D02*
X165918095Y-130012914D01*
X165918095Y-130012914D02*
X165822857Y-130060533D01*
X140085057Y-98615238D02*
X140037438Y-98710476D01*
X140037438Y-98710476D02*
X139942200Y-98805714D01*
X139942200Y-98805714D02*
X139799342Y-98948571D01*
X139799342Y-98948571D02*
X139751723Y-99043809D01*
X139751723Y-99043809D02*
X139751723Y-99139047D01*
X139989819Y-99091428D02*
X139942200Y-99186666D01*
X139942200Y-99186666D02*
X139846961Y-99281904D01*
X139846961Y-99281904D02*
X139656485Y-99329523D01*
X139656485Y-99329523D02*
X139323152Y-99329523D01*
X139323152Y-99329523D02*
X139132676Y-99281904D01*
X139132676Y-99281904D02*
X139037438Y-99186666D01*
X139037438Y-99186666D02*
X138989819Y-99091428D01*
X138989819Y-99091428D02*
X138989819Y-98900952D01*
X138989819Y-98900952D02*
X139037438Y-98805714D01*
X139037438Y-98805714D02*
X139132676Y-98710476D01*
X139132676Y-98710476D02*
X139323152Y-98662857D01*
X139323152Y-98662857D02*
X139656485Y-98662857D01*
X139656485Y-98662857D02*
X139846961Y-98710476D01*
X139846961Y-98710476D02*
X139942200Y-98805714D01*
X139942200Y-98805714D02*
X139989819Y-98900952D01*
X139989819Y-98900952D02*
X139989819Y-99091428D01*
X139989819Y-97710476D02*
X139989819Y-98281904D01*
X139989819Y-97996190D02*
X138989819Y-97996190D01*
X138989819Y-97996190D02*
X139132676Y-98091428D01*
X139132676Y-98091428D02*
X139227914Y-98186666D01*
X139227914Y-98186666D02*
X139275533Y-98281904D01*
D11*
%TO.C,R14*%
X139780000Y-86976359D02*
X139780000Y-87283641D01*
X140540000Y-86976359D02*
X140540000Y-87283641D01*
%TO.C,R13*%
X141120000Y-86936359D02*
X141120000Y-87243641D01*
X141880000Y-86936359D02*
X141880000Y-87243641D01*
D12*
%TO.C,U1*%
X137793000Y-79207000D02*
X137793000Y-66053000D01*
X137793000Y-66053000D02*
X137987260Y-66053000D01*
X153047000Y-66053000D02*
X153047000Y-68497259D01*
X153047000Y-79207000D02*
X152252740Y-79207000D01*
X137987260Y-79207000D02*
X137793000Y-79207000D01*
X153047000Y-76762741D02*
X153047000Y-79207000D01*
X152252740Y-66053000D02*
X153047000Y-66053000D01*
%TO.C,R1*%
X186154900Y-103438000D02*
X186154900Y-87690000D01*
X186154900Y-87690000D02*
X180897100Y-87690000D01*
X180897100Y-87690000D02*
X180897100Y-103438000D01*
X180897100Y-103438000D02*
X186154900Y-103438000D01*
D11*
%TO.C,U4*%
X185860000Y-118220000D02*
X185860000Y-119480000D01*
X185860000Y-125040000D02*
X185860000Y-123780000D01*
X182100000Y-125040000D02*
X185860000Y-125040000D01*
X179850000Y-118220000D02*
X185860000Y-118220000D01*
%TO.C,U2*%
X162310000Y-110140000D02*
X162310000Y-108190000D01*
X167430000Y-110140000D02*
X167430000Y-106690000D01*
X162310000Y-110140000D02*
X162310000Y-112090000D01*
X167430000Y-110140000D02*
X167430000Y-112090000D01*
%TO.C,SW1*%
X170536000Y-54642000D02*
X170536000Y-55842000D01*
X170536000Y-57442000D02*
X170536000Y-58642000D01*
X176936000Y-54642000D02*
X170536000Y-54642000D01*
X176936000Y-58642000D02*
X176936000Y-57442000D01*
X176936000Y-55842000D02*
X176936000Y-54642000D01*
X170536000Y-58642000D02*
X176936000Y-58642000D01*
%TO.C,R17*%
X155546359Y-81110000D02*
X155853641Y-81110000D01*
X155546359Y-80350000D02*
X155853641Y-80350000D01*
%TO.C,R16*%
X155780000Y-75106359D02*
X155780000Y-75413641D01*
X156540000Y-75106359D02*
X156540000Y-75413641D01*
%TO.C,R15*%
X170077641Y-60326000D02*
X169770359Y-60326000D01*
X170077641Y-61086000D02*
X169770359Y-61086000D01*
%TO.C,R12*%
X154030000Y-108492936D02*
X154030000Y-109947064D01*
X155850000Y-108492936D02*
X155850000Y-109947064D01*
%TO.C,R11*%
X145902000Y-98263064D02*
X145902000Y-96808936D01*
X147722000Y-98263064D02*
X147722000Y-96808936D01*
%TO.C,R7*%
X151786000Y-109947064D02*
X151786000Y-108492936D01*
X149966000Y-109947064D02*
X149966000Y-108492936D01*
%TO.C,R6*%
X145902000Y-108492936D02*
X145902000Y-109947064D01*
X147722000Y-108492936D02*
X147722000Y-109947064D01*
%TO.C,R5*%
X143912000Y-109947064D02*
X143912000Y-108492936D01*
X142092000Y-109947064D02*
X142092000Y-108492936D01*
%TO.C,R2*%
X167120000Y-114796359D02*
X167120000Y-115103641D01*
X166360000Y-114796359D02*
X166360000Y-115103641D01*
%TO.C,J1*%
X166590000Y-60555000D02*
X166655000Y-60555000D01*
X166655000Y-60555000D02*
X166655000Y-57025000D01*
X160185000Y-60555000D02*
X160185000Y-57025000D01*
X160185000Y-57025000D02*
X160250000Y-57025000D01*
X166590000Y-57025000D02*
X166655000Y-57025000D01*
X160250000Y-61880000D02*
X160250000Y-60555000D01*
X160185000Y-60555000D02*
X160250000Y-60555000D01*
D13*
%TO.C,D3*%
X154685000Y-78880000D02*
G75*
G03*
X154585000Y-78880000I-50000J0D01*
G01*
X154585000Y-78880000D02*
G75*
G03*
X154685000Y-78880000I50000J0D01*
G01*
%TO.C,D2*%
X154685000Y-76890000D02*
G75*
G03*
X154585000Y-76890000I-50000J0D01*
G01*
X154585000Y-76890000D02*
G75*
G03*
X154685000Y-76890000I50000J0D01*
G01*
%TO.C,D1*%
X164360000Y-116900000D02*
G75*
G03*
X164260000Y-116900000I-50000J0D01*
G01*
X164260000Y-116900000D02*
G75*
G03*
X164360000Y-116900000I50000J0D01*
G01*
D11*
%TO.C,F1*%
X177130000Y-129620000D02*
X154230000Y-129620000D01*
X154230000Y-118620000D02*
X154230000Y-121620000D01*
X177130000Y-118620000D02*
X154230000Y-118620000D01*
X177130000Y-129620000D02*
X177130000Y-126620000D01*
X177130000Y-118620000D02*
X177130000Y-121620000D01*
X154230000Y-129620000D02*
X154230000Y-126620000D01*
%TO.C,Q1*%
X142045000Y-103640000D02*
X142045000Y-93400000D01*
X140535000Y-93400000D02*
X145176000Y-93400000D01*
X145176000Y-103640000D02*
X145176000Y-93400000D01*
X140535000Y-103640000D02*
X145176000Y-103640000D01*
X140535000Y-96669000D02*
X142045000Y-96669000D01*
X140535000Y-100370000D02*
X142045000Y-100370000D01*
X140535000Y-103640000D02*
X140535000Y-93400000D01*
%TD*%
M02*
